<svg version="1.1" xmlns="http://www.w3.org/2000/svg" xmlns:xlink="http://www.w3.org/1999/xlink" width="81.34706" height="46.38264" viewBox="0,0,81.34706,46.38264"><g transform="translate(-208.10345,-138.21447)"><g data-paper-data="{&quot;isPaintingLayer&quot;:true}" fill="#ffffff" fill-rule="nonzero" stroke-width="0" stroke-linecap="butt" stroke-linejoin="miter" stroke-miterlimit="10" stroke-dasharray="" stroke-dashoffset="0" style="mix-blend-mode: normal"><path d="M271.89655,138.25492v9.1133h-63.7931v-9.1133z" data-paper-data="{&quot;index&quot;:null}" stroke="#000000"/><path d="M271.89655,165.10221v9.1133h-21.08697v-9.1133z" data-paper-data="{&quot;index&quot;:null}" stroke="#000000"/><path d="M269.59506,147.31723c-5.77991,0.01241 -4.53724,-9.10277 1.86651,-9.10277c9.93502,0 17.98894,8.05391 17.98894,17.98893c0,9.93502 -8.05392,17.98894 -17.98894,17.98894c-7.03427,0 -7.63103,-9.10603 -1.54866,-9.11989c7.24849,-0.01651 10.85253,-4.28618 10.94869,-9.13823c0.10064,-5.0785 -2.97734,-8.63477 -11.26654,-8.61698z" data-paper-data="{&quot;index&quot;:null}" stroke="none"/><path d="M257.12594,154.71339l5.17338,5.17338l-14.91074,14.91074l-5.17338,-5.17338z" data-paper-data="{&quot;index&quot;:null}" stroke="#000000"/><path d="M262.2784,179.42373l-5.17338,5.17338l-14.91074,-14.91074l5.17338,-5.17338z" data-paper-data="{&quot;index&quot;:null}" stroke="#000000"/></g></g></svg>