<?xml version="1.0" encoding="UTF-8" standalone="no"?>
<svg
   width="500"
   height="500"
   version="1.1"
   id="svg12154"
   sodipodi:docname="back(1).svg"
   inkscape:version="1.2.2 (b0a8486541, 2022-12-01)"
   xmlns:inkscape="http://www.inkscape.org/namespaces/inkscape"
   xmlns:sodipodi="http://sodipodi.sourceforge.net/DTD/sodipodi-0.dtd"
   xmlns="http://www.w3.org/2000/svg"
   xmlns:svg="http://www.w3.org/2000/svg">
  <defs
     id="defs12158" />
  <sodipodi:namedview
     id="namedview12156"
     pagecolor="#ffffff"
     bordercolor="#000000"
     borderopacity="0.25"
     inkscape:showpageshadow="2"
     inkscape:pageopacity="0.0"
     inkscape:pagecheckerboard="0"
     inkscape:deskcolor="#d1d1d1"
     showgrid="false"
     inkscape:zoom="1.606"
     inkscape:cx="249.68867"
     inkscape:cy="250"
     inkscape:window-width="1920"
     inkscape:window-height="1009"
     inkscape:window-x="0"
     inkscape:window-y="32"
     inkscape:window-maximized="1"
     inkscape:current-layer="svg12154" />
  <path
     style="fill:#c97546; stroke:none;"
     d="M140 130L141.5 129.222L142.056 128.722L143.056 127.972L145 126.417L146 125.694L148 124.389L149 123.833L150 123.278L151 122.833L152 122.389L154 121.611L156 120.806L157 120.389L158 120.028L159 119.667L161 119L163 118.389L165 117.861L166 117.611L167 117.306L169 116.694L170 116.389L172 115.861L173 115.639L174 115.361L175 115.139L176 114.861L178 114.389L179 114.194L181 113.806L182 113.611L184 113.139L185 112.861L186 112.639L187 112.389L189 112.056L191 111.778L192 111.611L193 111.389L195 111.056L196 110.944L198 110.611L200 110.222L201 110.083L203 109.917L204 109.778L206 109.389L208 109.083L209 109.028L211 108.917L213 108.611L214 108.389L216 108.083L217 108.028L219 107.972L220 107.917L222 107.611L223 107.389L225 107.083L226 107.028L228 107L229 107L231 107L233 106.972L234 106.917L236 106.611L237 106.389L239 106.083L240 106.028L242 106L243 106L245 106L247 105.972L248 105.917L250 105.611L251 105.389L253 105.083L254 105.028L256 105L258 105L266 105L276 105L280 105L282 105.028L283 105.083L285 105.389L286 105.611L288 105.917L289 105.972L291 106L293 106L299 106L300 106L302 106.028L303 106.083L305 106.389L307 106.778L308 106.917L310 107.083L311 107.222L313 107.611L315 107.917L317 108.028L318 108.083L320 108.389L321 108.611L323 108.944L324 109.056L326 109.389L328 109.806L330 110.194L331 110.417L332 110.694L334 111.333L335 111.667L338 112.667L339 113L341 113.667L342 114.028L343 114.389L344 114.833L345 115.278L347 116.472L348 117.222L350 118.778L350.944 119.5L351.944 120.083L352.5 120.472L354 121L354 67L354 56L354 53L354 52L353.917 50L353.611 48L353.361 47L353.139 46L352.556 44L351.75 42L351.222 41L350.167 39L349.611 38L348.972 37L347.583 35L345.917 33L344 31L343 30L341 28.0833L339 26.4167L337 25L336 24.3333L334 23L332 21.6667L331 21.0278L330 20.3889L329 19.8333L328 19.25L327 18.7778L325 17.7778L324 17.25L323 16.8333L322 16.3889L320 15.6111L318 14.8055L317 14.3889L315 13.6111L313 12.8055L312 12.3889L310 11.6667L308 11L307 10.6945L306 10.3889L304 9.86111L303 9.61111L302 9.30554L301 9L299 8.41666L297 8L296 7.80554L295 7.61111L293 7.13889L292 6.86111L291 6.63889L290 6.38889L288 6.05554L287 5.94446L285 5.61111L284 5.38889L282 5.05554L281 4.94446L279 4.61111L278 4.38889L276 4.08334L275 4.02777L273 3.91666L271 3.61111L270 3.38889L268 3.08334L267 3.02777L265 3L264 3L261 3L260 3L258 2.97223L257 2.91666L255 2.61111L254 2.38889L252 2.08334L250 2L248 2L245 2L243 2L242 2.02777L241 2.08334L239 2.38889L238 2.61111L236 2.91666L235 2.97223L233 3L232 3L230 3L229 3L227 3.02777L226 3.08334L224 3.38889L223 3.61111L221 3.91666L219 4.02777L218 4.08334L216 4.38889L215 4.61111L213 4.94446L212 5.05554L210 5.38889L209 5.61111L207 5.94446L206 6.05554L204 6.38889L203 6.63889L201 7.13889L200 7.36111L199 7.63889L198 7.86111L197 8.13889L195 8.63889L194 8.86111L193 9.13889L192 9.36111L191 9.63889L190 9.86111L189 10.1389L187 10.6945L185 11.3889L184 11.8055L182 12.6111L181 12.9722L179 13.6667L178 14.0278L177 14.3889L176 14.8055L174 15.6111L172 16.3889L171 16.8333L170 17.25L169 17.7778L168 18.25L166 19.3889L164 20.6111L162 21.8055L160 23.0278L158 24.3889L157 25.1389L155 26.6389L154 27.3889L152 29.0833L150 31L148.083 33L146.417 35L145.028 37L144.389 38L143.25 40L142.778 41L142.25 42L141.472 44L141.222 45L140.806 47L140.389 49L140.222 50L140.083 51L140 53L140 54L140 55L140 57L140 68L140 130z"
     id="path11602" />
  <path
     style="fill:#ff7f7f; stroke:none;"
     d="M254 2L255 3L254 2z"
     id="path11604" />
  <path
     style="fill:#ff0000; stroke:none;"
     d="M215 4L216 5L215 4M278 4L279 5L278 4M209 5L210 6L209 5M284 5L285 6L284 5M294 7L295 8L294 7z"
     id="path11606" />
  <path
     style="fill:#ff7f7f; stroke:none;"
     d="M195 8L196 9L195 8M182 12L183 13L182 12z"
     id="path11608" />
  <path
     style="fill:#ff0000; stroke:none;"
     d="M179 13L180 14L179 13z"
     id="path11610" />
  <path
     style="fill:#ff7f7f; stroke:none;"
     d="M314 13L315 14L314 13z"
     id="path11612" />
  <path
     style="fill:#ff0000; stroke:none;"
     d="M164 20L165 21L164 20M334 23L335 24L334 23M155 26L156 27L155 26M348 36L349 37L348 36M351 41L352 42L351 41M140 48L141 49L140 48z"
     id="path11614" />
  <path
     style="fill:#a4592e; stroke:none;"
     d="M250 105L250.778 105.722L251.306 105.75L252.111 105.944L253.028 105.972L255 106L257 106L261 106L260.222 105.278L259.694 105.25L258.889 105.056L257.972 105.028L256 105L254 105L250 105z"
     id="path11616" />
  <path
     style="fill:#8b451f; stroke:none;"
     d="M261 105L261.778 105.722L262.306 105.75L263.111 105.944L264.028 105.972L265 106L266 106L268 106L278 106L277.222 105.278L276.694 105.25L275.889 105.056L274.972 105.028L274 105L273 105L271 105L261 105z"
     id="path11618" />
  <path
     style="fill:#9b5229; stroke:none;"
     d="M278 105L278.778 105.722L279.306 105.75L280.111 105.944L281.028 105.972L282.944 106L283.944 106L286 106L285.222 105.278L284.694 105.25L283.889 105.056L282.972 105.028L281.056 105L280.056 105L278 105z"
     id="path11620" />
  <path
     style="fill:#8d4720; stroke:none;"
     d="M236 106L236.778 106.722L237.25 106.75L238.056 106.944L240 107L239.222 106.278L238.75 106.25L237.944 106.056L236 106z"
     id="path11622" />
  <path
     style="fill:#6b2d0b; stroke:none;"
     d="M240 106L240.778 106.722L241.306 106.75L242.111 106.944L243.028 106.972L244 107L246 107L247 107L249 107L254 107L253.222 106.278L252.694 106.25L251.889 106.056L250.972 106.028L250 106L248 106L247 106L245 106L240 106z"
     id="path11624" />
  <path
     style="fill:#5b2101; stroke:none;"
     d="M139 153L141.056 152.417L143 152L145 151.611L146 151.389L148 151.056L149 150.944L151 150.611L152 150.389L153 150.194L155 149.806L156 149.611L157 149.389L159 149.056L161 148.778L163 148.389L165 148.056L166 147.944L168 147.611L170 147.222L171 147.083L173 146.917L174 146.778L176 146.389L178 146.083L179 146.028L181 145.917L183 145.611L184 145.389L186 145.083L187 145.028L189 144.917L191 144.611L192 144.389L194 144.083L195 144.028L197 144L198 143.972L199 143.917L201 143.611L202 143.389L204 143.083L205 143.028L207 143L208 143L210 143L212 142.917L214 142.611L215 142.389L217 142.083L218 142.028L220 142L222 141.972L223 141.917L225 141.611L226 141.389L228 141.083L229 141.028L230 141L232 141L238 141L239 141L241 140.972L242 140.917L244 140.611L245 140.389L247 140.083L248 140.028L250 140L251 140L256 140L271 140L283 140L287 140L288 140L290 140.028L291 140.083L293 140.389L294 140.611L296 140.917L297 140.972L298 141L300 141L306 141L308 141L310 141.028L311 141.083L313 141.389L314 141.611L316 141.917L317 141.972L318 142L320 142L322 142.028L323 142.083L325 142.389L326 142.611L328 142.917L329 142.972L331 143L333 143.028L334 143.083L336 143.389L338 143.778L339 143.917L341 144.083L342 144.222L344 144.611L346 144.917L347 144.972L349 145L349.944 145L353 145L353 120L351.5 119.222L350.944 118.722L349.944 117.972L348 116.472L346 115.278L345 114.833L344 114.389L342 113.667L341 113.333L339 112.667L337 112L335 111.417L333 111L331 110.611L330 110.389L329 110.194L327 109.806L326 109.611L325 109.389L323 109.056L322 108.944L321 108.778L319 108.389L317 108.083L316 108.028L314 107.917L312 107.611L311 107.389L309 107.083L308 107.028L307 107L305 106.972L304 106.917L302 106.611L301 106.389L299 106.083L298 106.028L297 106L295 106L290 106L275 106L263 106L259 106L257 106.028L256 106.083L254 106.389L253 106.611L251 106.917L250 106.972L248 107L244 107L233 107L231 107L230 107L228 107.028L227 107.083L225 107.389L224 107.611L222 107.917L221 107.972L219 108.028L218 108.083L216 108.389L215 108.611L213 108.917L212 108.972L210 109.028L209 109.083L207 109.389L205 109.778L204 109.917L202 110.083L201 110.222L199 110.611L197 110.944L196 111.056L194 111.389L192 111.778L190 112.056L188 112.389L187 112.611L185 112.944L184 113.056L182 113.389L180 113.806L178 114.194L177 114.389L175 114.861L174 115.139L173 115.361L172 115.639L171 115.861L169 116.389L168 116.694L166 117.306L165 117.611L164 117.861L162 118.389L160 119L158 119.667L157 120.028L156 120.389L155 120.806L153 121.611L151 122.389L150 122.833L149 123.278L147 124.389L145 125.694L144 126.417L143 127.222L141.111 129.028L139.722 131L139.111 133L139 135L139 136L139 138L139 153z"
     id="path11626" />
  <path
     style="fill:#ae6135; stroke:none;"
     d="M301 106L301.778 106.722L302.306 106.75L303.056 106.944L303.972 106.972L306 107L305.222 106.278L304.694 106.25L303.944 106.056L303.028 106.028L301 106z"
     id="path11628" />
  <path
     style="fill:#ab5f33; stroke:none;"
     d="M222 107L222.722 107.722L223.25 107.75L225 108L224.278 107.278L223.75 107.25L222 107z"
     id="path11630" />
  <path
     style="fill:#944c24; stroke:none;"
     d="M311.667 107.333L311.667 107.667L312.333 107.667L312.333 107.333L311.667 107.333z"
     id="path11632" />
  <path
     style="fill:#a65a2f; stroke:none;"
     d="M213 108L213.722 108.722L214.25 108.75L216 109L215.278 108.278L214.75 108.25L213 108z"
     id="path11634" />
  <path
     style="fill:#9c5329; stroke:none;"
     d="M319.667 108.333L319.667 108.667L320.333 108.667L320.333 108.333L319.667 108.333z"
     id="path11636" />
  <path
     style="fill:#a4592e; stroke:none;"
     d="M205.667 109.333L205.667 109.667L206.333 109.667L206.333 109.333L205.667 109.333z"
     id="path11638" />
  <path
     style="fill:#9e542a; stroke:none;"
     d="M325.667 109.333L325.667 109.667L326.333 109.667L326.333 109.333L325.667 109.333z"
     id="path11640" />
  <path
     style="fill:#a2582d; stroke:none;"
     d="M198.667 110.333L198.667 110.667L199.333 110.667L199 110.333L198.667 110.333z"
     id="path11642" />
  <path
     style="fill:#a3582e; stroke:none;"
     d="M330.667 110.333L330.667 110.667L331.333 110.667L331.333 110.333L330.667 110.333z"
     id="path11644" />
  <path
     style="fill:#985026; stroke:none;"
     d="M192.667 111.333L193 111.667L193.333 111.667L193 111.333L192.667 111.333z"
     id="path11646" />
  <path
     style="fill:#9f562c; stroke:none;"
     d="M186.667 112.333L186.667 112.667L187.333 112.667L187 112.333L186.667 112.333z"
     id="path11648" />
  <path
     style="fill:#823f18; stroke:none;"
     d="M353 121L353 145L353.722 144.222L353.75 143.694L353.944 142.889L353.972 141.972L354 141L354 140L354 138L354 128L354 126L354 125L353.972 124.028L353.944 123.111L353.75 122.306L353.722 121.778L353 121z"
     id="path11650" />
  <path
     style="fill:#7c3b16; stroke:none;"
     d="M244 140L244.778 140.722L245.306 140.75L246.111 140.944L247.028 140.972L248 141L250 141L251 141L253 141L259 141L258.222 140.278L257.694 140.25L256.889 140.056L255.972 140.028L255 140L253 140L252 140L250 140L244 140z"
     id="path11652" />
  <path
     style="fill:#954d25; stroke:none;"
     d="M259 140L259.778 140.722L260.306 140.75L261.111 140.944L262.028 140.972L264 141L265 141L268 141L286 141L285.222 140.278L284.694 140.25L283.889 140.056L282.972 140.028L281 140L280 140L277 140L259 140z"
     id="path11654" />
  <path
     style="fill:#773612; stroke:none;"
     d="M286 140L286.778 140.722L287.306 140.75L288.111 140.944L289.028 140.972L290.944 141L291.944 141L294 141L293.222 140.278L292.694 140.25L291.889 140.056L290.972 140.028L289.056 140L288.056 140L286 140z"
     id="path11656" />
  <path
     style="fill:#7b3916; stroke:none;"
     d="M225 141L225.778 141.722L226.306 141.75L227.111 141.944L227.972 141.972L228.944 142L231 142L230.222 141.278L229.694 141.25L228.889 141.056L228.028 141.028L227.056 141L225 141z"
     id="path11658" />
  <path
     style="fill:#a0552c; stroke:none;"
     d="M231 141L231.778 141.722L232.306 141.75L233.111 141.944L234.028 141.972L235.944 142L236.944 142L239 142L238.222 141.278L237.694 141.25L236.889 141.056L235.972 141.028L234.056 141L233.056 141L231 141z"
     id="path11660" />
  <path
     style="fill:#c97546; stroke:none;"
     d="M82 221L83 219.5L83.25 218.944L83.8889 217.944L84.4444 217L85.8611 215L86.6389 214L87.3889 213L88.9722 211.056L89.7222 210.056L90.2222 209.5L91 208L89.5 207.639L87.9722 206.667L86.3333 204.972L85.75 204L85.4444 203L85.4444 202L85.75 201L86.3333 200L88.0278 198.083L89 197.222L91 195.694L93 194.389L95 193.278L96 192.833L97 192.389L98 192.028L99 191.667L101 190.972L103 190.194L104 189.833L105 189.444L107 188.861L108 188.611L109 188.306L111 187.694L112 187.389L114 186.861L115 186.639L116 186.361L117 186.139L118 185.861L120 185.361L121 185.139L122 184.861L124 184.389L125 184.194L127 183.806L129 183.389L131 183.083L133 182.972L134 182.917L135 182.75L136 182.528L138 181.833L139 181.472L141 181.056L142 180.944L144 180.611L145 180.389L147 180.083L149 180L151 179.917L153 179.611L154 179.389L155 179.194L157 178.806L158 178.611L160 178.222L161 178.083L163 177.972L164 177.917L166 177.611L167 177.389L169 177.083L170 177.028L171 177L173 176.972L174 176.917L176 176.611L178 176.222L179 176.083L181 175.917L182 175.778L184 175.389L186 175.083L187 175.028L189 175L190 175L192 175L193 175L195 174.972L196 174.917L198 174.611L200 174.222L201 174.083L203 173.917L204 173.778L206 173.389L208 173.083L209 173.028L211 173L212 173L214 173L216 172.917L218 172.611L219 172.389L221 172.083L222 172.028L224 172L225 172L227 172L229 171.972L230 171.917L232 171.611L233 171.389L235 171.083L236 171.028L238 171L242 171L252 171L255 171L257 171L259 170.917L261 170.611L262 170.389L264 170.083L266 170L268 170L272 170L285 170L295 170L298 170L300 170.028L301 170.083L303 170.389L304 170.611L306 170.917L307 170.972L309 171L310 171L316 171L317 171L319 171.028L320 171.083L322 171.389L323 171.611L325 171.917L326 171.972L327 172L329 172L336 172L338 172L340 172.028L341 172.083L343 172.389L345 172.778L346 172.917L348 173.083L349 173.222L351 173.611L353 173.917L354 173.972L356 174.028L357 174.083L359 174.389L360 174.611L362 174.917L364 175.083L365 175.222L367 175.611L369 175.944L371 176.25L372 176.472L374 177.167L375 177.556L377 178.139L378 178.361L380 178.861L381 179.139L382 179.389L384 180.028L385 180.389L387 181.25L388 181.778L390 182.861L391 183.472L392.889 185.083L393.639 186.028L394.194 187L394.5 188.944L394.25 190.5L394 192L397.056 195.056L399 197L400 198L401.917 200L403.611 202L405.139 204L405.833 205L406.556 206L407.167 207L407.806 208L408.944 209.944L409.306 210.5L410 212L411.5 211.722L413.056 211.139L414 210.75L415 210.222L416 209.778L417 209.222L419 208.222L420 207.75L422 206.611L423 205.972L425 204.667L427 203.306L428 202.583L430 200.917L431 199.972L432.972 198L434.778 196L435.583 195L436.917 193L437.917 191L438.583 189L438.778 188L438.917 187L439 185L439 184L438.917 182L438.75 181L438.528 180L437.75 178L437.222 177L436.139 175L435.528 174L433.917 172.028L432 170.222L430 168.694L428 167.333L426 166.028L425 165.389L423 164.25L422 163.778L420 162.778L419 162.222L417 161.25L416 160.833L415 160.389L413 159.611L411 158.806L410 158.389L408 157.611L407 157.194L406 156.833L405 156.444L404 156.167L402 155.611L400 155L399 154.667L397 154L396 153.694L395 153.389L393 152.861L392 152.639L391 152.361L390 152.139L389 151.861L387 151.361L386 151.139L385 150.861L383 150.389L382 150.194L380 149.806L378 149.389L377 149.194L375 148.806L374 148.611L373 148.389L372 148.194L370 147.806L369 147.611L368 147.389L366 147.056L364 146.778L363 146.611L361 146.222L360 146.083L358 145.917L357 145.806L355 145.611L354 145.611L352 145.722L351 145.694L350 145.583L348 145.222L347 145.083L345 144.972L344 144.917L342 144.611L341 144.389L339 144.083L338 144.028L336 144L334 143.972L333 143.917L331 143.611L329 143.222L327 143.028L325 142.972L324 142.917L322 142.611L321 142.389L319 142.083L318 142.028L316 142L314 142L311 142L310 142L308 141.972L307 141.917L305 141.611L304 141.389L302 141.083L301 141.028L299 141L298 141L292 141L275 141L273 141L253 141L246 141L244 141L242 141.028L241 141.083L239 141.389L238 141.611L236 141.917L235 141.972L234 142L232 142L228 142L226 142L224 142.028L223 142.083L221 142.389L220 142.611L218 142.917L217 142.972L215 143L214 143L212 143L211 143L209 143.028L208 143.083L206 143.389L205 143.611L203 143.917L202 143.972L201 144L199 144.028L198 144.083L196 144.389L195 144.611L193 144.917L192 144.972L190 145L189 145.028L188 145.083L186 145.389L185 145.611L183 145.944L181 146.222L180 146.389L178 146.778L177 146.917L176 146.972L174 147.028L173 147.083L172 147.222L170 147.611L169 147.806L167 148.194L166 148.389L164 148.778L163 148.917L161 149.083L160 149.222L158 149.611L156 149.944L155 150.056L153 150.389L152 150.611L150 150.944L149 151.056L147 151.389L146 151.639L145 151.861L144 152.139L143 152.361L141 152.778L140 152.917L138 153.028L137 153.083L136 153.222L134 153.611L133 153.806L131 154.194L130 154.389L128 154.861L127 155.139L126 155.361L124 155.861L123 156.139L122 156.361L121 156.639L120 156.861L118 157.389L117 157.694L115 158.306L114 158.611L113 158.861L111 159.389L109 160L107 160.667L103 162L100 163L98 163.667L96 164.389L95 164.806L93 165.611L91 166.333L90 166.667L89 167.028L88 167.389L86 168.25L85 168.778L84 169.222L83 169.778L82 170.222L81 170.778L80 171.222L78 172.25L77 172.833L76 173.389L74 174.611L72 175.806L71 176.389L69 177.694L68 178.417L67 179.222L65 181.028L63 183L61.0833 185L59.4722 187L58.2778 189L57.8611 190L57.4722 191L57 193L56.6389 195L56.4722 196L56.4722 198L56.6667 199L57.1667 201L57.4444 202L58.2778 204L59.4722 206L60.25 207L62.0278 209L64 210.972L65 211.917L67 213.583L68 214.306L70 215.611L71 216.167L72 216.75L73 217.222L74 217.778L75 218.222L76 218.778L77 219.222L78 219.75L78.9444 220.139L80.5 220.722L82 221z"
     id="path11662" />
  <path
     style="fill:#9a5128; stroke:none;"
     d="M304 141L304.778 141.722L305.306 141.75L306.111 141.944L306.972 141.972L307.944 142L310 142L309.222 141.278L308.694 141.25L307.889 141.056L307.028 141.028L306.056 141L304 141z"
     id="path11664" />
  <path
     style="fill:#723210; stroke:none;"
     d="M310 141L310.778 141.722L311.25 141.75L312.056 141.944L314 142L313.222 141.278L312.75 141.25L311.944 141.056L310 141z"
     id="path11666" />
  <path
     style="fill:#974e26; stroke:none;"
     d="M214 142L214.778 142.722L215.306 142.75L216.111 142.944L217.028 142.972L217.944 143L218.944 143L221 143L220.222 142.278L219.694 142.25L218.889 142.056L217.972 142.028L217.056 142L216.056 142L214 142z"
     id="path11668" />
  <path
     style="fill:#89451f; stroke:none;"
     d="M321 142L321.778 142.722L322.306 142.75L323.056 142.944L323.972 142.972L326 143L325.222 142.278L324.694 142.25L323.944 142.056L323.028 142.028L321 142z"
     id="path11670" />
  <path
     style="fill:#924b23; stroke:none;"
     d="M201 143L201.778 143.722L202.306 143.75L203.056 143.944L203.972 143.972L206 144L205.222 143.278L204.694 143.25L203.944 143.056L203.028 143.028L201 143z"
     id="path11672" />
  <path
     style="fill:#9f552c; stroke:none;"
     d="M330 143L330.778 143.722L331.306 143.75L332.111 143.944L333.028 143.972L333.944 144L334.944 144L337 144L336.222 143.278L335.694 143.25L334.889 143.056L333.972 143.028L333.056 143L332.056 143L330 143z"
     id="path11674" />
  <path
     style="fill:#924b24; stroke:none;"
     d="M191 144L191.778 144.722L192.306 144.75L193.056 144.944L193.972 144.972L196 145L195.222 144.278L194.694 144.25L193.944 144.056L193.028 144.028L191 144z"
     id="path11676" />
  <path
     style="fill:#a2582d; stroke:none;"
     d="M341 144L341.722 144.722L342.25 144.75L344 145L343.278 144.278L342.75 144.25L341 144z"
     id="path11678" />
  <path
     style="fill:#813e19; stroke:none;"
     d="M183 145L183.722 145.722L184.25 145.75L186 146L185.278 145.278L184.75 145.25L183 145z"
     id="path11680" />
  <path
     style="fill:#9c5129; stroke:none;"
     d="M349 145L349.778 145.722L350.306 145.75L351.056 145.944L351.972 145.972L354 146L353.222 145.278L352.694 145.25L351.944 145.056L351.028 145.028L349 145z"
     id="path11682" />
  <path
     style="fill:#ff7f7f; stroke:none;"
     d="M355 145L356 146L355 145z"
     id="path11684" />
  <path
     style="fill:#9a5128; stroke:none;"
     d="M175 146L175.778 146.722L176.306 146.75L177.056 146.944L177.972 146.972L180 147L179.222 146.278L178.694 146.25L177.944 146.056L177.028 146.028L175 146z"
     id="path11686" />
  <path
     style="fill:#7f3d18; stroke:none;"
     d="M168 147L168.722 147.722L169.25 147.75L171 148L170.278 147.278L169.75 147.25L168 147z"
     id="path11688" />
  <path
     style="fill:#84411c; stroke:none;"
     d="M162.667 148.333L162.667 148.667L163.333 148.667L163 148.333L162.667 148.333z"
     id="path11690" />
  <path
     style="fill:#a75c31; stroke:none;"
     d="M164.667 148.333L164.667 148.667L165.333 148.667L165.333 148.333L164.667 148.333z"
     id="path11692" />
  <path
     style="fill:#8b451f; stroke:none;"
     d="M156 149L156.722 149.722L157.25 149.75L159 150L158.278 149.278L157.75 149.25L156 149z"
     id="path11694" />
  <path
     style="fill:#ff0000; stroke:none;"
     d="M378 149L379 150L378 149z"
     id="path11696" />
  <path
     style="fill:#964e26; stroke:none;"
     d="M151.667 150.333L151.667 150.667L152.333 150.667L152.333 150.333L151.667 150.333z"
     id="path11698" />
  <path
     style="fill:#86411c; stroke:none;"
     d="M145.667 151.333L145.667 151.667L146.333 151.667L146 151.333L145.667 151.333z"
     id="path11700" />
  <path
     style="fill:#8b451f; stroke:none;"
     d="M140 152L140.722 152.722L141.25 152.75L143 153L142.278 152.278L141.75 152.25L140 152z"
     id="path11702" />
  <path
     style="fill:#ff0000; stroke:none;"
     d="M134 153L135 154L134 153M401 155L402 156L401 155M114 158L115 159L114 158z"
     id="path11704" />
  <path
     style="fill:#ff7f7f; stroke:none;"
     d="M412 159L413 160L412 159M93 165L94 166L93 165z"
     id="path11706" />
  <path
     style="fill:#ff0000; stroke:none;"
     d="M426 166L427 167L426 166z"
     id="path11708" />
  <path
     style="fill:#b76334; stroke:none;"
     d="M261 170L261.778 170.722L262.306 170.75L263.111 170.944L264.028 170.972L265 171L267 171L268 171L270 171L274 171L304 171L303.222 170.278L302.694 170.25L301.889 170.056L300.972 170.028L300 170L298 170L296 170L291 170L261 170z"
     id="path11710" />
  <path
     style="fill:#b86436; stroke:none;"
     d="M232 171L232.778 171.722L233.306 171.75L234.111 171.944L235.028 171.972L237 172L239 172L243 172L242.222 171.278L241.694 171.25L240.889 171.056L239.972 171.028L238 171L236 171L232 171z"
     id="path11712" />
  <path
     style="fill:#a65223; stroke:none;"
     d="M394 191L394.722 188.944L394.833 187.944L394.278 186.028L392.889 184.25L391.972 183.472L390 182.25L389 181.778L387 180.833L386 180.389L384 179.694L383 179.389L381 178.861L380 178.639L379 178.361L378 178.139L376 177.556L375 177.167L373 176.472L372 176.25L370 175.944L368 175.611L366 175.222L365 175.083L363 174.917L361 174.611L360 174.389L358 174.083L357 174.028L355 173.972L354 173.917L352 173.611L351 173.389L349 173.083L348 173.028L346 173L345 173L343 173L342 173L340 172.972L339 172.917L337 172.611L335 172.222L334 172.083L332 172L330 172L328 172L327 171.972L326 171.917L324 171.611L323 171.389L321 171.083L320 171.028L318 171L316 171L308 171L284 171L259 171L251 171L248 171L246 171.028L245 171.083L243 171.389L242 171.611L240 171.917L239 171.972L237 172L235 172L232 172L231 172L229 172.028L228 172.083L226 172.389L225 172.611L223 172.917L222 172.972L220 173L218 173L211 173L209 173L208 173.028L207 173.083L205 173.389L203 173.778L202 173.917L200 174.083L199 174.222L197 174.611L195 174.917L194 174.972L192 175L191 175L189 175L188 175L186 175.028L185 175.083L183 175.389L181 175.778L180 175.917L178 176.083L177 176.222L175 176.611L173 176.917L172 176.972L170 177L169 177.028L168 177.083L166 177.389L165 177.611L163 177.917L162 177.972L160 178.083L159 178.222L157 178.611L156 178.806L154 179.194L153 179.389L152 179.611L150 179.917L149 179.972L147 180.028L146 180.083L144 180.389L143 180.611L142 180.778L141 180.944L140 181.056L138 181.472L137 181.833L135 182.528L134 182.75L133 182.917L131 183.028L130 183.083L128 183.389L126 183.806L124 184.194L123 184.389L121 184.861L120 185.139L119 185.361L118 185.639L117 185.861L115 186.361L114 186.639L113 186.861L111 187.389L110 187.694L108 188.306L107 188.611L106 188.861L104 189.444L103 189.833L101 190.611L99 191.333L98 191.667L96 192.389L95 192.833L94 193.278L93 193.833L91 195.028L90 195.694L88.0278 197.222L87.1111 198.083L86.3333 199.028L85.7222 200L85.1389 202L85.3333 204L85.7222 204.972L86.3333 205.889L87.1111 206.667L89 207.556L91 207.25L93 205.972L95 204.389L96 203.611L98 201.944L99 201.056L101 199.417L103 198.028L104 197.389L106 196.25L107 195.778L108 195.222L109 194.778L110 194.25L112 193.389L113 193.028L114 192.667L116 192L117 191.694L119 191.139L120 190.861L121 190.639L122 190.389L124 190.083L125 190.028L127 190L129 190L131 190L133 190.028L134 190.083L136 190.389L137 190.611L138 190.806L140 191.194L141 191.417L143 192L144 192.333L145 192.667L147 193.389L148 193.833L149 194.25L150 194.778L152 195.778L153 196.25L155 197.389L156 198.028L158 199.389L159 200.111L161 201.278L162 201.583L164 201.583L165 201.389L166 201.194L168 200.806L169 200.611L171 200.222L173 199.944L175 199.611L176 199.389L178 199.083L180 198.917L181 198.778L183 198.389L185 198.083L187 197.917L189 197.611L190 197.389L192 197.083L193 197.028L195 196.972L196 196.917L198 196.611L199 196.389L201 196.083L202 196.028L204 195.972L205 195.917L207 195.611L208 195.389L210 195.083L211 195.028L213 195L215 194.972L216 194.917L218 194.611L219 194.389L221 194.083L222 194.028L224 194L225 194L227 194L229 193.917L231 193.611L232 193.389L234 193.083L235 193.028L236 193L238 193L242 193L244 193L246 192.972L247 192.917L249 192.611L250 192.389L252 192.083L253 192.028L255 192L256 192L262 192L279 192L296 192L302 192L303 192L305 192.028L306 192.083L308 192.389L309 192.611L311 192.917L312 192.972L314 193L315 193L317 193L318 193L320 193.028L321 193.083L323 193.389L324 193.611L326 193.917L328 194L329 193.972L330 193.889L332 193.278L334 191.917L335 191.056L337 189.389L338 188.639L339 187.861L341 186.444L342 185.861L343 185.25L344 184.778L346 183.778L347 183.222L348 182.778L349 182.25L351 181.389L352 181.028L354 180.389L355 180.139L356 179.861L357 179.639L358 179.389L360 179.083L361 179.028L363 179L364 179L365 179L367 179.083L368 179.222L369 179.389L371 179.806L373 180.194L374 180.417L375 180.694L377 181.389L378 181.833L379 182.25L380 182.778L381 183.222L382 183.778L384 184.778L385 185.25L387 186.444L389 187.861L390.944 189.278L391.944 189.917L392.5 190.306L394 191z"
     id="path11714" />
  <path
     style="fill:#b56133; stroke:none;"
     d="M218 172L218.778 172.722L219.306 172.75L220.111 172.944L221.028 172.972L222.944 173L223.944 173L226 173L225.222 172.278L224.694 172.25L223.889 172.056L222.972 172.028L221.056 172L220.056 172L218 172z"
     id="path11716" />
  <path
     style="fill:#b35f30; stroke:none;"
     d="M336 172L336.778 172.722L337.306 172.75L338.111 172.944L339.028 172.972L340.944 173L341.944 173L344 173L343.222 172.278L342.694 172.25L341.889 172.056L340.972 172.028L339.056 172L338.056 172L336 172z"
     id="path11718" />
  <path
     style="fill:#ff7f7f; stroke:none;"
     d="M74 174L75 175L74 174z"
     id="path11720" />
  <path
     style="fill:#ff0000; stroke:none;"
     d="M437 177L438 178L437 177z"
     id="path11722" />
  <path
     style="fill:#cea086; stroke:none;"
     d="M357.667 179.333L357.667 179.667L358.333 179.667L358.333 179.333L357.667 179.333z"
     id="path11724" />
  <path
     style="fill:#ead6cb; stroke:none;"
     d="M359 179L359.778 179.722L360.306 179.75L361.111 179.944L362.028 179.972L362.944 180L363.944 180L366 180L365.222 179.278L364.694 179.25L363.889 179.056L362.972 179.028L362.056 179L361.056 179L359 179z"
     id="path11726" />
  <path
     style="fill:#dfc0af; stroke:none;"
     d="M366 179L366.778 179.722L367.25 179.75L368.056 179.944L370 180L369.222 179.278L368.75 179.25L367.944 179.056L366 179z"
     id="path11728" />
  <path
     style="fill:#dfc1b0; stroke:none;"
     d="M353.667 180.333L353.667 180.667L354.333 180.667L354.333 180.333L353.667 180.333z"
     id="path11730" />
  <path
     style="fill:#ffffff; stroke:none;"
     d="M166 312L168 312L168.778 313.167L169.306 313.417L170.111 313.972L171.028 314.389L173 315.417L175 316.611L177 317.75L178 318.222L180 319.222L181 319.778L182 320.222L183 320.778L184 321.222L185 321.778L187 322.75L188 323.167L189 323.611L191 324.389L193 325.194L194 325.611L196 326.333L197 326.667L199 327.389L201 328.167L202 328.528L203 328.778L204 329L206 329.389L208 329.861L209 330.139L210 330.361L211 330.639L212 330.861L213 331.139L215 331.611L216 331.806L218 332.194L219 332.389L221 332.778L222 332.917L223 332.972L225 333.083L226 333.222L228 333.611L230 333.917L231 333.972L233 334.083L234 334.222L236 334.611L237 334.778L238 334.917L240 335L241 335L243 335L245 334.972L246 334.917L248 334.611L249 334.389L251 334.083L252 334.028L254 334L255 334L258 334L260 334L262 333.972L263 333.917L265 333.611L267 333.222L268 333.083L270 332.917L271 332.778L273 332.389L274 332.194L276 331.806L277 331.611L278 331.389L279 331.194L281 330.806L282 330.611L283 330.361L284 330.139L285 329.861L286 329.611L288 329L290 328.333L292 327.667L295 326.667L298 325.667L299 325.333L300 324.972L301 324.611L303 323.75L304 323.25L306 322.389L307 322L309 321.111L311 320L312 319.389L313 318.833L314 318.25L315 317.778L317 316.75L318 316.167L319 315.611L321 314.333L322 313.667L323 313L325 311.611L326 310.861L327.972 309.361L328.889 308.667L329.694 307.833L330.222 307.417L331 306L333 306L333.778 307.5L334.306 308.056L335.111 309.028L337 310.778L338 311.583L340 312.972L341 313.611L343 314.75L344 315.222L345 315.778L346 316.222L347 316.75L349 317.611L350 317.972L352 318.667L354 319.306L355 319.583L357 319.917L359 320.083L360 320.222L362 320.611L364 320.917L366 321L368 320.917L370 320.611L372 320.222L373 320.056L374 319.944L376 319.583L378 319L379 318.667L380 318.333L382 317.611L384 316.75L385 316.222L387 315.222L388 314.75L389 314.167L390 313.611L392 312.306L394 310.778L395 309.944L396 309.056L397.972 307.389L398.917 306.611L400.611 304.917L401.389 303.972L403 302L404.583 300L406 298L407.333 296L408.611 294L409.75 292L410.222 291L411.222 289L412.222 287L412.75 286L413.167 285L413.611 284L414.389 282L415.167 280L415.556 279L415.833 278L416.389 276L416.694 275L417 274L417.583 272L418 270L418.194 269L418.611 267L418.917 265L419.083 263L419.389 261L419.611 260L419.917 258L419.972 257L420 255L420 254L420 251L420 248L420 247L419.972 245L419.917 244L419.611 242L419.389 241L419.083 239L419 238L418.778 236L418.611 235L418.194 233L417.806 231L417.611 230L417.361 229L417.139 228L416.611 226L416.306 225L416 224L415.333 222L414.667 220L414.333 219L413.972 218L413.611 217L412.722 215L412.139 214L411.556 213L410.139 211L409.389 210L408 208L407.333 207L406 205L405.306 204L404.611 203L403.861 202L402.361 200L401.611 199L399.917 197L398.972 196L398 195L396 193.083L394 191.389L393 190.639L391 189.139L390 188.389L388 187L387 186.333L385 185.083L383 184.056L382 183.639L381 183.194L380 182.806L379 182.389L377 181.667L376 181.333L375 181L373 180.417L371 180.083L370 180.028L369 180L367 180L363 180L361 180L360 180L359 180L357 180.083L356 180.222L355 180.417L353 181L352 181.333L350 182.028L348 182.806L347 183.194L346 183.639L345 184.056L343 185.083L341 186.333L340 187L338 188.417L336 190.083L335 191.028L333 192.889L331 194.194L329 194.5L328 194.361L326 194.083L325 194.028L324 194L322 194L320 194L319 194L317 193.972L316 193.917L314 193.611L312 193.222L311 193.083L309 193L308 193L306 193L299 193L278 193L258 193L252 193L250 193L249 193.028L248 193.083L246 193.389L245 193.611L243 193.917L242 193.972L241 194L239 194L232 194L230 194L229 194.028L228 194.083L226 194.389L225 194.611L223 194.917L222 194.972L220 195L218 195.028L217 195.083L215 195.389L214 195.611L212 195.917L211 195.972L210 196L208 196.028L207 196.083L205 196.389L204 196.611L202 196.917L201 196.972L199 197L198 197.028L197 197.083L195 197.389L194 197.611L192 197.917L191 197.972L189 198.083L188 198.222L187 198.389L185 198.778L184 198.917L182 199.083L181 199.222L180 199.389L178 199.778L177 199.917L175 200.083L173 200.389L172 200.611L170 200.944L169 201.056L167 201.389L165 201.75L164 201.833L162 201.5L160 200.528L158 199.167L157 198.444L155 197.25L154 196.778L153 196.222L152 195.778L151 195.222L150 194.778L149 194.25L147 193.389L146 193.028L144 192.389L143 192.139L141 191.639L139 191.222L137 191.028L135 190.972L134 190.917L132 190.611L131 190.389L129 190.111L128 190.111L126 190.389L125 190.611L123 190.944L122 191.056L120 191.389L118 191.806L116 192.194L115 192.417L114 192.694L112 193.389L111 193.833L110 194.25L109 194.778L108 195.222L107 195.778L106 196.25L104 197.389L103 198.028L101 199.333L100 200L98 201.417L96 203.083L95 204.028L93 206L91.0278 208L90.0833 209L88.3889 211L87.6389 212L86.8611 213L85.4444 215L84.1667 217L83.5278 218L82.7778 219L81.2222 221L80.4722 222L79.2778 224L78.8333 225L78 227L77.6111 228L76.8056 230L76.3889 231L75.6667 233L75.3333 234L75 235L74.4167 237L74.1944 238L73.8056 240L73.3889 242L73.0556 244L72.9444 245L72.6111 247L72.3889 248L72.0833 250L72.0278 251L72 253L72 254L72 257L72 264L72 266L72.0278 267L72.0833 268L72.3889 270L72.6111 271L72.7778 272L72.9444 273L73.0556 274L73.3889 276L73.8611 278L74.1389 279L74.3889 280L74.6944 281L75 282L75.6667 284L76.3333 286L76.6667 287L77.3889 289L78.25 291L78.7778 292L79.7778 294L80.2222 295L80.7778 296L81.2222 297L81.7778 298L82.25 299L83.3889 301L84.0278 302L85.3889 304L86.1389 305L87.6389 307L88.3889 308L90.0833 310L92 312L93 313L95 314.917L97 316.583L99 318L100 318.667L102 319.972L103 320.611L105 321.75L106 322.222L107 322.778L108 323.222L109 323.75L111 324.611L112 324.972L114 325.667L115 326L117 326.583L118 326.806L120 327.194L121 327.389L122 327.611L124 327.917L125 327.972L127 328L129 328L131 328L132 328L134 327.972L135 327.917L137 327.611L138 327.389L140 327L142 326.611L144 326.139L145 325.833L146 325.556L148 324.75L149 324.25L151 323.361L152 322.944L154 321.944L156 320.806L157 320.167L158 319.556L159 318.833L161 317.361L162 316.611L163.889 314.972L164.694 314.028L165.222 313.5L166 312z"
     id="path11732" />
  <path
     style="fill:#ca997d; stroke:none;"
     d="M373.667 180.333L373.667 180.667L374.333 180.667L374.333 180.333L373.667 180.333z"
     id="path11734" />
  <path
     style="fill:#ff0000; stroke:none;"
     d="M64 181L65 182L64 181z"
     id="path11736" />
  <path
     style="fill:#c9977a; stroke:none;"
     d="M350 181L351 182L350 181z"
     id="path11738" />
  <path
     style="fill:#e7d1c4; stroke:none;"
     d="M351 181L352 182L351 181z"
     id="path11740" />
  <path
     style="fill:#e8d2c6; stroke:none;"
     d="M376 181L377 182L376 181z"
     id="path11742" />
  <path
     style="fill:#ca997d; stroke:none;"
     d="M377 181L378 182L377 181z"
     id="path11744" />
  <path
     style="fill:#ff0000; stroke:none;"
     d="M63 182L64 183L63 182z"
     id="path11746" />
  <path
     style="fill:#e1c5b5; stroke:none;"
     d="M348 182L349 183L348 182z"
     id="path11748" />
  <path
     style="fill:#e2c7b8; stroke:none;"
     d="M379 182L380 183L379 182z"
     id="path11750" />
  <path
     style="fill:#ff7f7f; stroke:none;"
     d="M62 183L63 184L62 183z"
     id="path11752" />
  <path
     style="fill:#e6cdc0; stroke:none;"
     d="M346 183L347 184L346 183z"
     id="path11754" />
  <path
     style="fill:#e7d0c3; stroke:none;"
     d="M381 183L382 184L381 183z"
     id="path11756" />
  <path
     style="fill:#d6b09a; stroke:none;"
     d="M342 185L343 186L342 185z"
     id="path11758" />
  <path
     style="fill:#d8b39e; stroke:none;"
     d="M385 185L386 186L385 185z"
     id="path11760" />
  <path
     style="fill:#c18665; stroke:none;"
     d="M340 186L341 187L340 186z"
     id="path11762" />
  <path
     style="fill:#c28869; stroke:none;"
     d="M387 186L388 187L387 186z"
     id="path11764" />
  <path
     style="fill:#ddbdaa; stroke:none;"
     d="M339 187L340 188L339 187z"
     id="path11766" />
  <path
     style="fill:#e3c9ba; stroke:none;"
     d="M388 187L389 188L388 187z"
     id="path11768" />
  <path
     style="fill:#bf8361; stroke:none;"
     d="M336 189L337 190L336 189z"
     id="path11770" />
  <path
     style="fill:#ce9f84; stroke:none;"
     d="M391 189L392 190L391 189z"
     id="path11772" />
  <path
     style="fill:#ff0000; stroke:none;"
     d="M438 189L439 190L438 189z"
     id="path11774" />
  <path
     style="fill:#cc9b80; stroke:none;"
     d="M121.667 190.333L122 190.667L122.333 190.667L122.333 190.333L121.667 190.333z"
     id="path11776" />
  <path
     style="fill:#e5ccbe; stroke:none;"
     d="M123 190L123.722 190.722L124.25 190.75L126 191L125.278 190.278L124.75 190.25L123 190z"
     id="path11778" />
  <path
     style="fill:#f1e4dc; stroke:none;"
     d="M131 190L131.722 190.722L132.25 190.75L134 191L133.278 190.278L132.75 190.25L131 190z"
     id="path11780" />
  <path
     style="fill:#dfc0af; stroke:none;"
     d="M134 190L134.722 190.722L135.25 190.75L137 191L136.278 190.278L135.75 190.25L134 190z"
     id="path11782" />
  <path
     style="fill:#cea086; stroke:none;"
     d="M335 190L336 191L335 190z"
     id="path11784" />
  <path
     style="fill:#e3c8b9; stroke:none;"
     d="M392 190L393 191L392 190z"
     id="path11786" />
  <path
     style="fill:#cb997e; stroke:none;"
     d="M117 191L118 192L117 191z"
     id="path11788" />
  <path
     style="fill:#f3e7e1; stroke:none;"
     d="M118.667 191.333L119 191.667L119.333 191.667L119.333 191.333L118.667 191.333z"
     id="path11790" />
  <path
     style="fill:#d0a48b; stroke:none;"
     d="M140.667 191.333L140.667 191.667L141.333 191.667L141.333 191.333L140.667 191.333z"
     id="path11792" />
  <path
     style="fill:#d2a891; stroke:none;"
     d="M334 191L335 192L334 191z"
     id="path11794" />
  <path
     style="fill:#d0a38b; stroke:none;"
     d="M114 192L115 193L114 192z"
     id="path11796" />
  <path
     style="fill:#d5ae98; stroke:none;"
     d="M144 192L145 193L144 192z"
     id="path11798" />
  <path
     style="fill:#ba7954; stroke:none;"
     d="M249 192L249.778 192.722L250.25 192.75L251.056 192.944L253 193L252.222 192.278L251.75 192.25L250.944 192.056L249 192z"
     id="path11800" />
  <path
     style="fill:#c9977a; stroke:none;"
     d="M253 192L253.778 192.722L254.306 192.75L255.111 192.944L255.972 192.972L256.944 193L259 193L258.222 192.278L257.694 192.25L256.889 192.056L256.028 192.028L255.056 192L253 192z"
     id="path11802" />
  <path
     style="fill:#d5ae98; stroke:none;"
     d="M259 192L259.778 192.722L260.25 192.75L261.056 192.944L263 193L262.222 192.278L261.75 192.25L260.944 192.056L259 192z"
     id="path11804" />
  <path
     style="fill:#e6cdc0; stroke:none;"
     d="M263 192L263.778 192.722L264.306 192.75L265.111 192.944L266.028 192.972L268 193L269.944 193L273 193L272.222 192.278L271.694 192.25L270.889 192.056L269.972 192.028L268 192L266.056 192L263 192z"
     id="path11806" />
  <path
     style="fill:#eddcd3; stroke:none;"
     d="M273 192L273.778 192.722L274.306 192.75L275.111 192.944L276.028 192.972L277 193L278 193L280 193L289 193L288.222 192.278L287.694 192.25L286.889 192.056L285.972 192.028L285 192L284 192L282 192L273 192z"
     id="path11808" />
  <path
     style="fill:#e2c6b7; stroke:none;"
     d="M289 192L289.778 192.722L290.306 192.75L291.111 192.944L292.028 192.972L293.944 193L294.944 193L297 193L296.222 192.278L295.694 192.25L294.889 192.056L293.972 192.028L292.056 192L291.056 192L289 192z"
     id="path11810" />
  <path
     style="fill:#cc9d82; stroke:none;"
     d="M297 192L297.778 192.722L298.306 192.75L299.111 192.944L300.028 192.972L302 193L302.944 193L306 193L305.222 192.278L304.694 192.25L303.889 192.056L302.972 192.028L301 192L300.056 192L297 192z"
     id="path11812" />
  <path
     style="fill:#b87651; stroke:none;"
     d="M306 192L306.722 192.722L307.25 192.75L309 193L308.278 192.278L307.75 192.25L306 192z"
     id="path11814" />
  <path
     style="fill:#d5ae97; stroke:none;"
     d="M333 192L334 193L333 192z"
     id="path11816" />
  <path
     style="fill:#c89478; stroke:none;"
     d="M111 193L112 194L111 193z"
     id="path11818" />
  <path
     style="fill:#d0a48b; stroke:none;"
     d="M147 193L148 194L147 193z"
     id="path11820" />
  <path
     style="fill:#c08564; stroke:none;"
     d="M231 193L231.778 193.722L232.306 193.75L233.056 193.944L233.972 193.972L236 194L235.222 193.278L234.694 193.25L233.944 193.056L233.028 193.028L231 193z"
     id="path11822" />
  <path
     style="fill:#dcbcaa; stroke:none;"
     d="M236 193L236.778 193.722L237.306 193.75L238.111 193.944L239.028 193.972L239.944 194L240.944 194L243 194L242.222 193.278L241.694 193.25L240.889 193.056L239.972 193.028L239.056 193L238.056 193L236 193z"
     id="path11824" />
  <path
     style="fill:#f2e6df; stroke:none;"
     d="M243 193L243.722 193.722L244.25 193.75L246 194L245.278 193.278L244.75 193.25L243 193M313 193L313.722 193.722L314.25 193.75L316 194L315.278 193.278L314.75 193.25L313 193z"
     id="path11826" />
  <path
     style="fill:#e2c7b8; stroke:none;"
     d="M316 193L316.722 193.722L317.25 193.75L319 194L318.278 193.278L317.75 193.25L316 193z"
     id="path11828" />
  <path
     style="fill:#cea187; stroke:none;"
     d="M319.667 193.333L319.667 193.667L320.333 193.667L320.333 193.333L319.667 193.333z"
     id="path11830" />
  <path
     style="fill:#c18665; stroke:none;"
     d="M321 193L321.722 193.722L322.25 193.75L324 194L323.278 193.278L322.75 193.25L321 193z"
     id="path11832" />
  <path
     style="fill:#d8b39e; stroke:none;"
     d="M332 193L333 194L332 193z"
     id="path11834" />
  <path
     style="fill:#ff7f7f; stroke:none;"
     d="M436 193L437 194L436 193z"
     id="path11836" />
  <path
     style="fill:#d2a78f; stroke:none;"
     d="M109 194L110 195L109 194z"
     id="path11838" />
  <path
     style="fill:#dab6a3; stroke:none;"
     d="M149 194L150 195L149 194z"
     id="path11840" />
  <path
     style="fill:#ba7853; stroke:none;"
     d="M218 194L218.722 194.722L219.25 194.75L221 195L220.278 194.278L219.75 194.25L218 194z"
     id="path11842" />
  <path
     style="fill:#d0a38a; stroke:none;"
     d="M221 194L221.722 194.722L222.25 194.75L224 195L223.278 194.278L222.75 194.25L221 194z"
     id="path11844" />
  <path
     style="fill:#e6cdc0; stroke:none;"
     d="M224.667 194.333L224.667 194.667L225.333 194.667L225.333 194.333L224.667 194.333M328 194L328.778 194.722L329.25 194.75L330.056 194.944L332 195L331.222 194.278L330.75 194.25L329.944 194.056L328 194z"
     id="path11846" />
  <path
     style="fill:#dbb8a5; stroke:none;"
     d="M107 195L108 196L107 195z"
     id="path11848" />
  <path
     style="fill:#e3c9bb; stroke:none;"
     d="M151 195L152 196L151 195z"
     id="path11850" />
  <path
     style="fill:#bb7b57; stroke:none;"
     d="M207 195L207.722 195.722L208.25 195.75L210 196L209.278 195.278L208.75 195.25L207 195z"
     id="path11852" />
  <path
     style="fill:#d6af99; stroke:none;"
     d="M210.667 195.333L211 195.667L211.333 195.667L211.333 195.333L210.667 195.333z"
     id="path11854" />
  <path
     style="fill:#e7d0c3; stroke:none;"
     d="M212 195L212.722 195.722L213.25 195.75L215 196L214.278 195.278L213.75 195.25L212 195z"
     id="path11856" />
  <path
     style="fill:#ce9f85; stroke:none;"
     d="M105 196L106 197L105 196z"
     id="path11858" />
  <path
     style="fill:#d8b49f; stroke:none;"
     d="M153 196L154 197L153 196z"
     id="path11860" />
  <path
     style="fill:#c48c6c; stroke:none;"
     d="M198.667 196.333L199 196.667L199.333 196.667L199 196.333L198.667 196.333z"
     id="path11862" />
  <path
     style="fill:#d6b09a; stroke:none;"
     d="M200 196L200.722 196.722L201.25 196.75L203 197L202.278 196.278L201.75 196.25L200 196z"
     id="path11864" />
  <path
     style="fill:#f1e3dc; stroke:none;"
     d="M203.667 196.333L203.667 196.667L204.333 196.667L204.333 196.333L203.667 196.333z"
     id="path11866" />
  <path
     style="fill:#be815f; stroke:none;"
     d="M103 197L104 198L103 197z"
     id="path11868" />
  <path
     style="fill:#c99679; stroke:none;"
     d="M155 197L156 198L155 197z"
     id="path11870" />
  <path
     style="fill:#bc7d5a; stroke:none;"
     d="M189 197L189.722 197.722L190.25 197.75L192 198L191.278 197.278L190.75 197.25L189 197z"
     id="path11872" />
  <path
     style="fill:#dcbcaa; stroke:none;"
     d="M192 197L192.722 197.722L193.25 197.75L195 198L194.278 197.278L193.75 197.25L192 197z"
     id="path11874" />
  <path
     style="fill:#ff0000; stroke:none;"
     d="M433 197L434 198L433 197z"
     id="path11876" />
  <path
     style="fill:#e3c8b9; stroke:none;"
     d="M102 198L103 199L102 198z"
     id="path11878" />
  <path
     style="fill:#c48c6c; stroke:none;"
     d="M182 198L182.722 198.722L183.25 198.75L185 199L184.278 198.278L183.75 198.25L182 198z"
     id="path11880" />
  <path
     style="fill:#e9d4c9; stroke:none;"
     d="M185.667 198.333L185.667 198.667L186.333 198.667L186.333 198.333L185.667 198.333z"
     id="path11882" />
  <path
     style="fill:#ff0000; stroke:none;"
     d="M432 198L433 199L432 198z"
     id="path11884" />
  <path
     style="fill:#bd7e5b; stroke:none;"
     d="M100 199L101 200L100 199z"
     id="path11886" />
  <path
     style="fill:#c99578; stroke:none;"
     d="M158 199L159 200L158 199z"
     id="path11888" />
  <path
     style="fill:#c69072; stroke:none;"
     d="M175 199L175.722 199.722L176.25 199.75L178 200L177.278 199.278L176.75 199.25L175 199z"
     id="path11890" />
  <path
     style="fill:#ebd8ce; stroke:none;"
     d="M178.667 199.333L179 199.667L179.333 199.667L179.333 199.333L178.667 199.333z"
     id="path11892" />
  <path
     style="fill:#ff0000; stroke:none;"
     d="M431 199L432 200L431 199z"
     id="path11894" />
  <path
     style="fill:#d3aa92; stroke:none;"
     d="M99 200L100 201L99 200z"
     id="path11896" />
  <path
     style="fill:#e0c3b3; stroke:none;"
     d="M159 200L160 201L159 200z"
     id="path11898" />
  <path
     style="fill:#ca997d; stroke:none;"
     d="M169.667 200.333L169.667 200.667L170.333 200.667L170.333 200.333L169.667 200.333z"
     id="path11900" />
  <path
     style="fill:#e7d1c4; stroke:none;"
     d="M171.667 200.333L171.667 200.667L172.333 200.667L172.333 200.333L171.667 200.333z"
     id="path11902" />
  <path
     style="fill:#eed3c4; stroke:none;"
     d="M402 200L403 201L402 200z"
     id="path11904" />
  <path
     style="fill:#dbbaa7; stroke:none;"
     d="M164 201L164.722 201.722L165.25 201.75L167 202L166.278 201.278L165.75 201.25L164 201z"
     id="path11906" />
  <path
     style="fill:#e5bea7; stroke:none;"
     d="M403 201L404 202L403 201z"
     id="path11908" />
  <path
     style="fill:#ff0000; stroke:none;"
     d="M426 203L427 204L426 203z"
     id="path11910" />
  <path
     style="fill:#c28868; stroke:none;"
     d="M94 204L95 205L94 204z"
     id="path11912" />
  <path
     style="fill:#edd0c1; stroke:none;"
     d="M405 204L406 205L405 204z"
     id="path11914" />
  <path
     style="fill:#c9977a; stroke:none;"
     d="M93 205L94 206L93 205z"
     id="path11916" />
  <path
     style="fill:#dca789; stroke:none;"
     d="M406 205L407 206L406 205z"
     id="path11918" />
  <path
     style="fill:#c89477; stroke:none;"
     d="M92 206L93 207L92 206z"
     id="path11920" />
  <path
     style="fill:#c18665; stroke:none;"
     d="M91 207L92 208L91 207z"
     id="path11922" />
  <path
     style="fill:#eccfbf; stroke:none;"
     d="M407 207L408 208L407 207z"
     id="path11924" />
  <path
     style="fill:#ff0000; stroke:none;"
     d="M62 209L63 210L62 209M416 209L417 210L416 209z"
     id="path11926" />
  <path
     style="fill:#deac8f; stroke:none;"
     d="M409 210L410 211L409 210z"
     id="path11928" />
  <path
     style="fill:#e5bca6; stroke:none;"
     d="M87 212L88 213L87 212z"
     id="path11930" />
  <path
     style="fill:#deaa8d; stroke:none;"
     d="M84 216L85 217L84 216z"
     id="path11932" />
  <path
     style="fill:#ebccbb; stroke:none;"
     d="M83 218L84 219L83 218z"
     id="path11934" />
  <path
     style="fill:#e1b197; stroke:none;"
     d="M331 306L332 307L331 306z"
     id="path11936" />
  <path
     style="fill:#c97546; stroke:none;"
     d="M332 306L329.944 307.472L328 309L326 310.583L324 312L323 312.667L321 314L319 315.333L318 315.972L317 316.611L315 317.75L314 318.222L313 318.778L312 319.222L311 319.778L310 320.222L309 320.778L308 321.222L306 322.222L305 322.778L303 323.75L302 324.167L301 324.611L299 325.333L298 325.667L295 326.667L294 327L292 327.667L291 328.028L290 328.389L289 328.806L287 329.556L285 330.139L284 330.361L282 330.861L280 331.361L279 331.611L277 331.944L276 332.056L274 332.389L273 332.639L271 333.139L270 333.361L269 333.611L267 333.917L265 334L263 334.083L261 334.389L260 334.611L258 334.917L257 334.972L255 335L253 335L244 335L237 335L235 335L234 334.972L233 334.917L231 334.611L230 334.389L228 334.083L227 334L225 333.778L223 333.389L222 333.194L220 332.806L219 332.611L218 332.389L217 332.194L215 331.806L214 331.611L212 331.139L211 330.861L210 330.639L209 330.361L208 330.139L206 329.611L205 329.306L204 329L203 328.667L200 327.667L197 326.667L196 326.333L195 325.972L194 325.611L192 324.75L191 324.25L189 323.389L187 322.611L185 321.75L184 321.222L183 320.778L182 320.222L181 319.75L179 318.611L177 317.389L176 316.806L174 315.639L173.056 315.083L172.056 314.639L171.5 314.333L170 314L169 315.5L168.778 316.056L168.194 317.056L167.778 318L167.222 319L166.222 321L165.75 322L165.167 323L164.611 324L163.389 326L162.833 327L162.25 328L161.222 330L160.778 331L160.222 332L159.222 334L158.778 335L158.222 336L157.778 337L157.222 338L156.778 339L155.778 341L155.222 342L154.778 343L154.222 344L153.778 345L153.222 346L152.75 347L151.611 349L150.972 350L149.611 352L148.861 353L147.361 355L146.639 356L145.861 357L144.389 359L143.694 360L142.306 362L141.611 363L140.139 365L139.361 366L138.639 367L137.139 369L136.361 370L135.639 371L134.861 372L134.139 373L133.361 374L132.611 375L130.917 377L129.972 378L128 380L127 381L124 384L111 397L108 400L106 402L104 403.972L103 404.917L101 406.611L100 407.389L98 409.083L96 411L94 412.917L92 414.611L90 416.222L88.1111 418.028L86.7222 420L86.1111 422L86.1111 424L86.7222 426L88.0833 428L89.7778 430L90.6111 431L91.3889 432L93.0833 434L95 436L97 437.972L98 438.917L99 439.778L101 441.306L103 442.611L105 443.806L106 444.389L108 445.667L109 446.333L110 446.972L112 448.194L113.972 449.472L114.917 450.222L116.611 451.778L117.389 452.528L119.083 453.806L120.028 454.389L122 455.611L124 456.75L125 457.222L126 457.778L127 458.25L128 458.833L129 459.389L131 460.611L132 461.167L133 461.75L135 462.778L136 463.25L137 463.833L138 464.389L139.944 465.611L140.5 465.944L142 467L144.056 466.889L146 467.333L147 467.778L149 468.611L151 469.333L152 469.667L154 470.389L155 470.806L156 471.194L158 472L160 472.806L161 473.167L162 473.528L163 473.778L165 474.194L167 474.611L169 474.944L170 475.056L172 475.389L174 475.806L176 476.194L177 476.389L178 476.639L179 476.861L180 477.139L182 477.611L183 477.806L185 478.194L186 478.389L187 478.611L189 478.917L190 478.972L192 479L193 479L195 479L197 479.083L199 479.389L200 479.611L202 479.917L203 479.972L204 480L206 480L208 480.028L209 480.083L211 480.389L212 480.611L214 480.917L215 480.972L217 481L218 481L221 481L222 481L224 481.028L225 481.083L227 481.389L228 481.611L230 481.917L231 481.972L233 482L235 482L242 482L247 482L249 482L250 481.972L251 481.917L253 481.611L254 481.389L256 481.083L257 481.028L259 481L260 481L263 481L264 481L266 480.972L267 480.917L269 480.611L270 480.389L272 480.083L273 480.028L275 479.972L276 479.917L278 479.611L279 479.389L281 479.056L283 478.778L284 478.611L286 478.222L287 478.083L289 477.917L290 477.778L291 477.611L293 477.222L294 477.083L296 476.917L297 476.778L299 476.389L300 476.222L301 476.083L303 475.917L305 475.611L307 475.222L308 475.083L310 474.917L312 474.611L313 474.389L314 474.222L315 474.056L316 473.944L318 473.583L319 473.306L321 472.694L322 472.389L324 471.861L325 471.611L327 471L329 470.333L330 470L332 469.389L333 469.139L335 468.611L337 468L339 467.333L342 466.333L349 464L352 463L353 462.667L355 462L356 461.694L357 461.417L358 461.194L360 460.806L361 460.583L362 460.306L364 459.611L365 459.194L366 458.806L367 458.389L369 457.667L370 457.333L372 456.611L373 456.194L375 455.389L377 454.667L378 454.333L380 453.611L381 453.194L383 452.389L384 452.028L386 451.333L388 450.611L389 450.167L390 449.722L391 449.167L392 448.611L394 447.389L396 446.194L397 445.611L399 444.333L400 443.667L402 442.333L403 441.667L405 440.389L406 439.806L408 438.611L410 437.333L411 436.667L413 435.333L415 434L417 432.611L419 431.167L420 430.444L422 429.25L422.944 428.806L423.944 428.222L424.5 428L426 427L426.028 425.5L426.25 423.944L426.5 423L427.472 421L428.861 419L429.611 418L430.889 416L431.361 415.056L431.889 413.5L432 412L430.5 411.5L429.944 411.167L428.944 410.75L428 410.25L426 409.389L425 409.028L423 408.333L422 407.972L421 407.611L419 406.75L418 406.25L416 405.389L414 404.611L413 404.194L411 403.389L409 402.611L407 401.806L406 401.389L404 400.611L403 400.194L401 399.389L399 398.583L397 397.583L396 396.972L394 395.667L392.083 394.306L391.222 393.583L390.389 392.778L388.778 390.972L387.917 390L386 388L385 387L383 385L378 380L376 378L374 376L372.083 374L370.472 372L369.833 371L368.611 369L367.389 367L366.833 366L366.25 365L365.222 363L364.75 362L364.167 361L363.611 360L362.389 358L361.25 356L360.75 355L359.611 353L358.389 351L357.25 349L356.75 348L355.611 346L354.389 344L353.25 342L352.75 341L351.611 339L350.389 337L349.194 335L348.611 334L347.389 332L346.194 330L345.611 329L344.389 327L343.806 326L342.611 324L341.389 322L340.194 320L339.611 319L338.389 317L337.25 315L336.778 314L336.222 313L335.778 312L334.778 310L334.222 309.028L333.806 308.111L333.222 307.306L333 306.778L332 306z"
     id="path11938" />
  <path
     style="fill:#ff0000; stroke:none;"
     d="M333 307L334 308L333 307z"
     id="path11940" />
  <path
     style="fill:#e8c5b1; stroke:none;"
     d="M327 309L328 310L327 309z"
     id="path11942" />
  <path
     style="fill:#ff0000; stroke:none;"
     d="M334 309L335 310L334 309z"
     id="path11944" />
  <path
     style="fill:#dda789; stroke:none;"
     d="M326 310L327 311L326 310z"
     id="path11946" />
  <path
     style="fill:#e5bea7; stroke:none;"
     d="M323 312L324 313L323 312z"
     id="path11948" />
  <path
     style="fill:#e3b79f; stroke:none;"
     d="M320 314L321 315L320 314z"
     id="path11950" />
  <path
     style="fill:#e2b59c; stroke:none;"
     d="M173 315L174 316L173 315z"
     id="path11952" />
  <path
     style="fill:#e0b196; stroke:none;"
     d="M317 316L318 317L317 316z"
     id="path11954" />
  <path
     style="fill:#e7c1ac; stroke:none;"
     d="M315 317L316 318L315 317z"
     id="path11956" />
  <path
     style="fill:#ff7f7f; stroke:none;"
     d="M338 317L339 318L338 317z"
     id="path11958" />
  <path
     style="fill:#dda789; stroke:none;"
     d="M178 318L179 319L178 318z"
     id="path11960" />
  <path
     style="fill:#ebcbb9; stroke:none;"
     d="M313 318L314 319L313 318z"
     id="path11962" />
  <path
     style="fill:#e1b197; stroke:none;"
     d="M180 319L181 320L180 319z"
     id="path11964" />
  <path
     style="fill:#eed5c6; stroke:none;"
     d="M311 319L312 320L311 319z"
     id="path11966" />
  <path
     style="fill:#ff0000; stroke:none;"
     d="M166 320L167 321L166 320z"
     id="path11968" />
  <path
     style="fill:#e4bba4; stroke:none;"
     d="M182 320L183 321L182 320z"
     id="path11970" />
  <path
     style="fill:#e6bea8; stroke:none;"
     d="M184 321L185 322L184 321z"
     id="path11972" />
  <path
     style="fill:#ff0000; stroke:none;"
     d="M165 322L166 323L165 322z"
     id="path11974" />
  <path
     style="fill:#deac8f; stroke:none;"
     d="M186 322L187 323L186 322z"
     id="path11976" />
  <path
     style="fill:#eac9b6; stroke:none;"
     d="M305 322L306 323L305 322z"
     id="path11978" />
  <path
     style="fill:#ff0000; stroke:none;"
     d="M341 322L342 323L341 322z"
     id="path11980" />
  <path
     style="fill:#e3b79f; stroke:none;"
     d="M303 323L304 324L303 323z"
     id="path11982" />
  <path
     style="fill:#ff7f7f; stroke:none;"
     d="M164 324L165 325L164 324z"
     id="path11984" />
  <path
     style="fill:#e8c4b0; stroke:none;"
     d="M191 324L192 325L191 324z"
     id="path11986" />
  <path
     style="fill:#dca587; stroke:none;"
     d="M301 324L302 325L301 324z"
     id="path11988" />
  <path
     style="fill:#e0af94; stroke:none;"
     d="M193 325L194 326L193 325z"
     id="path11990" />
  <path
     style="fill:#e9c6b3; stroke:none;"
     d="M298 325L299 326L298 325z"
     id="path11992" />
  <path
     style="fill:#e2b49a; stroke:none;"
     d="M196 326L197 327L196 326z"
     id="path11994" />
  <path
     style="fill:#ebcbb9; stroke:none;"
     d="M295 326L296 327L295 326z"
     id="path11996" />
  <path
     style="fill:#e3b9a1; stroke:none;"
     d="M199 327L200 328L199 327z"
     id="path11998" />
  <path
     style="fill:#edd0c0; stroke:none;"
     d="M292 327L293 328L292 327z"
     id="path12000" />
  <path
     style="fill:#ff0000; stroke:none;"
     d="M344 327L345 328L344 327z"
     id="path12002" />
  <path
     style="fill:#eed4c5; stroke:none;"
     d="M289 328L290 329L289 328z"
     id="path12004" />
  <path
     style="fill:#eacbb9; stroke:none;"
     d="M205.667 329.333L206 329.667L206.333 329.667L206 329.333L205.667 329.333z"
     id="path12006" />
  <path
     style="fill:#d5936e; stroke:none;"
     d="M286.667 329.333L287 329.667L287.333 329.667L287 329.333L286.667 329.333z"
     id="path12008" />
  <path
     style="fill:#edd2c2; stroke:none;"
     d="M209.667 330.333L210 330.667L210.333 330.667L210.333 330.333L209.667 330.333z"
     id="path12010" />
  <path
     style="fill:#d89a78; stroke:none;"
     d="M282.667 330.333L283 330.667L283.333 330.667L283 330.333L282.667 330.333z"
     id="path12012" />
  <path
     style="fill:#eacbb9; stroke:none;"
     d="M213.667 331.333L214 331.667L214.333 331.667L214.333 331.333L213.667 331.333z"
     id="path12014" />
  <path
     style="fill:#e5bea7; stroke:none;"
     d="M277 331L277.722 331.722L278.25 331.75L280 332L279.278 331.278L278.75 331.25L277 331z"
     id="path12016" />
  <path
     style="fill:#e6c0aa; stroke:none;"
     d="M218.667 332.333L219 332.667L219.333 332.667L219 332.333L218.667 332.333z"
     id="path12018" />
  <path
     style="fill:#e1b399; stroke:none;"
     d="M272.667 332.333L273 332.667L273.333 332.667L273 332.333L272.667 332.333z"
     id="path12020" />
  <path
     style="fill:#ff0000; stroke:none;"
     d="M347 332L348 333L347 332z"
     id="path12022" />
  <path
     style="fill:#e0b095; stroke:none;"
     d="M223 333L223.722 333.722L224.25 333.75L226 334L225.278 333.278L224.75 333.25L223 333z"
     id="path12024" />
  <path
     style="fill:#f5e6dd; stroke:none;"
     d="M226.667 333.333L227 333.667L227.333 333.667L227 333.333L226.667 333.333z"
     id="path12026" />
  <path
     style="fill:#eacbb9; stroke:none;"
     d="M265 333L265.722 333.722L266.25 333.75L268 334L267.278 333.278L266.75 333.25L265 333z"
     id="path12028" />
  <path
     style="fill:#d38e68; stroke:none;"
     d="M268.667 333.333L269 333.667L269.333 333.667L269 333.333L268.667 333.333z"
     id="path12030" />
  <path
     style="fill:#d69773; stroke:none;"
     d="M230.667 334.333L230.667 334.667L231.333 334.667L231 334.333L230.667 334.333z"
     id="path12032" />
  <path
     style="fill:#e8c5b1; stroke:none;"
     d="M232 334L232.778 334.722L233.25 334.75L234.056 334.944L236 335L235.222 334.278L234.75 334.25L233.944 334.056L232 334z"
     id="path12034" />
  <path
     style="fill:#f6e8e0; stroke:none;"
     d="M248 334L248.778 334.722L249.306 334.75L250.111 334.944L250.972 334.972L251.944 335L254 335L253.222 334.278L252.694 334.25L251.889 334.056L251.028 334.028L250.056 334L248 334z"
     id="path12036" />
  <path
     style="fill:#e7c1ac; stroke:none;"
     d="M254 334L254.778 334.722L255.306 334.75L256.056 334.944L256.972 334.972L259 335L258.222 334.278L257.694 334.25L256.944 334.056L256.028 334.028L254 334z"
     id="path12038" />
  <path
     style="fill:#d89d7b; stroke:none;"
     d="M259.667 334.333L260 334.667L260.333 334.667L260 334.333L259.667 334.333z"
     id="path12040" />
  <path
     style="fill:#ff0000; stroke:none;"
     d="M354 344L355 345L354 344M358 351L359 352L358 351M149 352L150 353L149 352z"
     id="path12042" />
  <path
     style="fill:#ff7f7f; stroke:none;"
     d="M141 363L142 364L141 363z"
     id="path12044" />
  <path
     style="fill:#ff0000; stroke:none;"
     d="M138 367L139 368L138 367M367 367L368 368L367 367z"
     id="path12046" />
  <path
     style="fill:#ff7f7f; stroke:none;"
     d="M390 393L391 394L390 393z"
     id="path12048" />
  <path
     style="fill:#ff0000; stroke:none;"
     d="M396 397L397 398L396 397M101 406L102 407L101 406z"
     id="path12050" />
  <path
     style="fill:#ff7f7f; stroke:none;"
     d="M420 407L421 408L420 407z"
     id="path12052" />
  <path
     style="fill:#ff0000; stroke:none;"
     d="M430 411L431 412L430 411z"
     id="path12054" />
  <path
     style="fill:#ff7f7f; stroke:none;"
     d="M92 414L93 415L92 414z"
     id="path12056" />
  <path
     style="fill:#ff0000; stroke:none;"
     d="M86 419L87 420L86 419M427 420L428 421L427 420z"
     id="path12058" />
  <path
     style="fill:#ff7f7f; stroke:none;"
     d="M85 424L86 425L85 424M425 427L426 428L425 427z"
     id="path12060" />
  <path
     style="fill:#ff0000; stroke:none;"
     d="M89 429L90 430L89 429M90 430L91 431L90 430M419 430L420 431L419 430M404 440L405 441L404 440z"
     id="path12062" />
  <path
     style="fill:#ff7f7f; stroke:none;"
     d="M106 444L107 445L106 444z"
     id="path12064" />
  <path
     style="fill:#ff0000; stroke:none;"
     d="M393 447L394 448L393 447M114 449L115 450L114 449M382 452L383 453L382 452M374 455L375 456L374 455M129 459L130 460L129 459z"
     id="path12066" />
  <path
     style="fill:#ffffff; stroke:none;"
     d="M278 480L278.778 481.5L279.306 482.028L280.111 482.972L282 484.583L283 485.306L285 486.611L287 487.75L288 488.222L289 488.778L290 489.222L291 489.75L293 490.611L294 490.972L296 491.611L297 491.861L299 492.361L300 492.639L301 492.861L302 493.139L304 493.611L306 493.917L307 493.972L309 494.028L310 494.083L312 494.389L313 494.611L315 494.917L316 494.972L318 495L320 494.972L321 494.917L323 494.611L324 494.389L326 494.083L328 493.972L329 493.917L331 493.611L332 493.389L334 493L336 492.583L338 492L339 491.667L341 490.972L343 490.194L344 489.806L345 489.361L346 488.944L348 487.944L349 487.361L350 486.806L352 485.528L353 484.75L355 482.972L356.917 481L357.75 480L358.5 479L359.583 477L360.306 475L360.583 474L360.917 472L360.972 471L361 470L360.917 468L360.583 466L360.306 465L359.667 463.056L359.444 462.5L359 461L357.5 461.083L355.944 461.472L354 462.194L353 462.611L351 463.333L349 464L346 465L344 465.667L342 466.389L341 466.806L339 467.528L338 467.778L336 468.222L335 468.472L334 468.833L333 469.194L332 469.611L330 470.306L328 470.806L326 471.222L325 471.472L324 471.833L323 472.194L322 472.611L320 473.306L319 473.583L318 473.806L316 474.194L314 474.611L312 474.917L310 475.083L309 475.222L307 475.611L306 475.806L304 476.194L303 476.389L301 476.778L300 476.917L298 477.028L297 477.083L295 477.389L294 477.611L292 477.944L291 478.056L289 478.389L288 478.611L286 478.917L284 479.083L283 479.222L281.056 479.611L280.056 479.778L279.5 479.917L278 480z"
     id="path12068" />
  <path
     style="fill:#e4baa3; stroke:none;"
     d="M353 462L354 463L353 462z"
     id="path12070" />
  <path
     style="fill:#e2b59c; stroke:none;"
     d="M350 463L351 464L350 463z"
     id="path12072" />
  <path
     style="fill:#ff7f7f; stroke:none;"
     d="M138 464L139 465L138 464z"
     id="path12074" />
  <path
     style="fill:#e0af94; stroke:none;"
     d="M347 464L348 465L347 464z"
     id="path12076" />
  <path
     style="fill:#ff0000; stroke:none;"
     d="M139 465L140 466L139 465z"
     id="path12078" />
  <path
     style="fill:#deaa8d; stroke:none;"
     d="M344 465L345 466L344 465z"
     id="path12080" />
  <path
     style="fill:#d4926d; stroke:none;"
     d="M143.667 466.333L144 466.667L144.333 466.667L144 466.333L143.667 466.333z"
     id="path12082" />
  <path
     style="fill:#dba485; stroke:none;"
     d="M341 466L342 467L341 466z"
     id="path12084" />
  <path
     style="fill:#ffffff; stroke:none;"
     d="M143 467L142.194 468.5L142.028 469.056L141.667 470.056L141.417 471L141.083 473L141.028 474L141.083 476L141.417 478L142.028 480L142.389 481L143.278 483L143.833 484L144.389 485L145.694 486.972L146.417 487.917L147.222 488.778L149.028 490.361L151 491.833L152 492.556L154 493.806L155 494.361L156 494.944L158 495.944L159 496.361L160 496.806L162 497.611L163 497.972L165 498.667L166 499L168 499.583L169 499.778L170 499.917L172 500L173 500L174 500L176 500L186 500L196 500L198 500L199 500L201 499.917L202 499.778L203 499.583L205 499L207 498.333L209 497.667L211 496.972L213 496.167L214 495.722L216 494.611L217 493.972L219 492.667L221 491.306L221.972 490.583L222.917 489.778L224.611 487.972L226.111 486L226.75 485.056L227.306 484.056L227.639 483.5L228 482L222 482L220 482L219 481.972L218 481.917L216 481.611L215 481.389L213 481.083L212 481.028L210 481L208 481L207 480.972L206 480.917L204 480.611L203 480.389L201 480.083L200 480.028L198 480L196 480L195 479.972L194 479.917L192 479.611L191 479.389L190 479.222L189 479.056L188 478.944L186 478.611L185 478.389L184 478.194L182 477.806L181 477.611L180 477.389L179 477.194L177 476.806L176 476.611L175 476.389L174 476.194L172 475.806L171 475.611L170 475.389L169 475.194L167 474.806L166 474.611L164 474.139L163 473.833L162 473.556L161 473.167L159 472.389L157 471.611L155 470.806L154 470.389L153 470.028L152 469.667L150 468.972L148 468.194L147 467.833L146.056 467.472L144.5 467.083L143 467z"
     id="path12086" />
  <path
     style="fill:#e1b297; stroke:none;"
     d="M146 467L147 468L146 467z"
     id="path12088" />
  <path
     style="fill:#f1dace; stroke:none;"
     d="M338.667 467.333L338.667 467.667L339.333 467.667L339.333 467.333L338.667 467.333z"
     id="path12090" />
  <path
     style="fill:#edd1c1; stroke:none;"
     d="M148 468L149 469L148 468z"
     id="path12092" />
  <path
     style="fill:#e4baa3; stroke:none;"
     d="M151 469L152 470L151 469z"
     id="path12094" />
  <path
     style="fill:#ebcdbc; stroke:none;"
     d="M331.667 469.333L331.667 469.667L332.333 469.667L332 469.333L331.667 469.333z"
     id="path12096" />
  <path
     style="fill:#dba485; stroke:none;"
     d="M154 470L155 471L154 470z"
     id="path12098" />
  <path
     style="fill:#f1dbce; stroke:none;"
     d="M328.667 470.333L328.667 470.667L329.333 470.667L329.333 470.333L328.667 470.333z"
     id="path12100" />
  <path
     style="fill:#e8c3af; stroke:none;"
     d="M156 471L157 472L156 471z"
     id="path12102" />
  <path
     style="fill:#dfad91; stroke:none;"
     d="M159 472L160 473L159 472z"
     id="path12104" />
  <path
     style="fill:#eccdbc; stroke:none;"
     d="M321.667 472.333L321.667 472.667L322.333 472.667L322 472.333L321.667 472.333z"
     id="path12106" />
  <path
     style="fill:#ebcdbc; stroke:none;"
     d="M161 473L162 474L161 473z"
     id="path12108" />
  <path
     style="fill:#f1dbcf; stroke:none;"
     d="M318.667 473.333L318.667 473.667L319.333 473.667L319 473.333L318.667 473.333z"
     id="path12110" />
  <path
     style="fill:#e2b59c; stroke:none;"
     d="M165.667 474.333L166 474.667L166.333 474.667L166 474.333L165.667 474.333z"
     id="path12112" />
  <path
     style="fill:#e0af94; stroke:none;"
     d="M312 474L312.722 474.722L313.25 474.75L315 475L314.278 474.278L313.75 474.25L312 474z"
     id="path12114" />
  <path
     style="fill:#e2b59c; stroke:none;"
     d="M170 475L170.722 475.722L171.25 475.75L173 476L172.278 475.278L171.75 475.25L170 475z"
     id="path12116" />
  <path
     style="fill:#dfad91; stroke:none;"
     d="M305 475L305.722 475.722L306.25 475.75L308 476L307.278 475.278L306.75 475.25L305 475z"
     id="path12118" />
  <path
     style="fill:#e2b59c; stroke:none;"
     d="M175 476L175.722 476.722L176.25 476.75L178 477L177.278 476.278L176.75 476.25L175 476z"
     id="path12120" />
  <path
     style="fill:#deaa8d; stroke:none;"
     d="M298 476L298.722 476.722L299.25 476.75L301 477L300.278 476.278L299.75 476.25L298 476z"
     id="path12122" />
  <path
     style="fill:#f5e7de; stroke:none;"
     d="M301.667 476.333L301.667 476.667L302.333 476.667L302 476.333L301.667 476.333z"
     id="path12124" />
  <path
     style="fill:#e2b69d; stroke:none;"
     d="M180.667 477.333L180.667 477.667L181.333 477.667L181 477.333L180.667 477.333z"
     id="path12126" />
  <path
     style="fill:#dda789; stroke:none;"
     d="M291.667 477.333L291.667 477.667L292.333 477.667L292 477.333L291.667 477.333z"
     id="path12128" />
  <path
     style="fill:#edd0c0; stroke:none;"
     d="M293.667 477.333L293.667 477.667L294.333 477.667L294 477.333L293.667 477.333z"
     id="path12130" />
  <path
     style="fill:#e3b69e; stroke:none;"
     d="M185.667 478.333L186 478.667L186.333 478.667L186 478.333L185.667 478.333z"
     id="path12132" />
  <path
     style="fill:#dca586; stroke:none;"
     d="M284 478L284.722 478.722L285.25 478.75L287 479L286.278 478.278L285.75 478.25L284 478z"
     id="path12134" />
  <path
     style="fill:#f3e1d7; stroke:none;"
     d="M287.667 478.333L287.667 478.667L288.333 478.667L288 478.333L287.667 478.333z"
     id="path12136" />
  <path
     style="fill:#eccdbc; stroke:none;"
     d="M191 479L191.778 479.722L192.25 479.75L193.056 479.944L195 480L194.222 479.278L193.75 479.25L192.944 479.056L191 479z"
     id="path12138" />
  <path
     style="fill:#e2b69d; stroke:none;"
     d="M195 479L195.722 479.722L196.25 479.75L198 480L197.278 479.278L196.75 479.25L195 479z"
     id="path12140" />
  <path
     style="fill:#d5936f; stroke:none;"
     d="M198.667 479.333L199 479.667L199.333 479.667L199 479.333L198.667 479.333z"
     id="path12142" />
  <path
     style="fill:#eacbb9; stroke:none;"
     d="M278 479L278.778 479.722L279.25 479.75L280.056 479.944L282 480L281.222 479.278L280.75 479.25L279.944 479.056L278 479z"
     id="path12144" />
  <path
     style="fill:#ebcdbc; stroke:none;"
     d="M203 480L203.778 480.722L204.306 480.75L205.056 480.944L205.972 480.972L208 481L207.222 480.278L206.694 480.25L205.944 480.056L205.028 480.028L203 480z"
     id="path12146" />
  <path
     style="fill:#d5936e; stroke:none;"
     d="M208 480L208.778 480.722L209.25 480.75L210.056 480.944L212 481L211.222 480.278L210.75 480.25L209.944 480.056L208 480z"
     id="path12148" />
  <path
     style="fill:#ff0000; stroke:none;"
     d="M269 480L270 481L269 480z"
     id="path12150" />
  <path
     style="fill:#f4e2d9; stroke:none;"
     d="M215 481L215.778 481.722L216.306 481.75L217.111 481.944L218.028 481.972L219 482L221 482L223 482L228 482L227.222 481.278L226.694 481.25L225.889 481.056L224.972 481.028L224 481L222 481L220 481L215 481z"
     id="path12152" />
</svg>
