<svg version="1.1" xmlns="http://www.w3.org/2000/svg" xmlns:xlink="http://www.w3.org/1999/xlink" width="105.6985" height="158.96621" viewBox="0,0,105.6985,158.96621"><defs><radialGradient cx="240" cy="180" r="77.70171" gradientUnits="userSpaceOnUse" id="color-1"><stop offset="0" stop-color="#b08471"/><stop offset="1" stop-color="#99644e"/></radialGradient></defs><g transform="translate(-187.15075,-100.51689)"><g data-paper-data="{&quot;isPaintingLayer&quot;:true}" fill-rule="nonzero" stroke="none" stroke-width="0" stroke-linecap="butt" stroke-linejoin="miter" stroke-miterlimit="10" stroke-dasharray="" stroke-dashoffset="0" style="mix-blend-mode: normal"><path d="M187.15075,259.4831v-158.96621h105.6985v158.96621z" fill="#707067"/><path d="M188.83838,257.70171v-155.40343h102.32325v155.40343z" fill="url(#color-1)"/><path d="M204.08351,180c0,-19.83613 16.08036,-35.91649 35.91649,-35.91649c19.83613,0 35.91649,16.08036 35.91649,35.91649c0,19.83613 -16.08036,35.91649 -35.91649,35.91649c-19.83613,0 -35.91649,-16.08036 -35.91649,-35.91649z" fill="#a46c54"/><path d="M226.9576,206.28006l-13.23765,-39.32246l39.32246,-13.23765l13.23765,39.32246z" fill="#8b5b47"/><path d="M240,209.33847l-29.33847,-29.33847l29.33847,-29.33847l29.33847,29.33847z" fill="#8b5b47"/><path d="M255.32739,205.01633l-40.34372,-9.68893l9.68893,-40.34372l40.34372,9.68893z" fill="#8b5b47"/></g></g></svg>