<svg version="1.1" xmlns="http://www.w3.org/2000/svg" xmlns:xlink="http://www.w3.org/1999/xlink" width="105.6985" height="158.96621" viewBox="0,0,105.6985,158.96621"><g transform="translate(-187.15075,-100.5169)"><g data-paper-data="{&quot;isPaintingLayer&quot;:true}" fill-rule="nonzero" stroke="none" stroke-width="0" stroke-linecap="butt" stroke-linejoin="miter" stroke-miterlimit="10" stroke-dasharray="" stroke-dashoffset="0" style="mix-blend-mode: normal"><path d="M187.15075,259.4831v-158.96621h105.6985v158.96621z" fill="#dbdac9"/><path d="M188.83838,257.79548v-155.40343h102.32325v155.40343z" fill="#ecebd9"/><path d="M194.72541,190.81485v-71.80646h91.15817v71.80646z" fill="#af7777"/><path d="M222.98806,115.64933v-8.45326h54.80754v8.45326z" fill="#a9a99c"/><path d="M188.85,102.32659l26.84363,0.06049c0,0 0.30583,0.27274 0.45231,0.49646c2.1162,3.23219 3.29153,7.09658 3.29153,11.24837c0,11.35606 -9.20592,20.56199 -20.56199,20.56199c-3.46963,0 -6.73854,-0.85937 -9.6055,-2.37685c-0.17501,-0.09263 -0.5205,-0.28522 -0.5205,-0.28522z" fill="#7887b0"/><path d="M194.93725,200.786v-5.86316h54.80754v5.86316z" fill="#a9a99c"/><path d="M194.73006,207.72809v-3.04056h90.16244v3.04056z" fill="#a9a99c"/><path d="M194.78185,213.47812v-3.04056h90.16244v3.04056z" fill="#a9a99c"/><path d="M194.57464,219.09864v-3.04056h42.50455v3.04056z" fill="#a9a99c"/><path d="M194.65235,233.03339v-3.04056h90.16244v3.04056z" fill="#a9a99c"/><path d="M194.70415,238.78342v-3.04056h90.16244v3.04056z" fill="#a9a99c"/><path d="M194.49693,244.40396v-3.04056h68.92361v3.04056z" fill="#a9a99c"/></g></g></svg>