<svg version="1.1" xmlns="http://www.w3.org/2000/svg" xmlns:xlink="http://www.w3.org/1999/xlink" width="105.6985" height="158.96621" viewBox="0,0,105.6985,158.96621"><g transform="translate(-187.15075,-100.51689)"><g data-paper-data="{&quot;isPaintingLayer&quot;:true}" fill-rule="nonzero" stroke="none" stroke-width="0" stroke-linecap="butt" stroke-linejoin="miter" stroke-miterlimit="10" stroke-dasharray="" stroke-dashoffset="0" style="mix-blend-mode: normal"><path d="M187.15075,259.4831v-158.96621h105.6985v158.96621z" fill="#707067"/><path d="M188.83838,257.70171v-155.40343h102.32325v155.40343z" fill="#828171"/><path d="M194.72541,175.68298v-55.59375h91.15817v55.59375z" fill="#749d9d"/><path d="M215.20596,115.8655v-8.45326h54.80754v8.45326z" fill="#a9a99c"/><path d="M195.15342,191.4907v-6.72784h55.13792v6.72784z" fill="#a9a99c"/><path d="M194.73006,207.72809v-3.04056h90.16244v3.04056z" fill="#a9a99c"/><path d="M194.78185,213.47812v-3.04056h90.16244v3.04056z" fill="#a9a99c"/><path d="M194.57464,219.09864v-3.04056h55.90706v3.04056z" fill="#a9a99c"/><path d="M194.65235,247.51674v-3.04056h90.16244v3.04056z" fill="#a9a99c"/><path d="M194.49693,253.05074v-3.04056h68.92361v3.04056z" fill="#a9a99c"/><path d="M265.92321,188.39079c0,-5.49181 4.45199,-9.9438 9.9438,-9.9438c5.49181,0 9.9438,4.45199 9.9438,9.9438c0,5.49181 -4.45199,9.9438 -9.9438,9.9438c-5.49181,0 -9.9438,-4.45199 -9.9438,-9.9438z" fill="#6fb091"/></g></g></svg>