<svg version="1.1" xmlns="http://www.w3.org/2000/svg" xmlns:xlink="http://www.w3.org/1999/xlink" width="105.6985" height="158.96621" viewBox="0,0,105.6985,158.96621"><defs><radialGradient cx="240" cy="180.00001" r="77.70171" gradientUnits="userSpaceOnUse" id="color-1"><stop offset="0" stop-color="#f0e7dd"/><stop offset="1" stop-color="#e3d6b2"/></radialGradient></defs><g transform="translate(-187.15075,-100.51689)"><g data-paper-data="{&quot;isPaintingLayer&quot;:true}" fill-rule="nonzero" stroke="none" stroke-linecap="butt" stroke-linejoin="miter" stroke-miterlimit="10" stroke-dasharray="" stroke-dashoffset="0" style="mix-blend-mode: normal"><path d="M187.15075,259.48311v-158.96621h105.6985v158.96621z" fill="#cbcbcb" stroke-width="0"/><path d="M188.83838,257.70171v-155.40343h102.32325v155.40343z" fill="url(#color-1)" stroke-width="0"/><text transform="translate(193.90773,122.99002) scale(0.5,0.5)" font-size="40" xml:space="preserve" fill="#000000" fill-rule="nonzero" stroke="none" stroke-width="1" stroke-linecap="butt" stroke-linejoin="miter" stroke-miterlimit="10" stroke-dasharray="" stroke-dashoffset="0" font-family="Sans Serif" font-weight="normal" text-anchor="start" style="mix-blend-mode: normal"><tspan x="0" dy="0">A</tspan></text><text transform="translate(286.18363,236.66269) rotate(-180) scale(0.5,0.5)" font-size="40" xml:space="preserve" fill="#000000" fill-rule="nonzero" stroke="none" stroke-width="1" stroke-linecap="butt" stroke-linejoin="miter" stroke-miterlimit="10" stroke-dasharray="" stroke-dashoffset="0" font-family="Sans Serif" font-weight="normal" text-anchor="start" style="mix-blend-mode: normal"><tspan x="0" dy="0">A</tspan></text><g fill="#000000" stroke-width="0"><path d="M217.46799,178.74923c0.76255,-14.73419 22.55633,-29.09974 22.55633,-29.09974c0,0 22.01164,16.01322 22.55632,29.2187c0.3689,8.94376 -1.93562,17.30913 -8.34474,17.39683c-3.42276,0.04683 -8.41312,-5.07067 -14.23661,-5.09171c-5.76666,-0.02083 -12.3769,5.05486 -13.71512,5.09111c-4.21421,0.11416 -9.65457,-1.31558 -8.81618,-17.5152z"/><path d="M235.74926,210.58844c0,0 1.1983,-15.5261 1.1983,-20.1485c0,-2.9257 -1.1983,-4.90596 -1.1983,-4.90596h8.5501c0,0 -1.5251,2.86661 -1.5251,5.26286c0,4.51785 1.5251,19.79161 1.5251,19.79161c0,0 -2.68149,-0.9517 -4.17233,-0.9517c-1.34392,0 -4.37777,0.9517 -4.37777,0.9517z"/></g><g fill="#000000" stroke-width="0"><path d="M286.66138,224.34045c-0.23515,4.54355 -6.95564,8.97342 -6.95564,8.97342c0,0 -6.78768,-4.93796 -6.95564,-9.0101c-0.11376,-2.75797 0.59688,-5.33757 2.57325,-5.36462c1.05547,-0.01444 2.59433,1.56363 4.39011,1.57012c1.77825,0.00642 3.81664,-1.55876 4.2293,-1.56993c1.29953,-0.0352 2.97716,0.40568 2.71862,5.40112z"/><path d="M281.02403,214.52227c0,0 -0.36952,4.78774 -0.36952,6.21314c0,0.90219 0.36952,1.51284 0.36952,1.51284h-2.63657c0,0 0.47029,-0.88397 0.47029,-1.62289c0,-1.39316 -0.47029,-6.10309 -0.47029,-6.10309c0,0 0.82688,0.29347 1.28661,0.29347c0.41442,0 1.34996,-0.29347 1.34996,-0.29347z"/></g><g fill="#000000" stroke-width="0"><path d="M193.40722,135.58777c0.23514,-4.54354 6.95564,-8.97342 6.95564,-8.97342c0,0 6.78768,4.93796 6.95564,9.0101c0.11376,2.75796 -0.59688,5.33757 -2.57325,5.36462c-1.05547,0.01444 -2.59434,-1.56363 -4.39011,-1.57012c-1.77825,-0.00642 -3.81664,1.55875 -4.2293,1.56994c-1.29952,0.0352 -2.97716,-0.40569 -2.71863,-5.40112z"/><path d="M199.04457,145.40595c0,0 0.36951,-4.78774 0.36952,-6.21314c0,-0.9022 -0.36951,-1.51285 -0.36951,-1.51285l2.63657,0c0,0 -0.47029,0.88397 -0.47029,1.6229c0,1.39316 0.4703,6.10309 0.4703,6.10309c0,0 -0.82689,-0.29347 -1.28662,-0.29347c-0.41442,0 -1.34996,0.29347 -1.34996,0.29347z"/></g></g></g></svg>