<svg version="1.1" xmlns="http://www.w3.org/2000/svg" xmlns:xlink="http://www.w3.org/1999/xlink" width="101.52654" height="100.13135" viewBox="0,0,101.52654,100.13135"><defs><radialGradient cx="239.95779" cy="179.37947" r="47.9798" gradientUnits="userSpaceOnUse" id="color-1"><stop offset="0" stop-color="#c28f67"/><stop offset="1" stop-color="#b08360"/></radialGradient><radialGradient cx="240" cy="180.90196" r="47.9798" gradientUnits="userSpaceOnUse" id="color-2"><stop offset="0" stop-color="#c28f67"/><stop offset="1" stop-color="#b08360"/></radialGradient></defs><g transform="translate(-189.26099,-130.17855)"><g data-paper-data="{&quot;isPaintingLayer&quot;:true}" fill-rule="nonzero" stroke="none" stroke-width="0" stroke-linecap="butt" stroke-linejoin="miter" stroke-miterlimit="10" stroke-dasharray="" stroke-dashoffset="0" style="mix-blend-mode: normal"><path d="M189.27324,178.46778l36.97878,0.80263l-0.26109,15.23313l27.38568,0.14073l0.0138,-29.24648l37.27779,12.55017c0,0 0.02618,1.09474 0.02618,1.64525c0,28.01006 -22.70664,50.71669 -50.71669,50.71669c-28.01006,0 -50.71669,-22.70664 -50.71669,-50.71669c0,-0.37611 0.01224,-1.12544 0.01224,-1.12544z" data-paper-data="{&quot;index&quot;:null}" fill="#9d7353"/><path d="M189.35416,180.89525c0,-28.01005 22.70663,-50.71669 50.71669,-50.71669c28.01005,0 50.71669,22.70663 50.71669,50.71669c0,0.55051 -0.02618,1.64526 -0.02618,1.64526l-37.27778,-0.58388l-0.19497,-15.93127l-26.57046,0.05016l-0.10122,28.63892l-37.25052,-12.69375c0,0 -0.01224,-0.74932 -0.01224,-1.12544z" data-paper-data="{&quot;index&quot;:null}" fill="#9d7353"/><path d="M191.98957,178.31477l31.90784,-0.18329l-0.07562,18.86704l32.4109,0.04746l-0.07263,-18.84198l31.75276,-0.38099c0,0 0.02477,1.03567 0.02477,1.55647c0,26.49852 -21.48129,47.9798 -47.9798,47.9798c-26.49852,0 -47.9798,-21.48129 -47.9798,-47.9798c0,-0.35582 0.01158,-1.06471 0.01158,-1.06471z" data-paper-data="{&quot;index&quot;:null}" fill="url(#color-1)"/><path d="M192.0202,180.90196c0,-26.49851 21.48128,-47.9798 47.9798,-47.9798c26.49851,0 47.9798,21.48128 47.9798,47.9798c0,0.5208 -0.02477,1.55647 -0.02477,1.55647l-31.75276,-0.38099l0.07263,-18.84198l-32.4109,0.04745l0.07562,18.86705l-31.90784,-0.1833c0,0 -0.01158,-0.70889 -0.01158,-1.06471z" data-paper-data="{&quot;index&quot;:null}" fill="url(#color-2)"/><path d="M238.30887,159.23131v-22.66776h3.27332v22.66776z" fill="#9d7353"/><path d="M238.41781,223.84967v-22.66776h3.27333v22.66776z" fill="#9d7353"/><path d="M219.26832,182.37338h-22.66776v-3.27332h22.66776z" fill="#9d7353"/><path d="M283.88668,182.26445h-22.66776v-3.27332h22.66776z" fill="#9d7353"/><path d="M219.25548,162.04224l-11.44808,-11.44808l2.31459,-2.31459l11.44808,11.44808z" fill="#9d7353"/><path d="M269.53347,212.16617l-11.37651,-11.37651l2.31459,-2.31459l11.37651,11.37651z" fill="#9d7353"/><path d="M222.58511,200.4582l-11.94906,11.94906l-2.31459,-2.31459l11.94906,-11.94906z" fill="#9d7353"/><path d="M272.20806,150.53806l-10.87552,10.87552l-2.31459,-2.31459l10.87552,-10.87552z" fill="#9d7353"/></g></g></svg>