<svg version="1.1" xmlns="http://www.w3.org/2000/svg" xmlns:xlink="http://www.w3.org/1999/xlink" width="101.90138" height="101.90138" viewBox="0,0,101.90138,101.90138"><defs><radialGradient cx="240.00001" cy="180.00001" r="47.9798" gradientUnits="userSpaceOnUse" id="color-1"><stop offset="0" stop-color="#e2e2e2"/><stop offset="1" stop-color="#cbcbcb"/></radialGradient></defs><g transform="translate(-189.04932,-129.04933)"><g data-paper-data="{&quot;isPaintingLayer&quot;:true}" fill-rule="nonzero" stroke="none" stroke-width="0" stroke-linecap="butt" stroke-linejoin="miter" stroke-miterlimit="10" stroke-dasharray="" stroke-dashoffset="0" style="mix-blend-mode: normal"><path d="M189.04933,180.00002c0,-28.13928 22.81139,-50.95069 50.95069,-50.95069c28.13928,0 50.95069,22.81139 50.95069,50.95069c0,28.13928 -22.81139,50.95069 -50.95069,50.95069c-28.13928,0 -50.95069,-22.81139 -50.95069,-50.95069z" fill="#bcbcb6"/><path d="M192.02021,180.00001c0,-26.49851 21.48128,-47.9798 47.9798,-47.9798c26.49851,0 47.9798,21.48128 47.9798,47.9798c0,26.49851 -21.48128,47.9798 -47.9798,47.9798c-26.49851,0 -47.9798,-21.48128 -47.9798,-47.9798z" fill="url(#color-1)"/><path d="M244.60786,157.84904c3.03223,-3.03223 7.36713,-3.50148 7.36713,-3.50148c0,0 -0.52528,4.39092 -3.55751,7.42315c-3.03223,3.03223 -7.42315,3.55751 -7.42315,3.55751c0,0 0.5813,-4.44696 3.61353,-7.47919z" fill="#bcbcb6"/><path d="M244.60785,166.21083c3.03223,-3.03223 7.36713,-3.50149 7.36713,-3.50149c0,0 -0.52528,4.39092 -3.55751,7.42315c-3.03223,3.03223 -7.42316,3.55752 -7.42316,3.55752c0,0 0.58131,-4.44695 3.61354,-7.47918z" fill="#bcbcb6"/><path d="M243.70716,175.91298c2.41962,-2.41962 5.87875,-2.79409 5.87875,-2.79409c0,0 -0.41917,3.50383 -2.83879,5.92345c-2.41962,2.41962 -5.92345,2.83879 -5.92345,2.83879c0,0 0.46387,-3.54853 2.88349,-5.96815z" fill="#bcbcb6"/><path d="M243.99726,139.27475c2.41962,-2.41962 5.87875,-2.79408 5.87875,-2.79408c0,0 -0.41916,3.50382 -2.83879,5.92345c-2.41962,2.41962 -5.92345,2.83879 -5.92345,2.83879c0,0 0.46386,-3.54853 2.88349,-5.96815z" fill="#bcbcb6"/><path d="M240.0296,165.15758c0,0 -4.39093,-0.52528 -7.42316,-3.55751c-3.03223,-3.03223 -3.55751,-7.42316 -3.55751,-7.42316c0,0 4.33491,0.46926 7.36714,3.50149c3.03223,3.03223 3.61353,7.47919 3.61353,7.47919z" fill="#bcbcb6"/><path d="M240.0296,173.51936c0,0 -4.39093,-0.52528 -7.42316,-3.55751c-3.03223,-3.03223 -3.55751,-7.42315 -3.55751,-7.42315c0,0 4.33491,0.46926 7.36714,3.50149c3.03223,3.03223 3.61353,7.47918 3.61353,7.47918z" fill="#bcbcb6"/><path d="M240.20025,181.71048c0,0 -3.50383,-0.41916 -5.92345,-2.83879c-2.41962,-2.41962 -2.83879,-5.92345 -2.83879,-5.92345c0,0 3.45913,0.37446 5.87875,2.79408c2.41962,2.41962 2.88349,5.96815 2.88349,5.96815z" fill="#bcbcb6"/><path d="M239.91015,145.07226c0,0 -3.50383,-0.41917 -5.92345,-2.83879c-2.41962,-2.41962 -2.83879,-5.92345 -2.83879,-5.92345c0,0 3.45913,0.37446 5.87875,2.79409c2.41962,2.41962 2.88349,5.96815 2.88349,5.96815z" fill="#bcbcb6"/><g fill="#bcbcb6"><g><path d="M272.15206,172.24112c4.28822,0 7.68527,2.73343 7.68527,2.73343c0,0 -3.47629,2.73342 -7.76451,2.73342c-4.28822,0 -7.7645,-2.73342 -7.7645,-2.73342c0,0 3.55552,-2.73343 7.84374,-2.73343z"/><path d="M266.23938,178.15379c4.28822,0 7.68528,2.73342 7.68528,2.73342c0,0 -3.47628,2.73342 -7.7645,2.73342c-4.28822,0 -7.7645,-2.73342 -7.7645,-2.73342c0,0 3.55551,-2.73342 7.84373,-2.73342z"/><path d="M258.74204,184.37737c3.42187,0 6.13262,2.18118 6.13262,2.18118c0,0 -2.77397,2.18118 -6.19583,2.18118c-3.42186,0 -6.19584,-2.18118 -6.19584,-2.18118c0,0 2.83719,-2.18118 6.25905,-2.18118z"/><path d="M277.37298,166.15669c3.42187,0 6.13262,2.18119 6.13262,2.18119c0,0 -2.77397,2.18118 -6.19583,2.18118c-3.42187,0 -6.19584,-2.18118 -6.19584,-2.18118c0,0 2.83719,-2.18119 6.25906,-2.18119z"/></g><g data-paper-data="{&quot;index&quot;:null}"><path d="M263.62616,174.29239c0,0 -2.73342,-3.47628 -2.73342,-7.7645c0,-4.28822 2.73342,-7.76451 2.73342,-7.76451c0,0 2.73343,3.39706 2.73343,7.68528c0,4.28822 -2.73343,7.84373 -2.73343,7.84373z"/><path d="M257.71349,180.20506c0,0 -2.73342,-3.47629 -2.73342,-7.76451c0,-4.28822 2.73342,-7.76451 2.73342,-7.76451c0,0 2.73342,3.39706 2.73342,7.68528c0,4.28822 -2.73342,7.84374 -2.73342,7.84374z"/><path d="M252.04216,186.11772c0,0 -2.18118,-2.77397 -2.18118,-6.19583c0,-3.42186 2.18118,-6.19584 2.18118,-6.19584c0,0 2.18119,2.71076 2.18119,6.13262c0,3.42186 -2.18119,6.25905 -2.18119,6.25905z"/><path d="M270.26283,167.48679c0,0 -2.18118,-2.77398 -2.18118,-6.19585c0,-3.42186 2.18118,-6.19583 2.18118,-6.19583c0,0 2.18119,2.71076 2.18119,6.13262c0,3.42186 -2.18119,6.25906 -2.18119,6.25906z"/></g></g><g fill="#bcbcb6"><g><path d="M214.42542,167.23363c0,-4.28822 2.73343,-7.68527 2.73343,-7.68527c0,0 2.73342,3.47629 2.73342,7.76451c0,4.28822 -2.73342,7.7645 -2.73342,7.7645c0,0 -2.73343,-3.55552 -2.73343,-7.84374z"/><path d="M220.33809,173.14631c0,-4.28822 2.73343,-7.68528 2.73343,-7.68528c0,0 2.73342,3.47628 2.73342,7.7645c0,4.28822 -2.73342,7.76451 -2.73342,7.76451c0,0 -2.73343,-3.55551 -2.73343,-7.84373z"/><path d="M226.56167,180.64365c0,-3.42186 2.18118,-6.13262 2.18118,-6.13262c0,0 2.18118,2.77398 2.18118,6.19584c0,3.42186 -2.18118,6.19584 -2.18118,6.19584c0,0 -2.18118,-2.83719 -2.18118,-6.25906z"/><path d="M208.34099,162.01271c0,-3.42186 2.18119,-6.13262 2.18119,-6.13262c0,0 2.18118,2.77397 2.18118,6.19584c0,3.42186 -2.18118,6.19584 -2.18118,6.19584c0,0 -2.18119,-2.8372 -2.18119,-6.25906z"/></g><g data-paper-data="{&quot;index&quot;:null}"><path d="M216.47669,175.75953c0,0 -3.47629,2.73342 -7.76451,2.73342c-4.28822,0 -7.7645,-2.73342 -7.7645,-2.73342c0,0 3.39705,-2.73343 7.68527,-2.73343c4.28822,0 7.84374,2.73343 7.84374,2.73343z"/><path d="M222.38936,181.6722c0,0 -3.47628,2.73342 -7.7645,2.73342c-4.28822,0 -7.76451,-2.73342 -7.76451,-2.73342c0,0 3.39706,-2.73343 7.68528,-2.73343c4.28822,0 7.84373,2.73343 7.84373,2.73343z"/><path d="M228.30203,187.34353c0,0 -2.77398,2.18118 -6.19584,2.18118c-3.42186,0 -6.19584,-2.18118 -6.19584,-2.18118c0,0 2.71076,-2.18119 6.13262,-2.18119c3.42186,0 6.25906,2.18119 6.25906,2.18119z"/><path d="M209.67109,169.12286c0,0 -2.77398,2.18118 -6.19584,2.18118c-3.42186,0 -6.19583,-2.18118 -6.19583,-2.18118c0,0 2.71076,-2.18119 6.13262,-2.18119c3.42186,0 6.25906,2.18119 6.25906,2.18119z"/></g></g><path d="M244.14711,148.17327c3.03223,-3.03223 7.36713,-3.50148 7.36713,-3.50148c0,0 -0.52529,4.39092 -3.55752,7.42315c-3.03223,3.03223 -7.42315,3.55751 -7.42315,3.55751c0,0 0.58131,-4.44696 3.61354,-7.47919z" fill="#bcbcb6"/><path d="M239.56885,155.48181c0,0 -4.39093,-0.52528 -7.42316,-3.55751c-3.03223,-3.03223 -3.55751,-7.42316 -3.55751,-7.42316c0,0 4.3349,0.46926 7.36713,3.50149c3.03223,3.03223 3.61354,7.47919 3.61354,7.47919z" fill="#bcbcb6"/><path d="M237.93953,217.14376l1.82927,-71.68526h1.53583l1.46341,72.29502z" fill="#bcbcb6"/><path d="M241.104,200.57637l-31.97667,-31.97667l1.086,-1.086l31.97667,31.97667z" fill="#bcbcb6"/><path d="M238.51757,198.88062l31.97668,-31.97667l1.086,1.086l-31.97668,31.97668z" data-paper-data="{&quot;index&quot;:null}" fill="#bcbcb6"/><g fill="#bcbcb6"><g><path d="M221.64121,151.13284c0.63117,-2.10099 2.47041,-3.36303 2.47041,-3.36303c0,0 0.82756,2.10552 0.19638,4.2065c-0.63117,2.10099 -2.48207,3.40185 -2.48207,3.40185c0,0 -0.8159,-2.14433 -0.18472,-4.24532z"/><path d="M223.66782,154.9c0.63117,-2.10099 2.47041,-3.36303 2.47041,-3.36303c0,0 0.82756,2.10551 0.19638,4.2065c-0.63117,2.10099 -2.48207,3.40185 -2.48207,3.40185c0,0 -0.8159,-2.14433 -0.18472,-4.24532z"/><path d="M225.6135,159.48931c0.50366,-1.67652 1.97131,-2.6836 1.97131,-2.6836c0,0 0.66036,1.68014 0.15671,3.35666c-0.50366,1.67652 -1.98061,2.71457 -1.98061,2.71457c0,0 -0.65106,-1.71111 -0.1474,-3.38763z"/><path d="M219.42863,147.67933c0.50366,-1.67652 1.97131,-2.6836 1.97131,-2.6836c0,0 0.66036,1.68013 0.15671,3.35666c-0.50366,1.67652 -1.98061,2.71458 -1.98061,2.71458c0,0 -0.65106,-1.71111 -0.1474,-3.38764z"/></g><g data-paper-data="{&quot;index&quot;:null}"><path d="M221.39131,155.61198c0,0 -2.10551,0.82756 -4.2065,0.19638c-2.10099,-0.63117 -3.40185,-2.48206 -3.40185,-2.48206c0,0 2.06669,-0.83922 4.16768,-0.20805c2.10099,0.63117 3.44067,2.49373 3.44067,2.49373z"/><path d="M223.41791,159.37913c0,0 -2.10551,0.82756 -4.2065,0.19638c-2.10099,-0.63117 -3.40185,-2.48206 -3.40185,-2.48206c0,0 2.06669,-0.83922 4.16768,-0.20805c2.10099,0.63117 3.44067,2.49373 3.44067,2.49373z"/><path d="M225.48004,163.02804c0,0 -1.68014,0.66036 -3.35666,0.15671c-1.67652,-0.50366 -2.71457,-1.98061 -2.71457,-1.98061c0,0 1.64916,-0.66967 3.32569,-0.16601c1.67652,0.50366 2.74555,1.98992 2.74555,1.98992z"/><path d="M219.03378,151.35868c0,0 -1.68014,0.66036 -3.35666,0.15671c-1.67652,-0.50366 -2.71457,-1.98061 -2.71457,-1.98061c0,0 1.64916,-0.66967 3.32569,-0.16601c1.67652,0.50366 2.74555,1.98992 2.74555,1.98992z"/></g></g><g data-paper-data="{&quot;index&quot;:null}" fill="#bcbcb6"><g><path d="M258.45775,155.01231c0,0 -1.85089,-1.30086 -2.48206,-3.40185c-0.63118,-2.10099 0.19638,-4.2065 0.19638,-4.2065c0,0 1.83923,1.26204 2.47041,3.36303c0.63117,2.10099 -0.18473,4.24532 -0.18473,4.24532z"/><path d="M256.43114,158.77946c0,0 -1.85089,-1.30086 -2.48207,-3.40185c-0.63118,-2.10099 0.19639,-4.2065 0.19639,-4.2065c0,0 1.83923,1.26204 2.4704,3.36303c0.63117,2.10099 -0.18473,4.24532 -0.18473,4.24532z"/><path d="M254.52278,162.51109c0,0 -1.47695,-1.03805 -1.98061,-2.71457c-0.50366,-1.67652 0.1567,-3.35666 0.1567,-3.35666c0,0 1.46765,1.00707 1.97131,2.6836c0.50365,1.67652 -0.1474,3.38764 -0.1474,3.38764z"/><path d="M260.70764,150.70111c0,0 -1.47695,-1.03805 -1.98061,-2.71457c-0.50366,-1.67652 0.1567,-3.35666 0.1567,-3.35666c0,0 1.46765,1.00707 1.97131,2.6836c0.50365,1.67652 -0.14741,3.38764 -0.14741,3.38764z"/></g><g data-paper-data="{&quot;index&quot;:null}"><path d="M262.33304,152.7524c2.10099,-0.63118 4.16769,0.20805 4.16769,0.20805c0,0 -1.30086,1.85088 -3.40185,2.48206c-2.10099,0.63118 -4.2065,-0.19638 -4.2065,-0.19638c0,0 1.33967,-1.86256 3.44066,-2.49373z"/><path d="M260.30643,156.51955c2.10099,-0.63118 4.16768,0.20804 4.16768,0.20804c0,0 -1.30085,1.85089 -3.40184,2.48207c-2.10099,0.63118 -4.2065,-0.19638 -4.2065,-0.19638c0,0 1.33968,-1.86255 3.44067,-2.49373z"/><path d="M257.54918,160.67227c1.67652,-0.50366 3.32568,0.16602 3.32568,0.16602c0,0 -1.03804,1.47696 -2.71457,1.98062c-1.67653,0.50366 -3.35666,-0.15671 -3.35666,-0.15671c0,0 1.06902,-1.48627 2.74554,-1.98992z"/><path d="M263.99545,149.00291c1.67652,-0.50366 3.32569,0.16601 3.32569,0.16601c0,0 -1.03805,1.47696 -2.71457,1.98061c-1.67653,0.50366 -3.35666,-0.15671 -3.35666,-0.15671c0,0 1.06902,-1.48626 2.74554,-1.98992z"/></g></g><path d="M208.30849,195.84581l-4.62518,-3.02515l-5.69683,1.56119l3.78466,-4.41216l-2.32585,-5.87359l4.45683,4.21218l5.86519,-2.74823l-4.14736,5.11344z" fill="#bcbcb6"/><path d="M222.95391,202.29235l-7.26536,1.42157l-4.00595,6.82346l-0.49377,-7.77102l-7.72229,-3.46069l8.21355,-0.12538l3.05777,-8.11966l0.8014,8.78289z" fill="#bcbcb6"/><path d="M275.72982,188.05221l-1.2484,7.29711l4.95846,6.16611l-7.44073,-2.29524l-5.97519,5.99227l2.79666,-7.72378l-6.50672,-5.73945l8.49592,2.3666z" fill="#bcbcb6"/><path d="M250.77279,195.69921l5.75075,4.6621l7.80439,-1.30336l-5.64515,5.36329l2.29821,8.14423l-5.36451,-6.22095l-8.19064,2.86219l6.22413,-6.24833z" fill="#bcbcb6"/><path d="M215.34544,214.45039l6.87199,-5.18748l0.7123,-9.17491l4.47502,7.87333l9.8369,-0.31569l-8.52368,4.3153l0.93937,10.04709l-5.31214,-8.77456z" fill="#bcbcb6"/></g></g></svg>