<svg version="1.1" xmlns="http://www.w3.org/2000/svg" xmlns:xlink="http://www.w3.org/1999/xlink" width="101.90138" height="112.32264" viewBox="0,0,101.90138,112.32264"><defs><radialGradient cx="240" cy="180" r="47.9798" gradientUnits="userSpaceOnUse" id="color-1"><stop offset="0" stop-color="#dbca0d"/><stop offset="1" stop-color="#d7c60d"/></radialGradient></defs><g transform="translate(-189.04931,-118.62805)"><g data-paper-data="{&quot;isPaintingLayer&quot;:true}" fill-rule="nonzero" stroke="none" stroke-linecap="butt" stroke-linejoin="miter" stroke-miterlimit="10" stroke-dasharray="" stroke-dashoffset="0" style="mix-blend-mode: normal"><path d="M189.04931,180c0,-28.13928 22.81139,-50.95069 50.95069,-50.95069c28.13928,0 50.95069,22.81139 50.95069,50.95069c0,28.13928 -22.81139,50.95069 -50.95069,50.95069c-28.13928,0 -50.95069,-22.81139 -50.95069,-50.95069z" fill="#c7b80b" stroke-width="0"/><path d="M192.0202,180c0,-26.49851 21.48128,-47.9798 47.9798,-47.9798c26.49851,0 47.9798,21.48128 47.9798,47.9798c0,26.49851 -21.48128,47.9798 -47.9798,47.9798c-26.49851,0 -47.9798,-21.48128 -47.9798,-47.9798z" fill="url(#color-1)" stroke-width="0"/><path d="M255.58577,145.04126c13.53425,0 13.38942,11.97379 13.76155,21.92815c0.08687,2.32376 -3.2685,7.60434 -0.80602,14.36634c0.8615,2.36569 6.61226,3.76252 9.73026,12.73435c0.95476,2.74725 4.06461,11.73952 4.06461,11.73952c0,0 -13.80665,16.15187 -23.12216,20.09525c-14.61136,6.18518 -31.04648,1.30355 -31.04648,1.30355c0,0 2.21703,-32.18485 6.76227,-39.46588c2.84057,-4.55032 11.88981,-5.41246 12.00099,-6.64043c0.38737,-4.27864 -5.66028,-9.87275 -6.30039,-14.69447c-0.56413,-4.24945 1.42112,-21.36635 14.95537,-21.36635z" data-paper-data="{&quot;index&quot;:null}" fill="#c7b80b" stroke-width="0"/><text transform="translate(205.22992,201.31915) scale(1.87721,1.87721)" font-size="40" xml:space="preserve" fill="#c7b80b" fill-rule="nonzero" stroke="none" stroke-width="1" stroke-linecap="butt" stroke-linejoin="miter" stroke-miterlimit="10" stroke-dasharray="" stroke-dashoffset="0" font-family="Sans Serif" font-weight="normal" text-anchor="start" style="mix-blend-mode: normal"><tspan x="0" dy="0">8</tspan></text><path d="M235.30358,147.69413l-0.84212,-5.46211l-4.96943,-3.19312l5.81142,-0.13486l2.8134,-5.65627l-0.15323,6.13044l5.96478,2.52479l-6.57544,0.33393z" fill="#c7b80b" stroke-width="0"/><path d="M227.87788,136.60781l-0.87967,3.94024l2.53187,3.49412l-3.98981,-1.45377l-3.41842,3.10017l1.73462,-4.13024l-3.38682,-3.30411l4.56257,1.52152z" fill="#c7b80b" stroke-width="0"/><path d="M250.40388,135.1311l-0.95529,4.80103l3.16752,4.16414l-4.8773,-1.6498l-4.05637,3.85425l1.98629,-5.05544l-4.19851,-3.90973l5.57349,1.71579z" fill="#c7b80b" stroke-width="0"/><path d="M217.36188,140.41432l0.17664,3.30835l2.77386,2.20099l-3.47454,-0.26606l-2.01544,3.2062l0.45693,-3.64766l-3.40744,-1.86168l3.94215,0.19287z" fill="#c7b80b" stroke-width="0"/></g></g></svg>