<svg version="1.1" xmlns="http://www.w3.org/2000/svg" xmlns:xlink="http://www.w3.org/1999/xlink" width="150.90801" height="144.20341" viewBox="0,0,150.90801,144.20341"><g transform="translate(-169.22993,-107.89829)"><g data-paper-data="{&quot;isPaintingLayer&quot;:true}" fill-rule="nonzero" stroke="none" stroke-width="0" stroke-linecap="butt" stroke-linejoin="miter" stroke-miterlimit="10" stroke-dasharray="" stroke-dashoffset="0" style="mix-blend-mode: normal"><path d="M317.98045,207.28767l-44.62975,44.81403l-89.34361,-24.58189l-12.87738,-55.37075l39.6704,-64.25077l103.19361,37.42938z" data-paper-data="{&quot;index&quot;:null}" fill="#bbbbbb"/><path d="M303.8803,229.75799l-108.58366,16.10795l-26.06671,-70.86903l23.65642,-51.69256l92.45063,-6.27906l34.80096,52.81105z" fill="#c9c9c9"/><path d="M303.80388,162.71666l-12.08136,48.78189l-70.92225,19.78623l-31.41541,-32.45868l0.75458,-59.99631l85.61183,-16.69659z" data-paper-data="{&quot;index&quot;:null}" fill="#e1d8c8"/><path d="M284.28508,211.03891l-74.53378,8.12221l-15.91634,-49.05711l17.51225,-34.65436l63.2632,-1.84064l22.35503,36.96351z" data-paper-data="{&quot;index&quot;:null}" fill="#9374b1"/><path d="M255.872,192.43974l11.70735,6.15206l-18.20682,16.20354l-27.20121,2.79997l13.53499,-13.08031z" fill="#bba2d4"/><path d="M244.4891,167.52202l-12.41983,12.23403l-23.4758,-7.92536l-1.66164,-23.22932l17.74778,6.26949z" fill="#bba2d4"/><path d="M284.27772,211.18241l-35.94282,3.79301l14.0264,-24.48436l34.9465,-20.10379z" fill="#af8bd3"/><path d="M209.76446,172.80849l-7.56303,22.89748l-8.37176,-25.58325l16.92077,-33.40246z" fill="#af8bd3"/><path d="M276.50877,155.49926l7.18849,22.41911l-36.29891,-6.55253l-34.07865,-20.74351l27.26753,-3.25891z" fill="#af8bd3"/><path d="M209.95789,218.87317l-9.86951,-30.26702l9.90379,-16.12883l27.44102,25.73553z" fill="#9f7fc0"/><path d="M256.19081,192.39378l-16.76628,9.92973l-30.17658,-30.35651l23.73551,7.95004z" fill="#b698d4"/><path d="M282.37993,167.62434l-18.64236,8.64206l-21.91414,-4.84852l17.79071,-3.98515z" fill="#b698d4"/><path d="M274.433,133.60611l-18.2872,9.37021l-22.08823,-3.98102l-19.37481,-3.55369z" fill="#b698d4"/><path d="M274.74468,133.22081l22.2798,37.5611l-13.17306,7.152l-7.25765,-22.02167z" fill="#b698d4"/></g></g></svg>