<svg version="1.1" xmlns="http://www.w3.org/2000/svg" xmlns:xlink="http://www.w3.org/1999/xlink" width="721.46064" height="590.77538" viewBox="0,0,721.46064,590.77538"><g transform="translate(107.0423,102.78554)"><g data-paper-data="{&quot;isPaintingLayer&quot;:true}" fill-rule="nonzero" stroke="none" stroke-width="0" stroke-linecap="butt" stroke-linejoin="miter" stroke-miterlimit="10" stroke-dasharray="" stroke-dashoffset="0" style="mix-blend-mode: normal"><path d="M-77.20779,383.89611v-407.79221h634.41558v407.79221z" fill="#397d3e"/><g fill="#306834"><g><path d="M58.25367,99.72192c-7.96157,-18.2682 -0.26399,-39.24506 -0.26399,-39.24506c0,0 20.60586,8.64177 28.56743,26.90998c7.96157,18.2682 0.26398,39.24505 0.26398,39.24505c0,0 -20.60585,-8.64177 -28.56742,-26.90997z"/><path d="M133.52492,101.32476c-19.9205,0.53663 -36.48496,-14.46003 -36.48496,-14.46003c0,0 15.73304,-15.86672 35.65354,-16.40335c19.92049,-0.53663 36.48495,14.46003 36.48495,14.46003c0,0 -15.73303,15.86672 -35.65353,16.40335z"/><path d="M129.56747,137.13111c-11.69406,16.13577 -33.67377,20.15744 -33.67377,20.15744c0,0 -3.0199,-22.13959 8.67415,-38.27536c11.69406,-16.13577 33.67376,-20.15744 33.67376,-20.15744c0,0 3.01991,22.13959 -8.67415,38.27536z"/><path d="M73.49065,141.81752c3.11212,19.68321 -9.61289,38.05046 -9.61289,38.05046c0,0 -17.77074,-13.54556 -20.88286,-33.22877c-3.11212,-19.68321 9.61288,-38.05044 9.61288,-38.05044c0,0 17.77075,13.54555 20.88287,33.22876z"/><path d="M101.0445,140.6399c16.94762,10.48295 22.56562,32.10977 22.56562,32.10977c0,0 -21.85953,4.63059 -38.80714,-5.85235c-16.94761,-10.48295 -22.56561,-32.10977 -22.56561,-32.10977c0,0 21.85953,-4.6306 38.80714,5.85235z"/><path d="M146.40932,107.40698c18.64258,-7.04045 39.20938,1.69389 39.20938,1.69389c0,0 -9.65884,20.14915 -28.30142,27.18959c-18.64258,7.04045 -39.20937,-1.69388 -39.20937,-1.69388c0,0 9.65882,-20.14915 28.30141,-27.1896z"/><path d="M136.74815,138.29105c-1.50805,-19.87058 12.66245,-37.14711 12.66245,-37.14711c0,0 16.61554,14.94006 18.12359,34.81063c1.50805,19.87058 -12.66245,37.14709 -12.66245,37.14709c0,0 -16.61554,-14.94004 -18.12359,-34.81062z"/></g><g><path d="M169.33171,184.54101c-19.31951,4.88573 -38.76588,-6.11975 -38.76588,-6.11975c0,0 11.87678,-18.92679 31.19629,-23.81252c19.31951,-4.88573 38.76587,6.11974 38.76587,6.11974c0,0 -11.87677,18.92679 -31.19628,23.81252z"/><path d="M183.15036,110.53171c-2.70906,19.74272 -20.19915,33.64875 -20.19915,33.64875c0,0 -13.09786,-18.10325 -10.3888,-37.84597c2.70906,-19.74272 20.19916,-33.64875 20.19916,-33.64875c0,0 13.09785,18.10325 10.38879,37.84597z"/><path d="M217.83697,120.25769c14.01996,14.16173 14.4148,36.50286 14.4148,36.50286c0,0 -22.33601,-0.6196 -36.35597,-14.78133c-14.01996,-14.16173 -14.41481,-36.50285 -14.41481,-36.50285c0,0 22.33602,0.61959 36.35598,14.78132z"/><path d="M213.34442,176.35037c19.9273,0.12926 35.98144,15.671 35.98144,15.671c0,0 -16.2544,15.33218 -36.1817,15.20292c-19.9273,-0.12926 -35.98144,-15.671 -35.98144,-15.671c0,0 16.2544,-15.33218 36.1817,-15.20292z"/><path d="M216.662,148.97164c13.09873,-15.0179 35.35118,-17.04521 35.35118,-17.04521c0,0 1.0152,22.32153 -12.08352,37.33943c-13.09873,15.0179 -35.35117,17.04521 -35.35117,17.04521c0,0 -1.01521,-22.32153 12.08351,-37.33943z"/><path d="M191.24632,98.80753c-3.91599,-19.53916 8.04577,-38.41237 8.04577,-38.41237c0,0 18.31082,12.80607 22.2268,32.34523c3.91599,19.53916 -8.04576,38.41236 -8.04576,38.41236c0,0 -18.31082,-12.80605 -22.22681,-32.34522z"/><path d="M220.14887,113.36112c-19.85139,-1.74245 -34.59432,-18.53315 -34.59432,-18.53315c0,0 17.44255,-13.96563 37.29395,-12.22318c19.85139,1.74245 34.59432,18.53314 34.59432,18.53314c0,0 -17.44255,13.96564 -37.29394,12.22319z"/></g><g><path d="M157.32679,260.48205c3.03677,19.69498 -9.75842,38.01339 -9.75842,38.01339c0,0 -17.71879,-13.61347 -20.75555,-33.30844c-3.03677,-19.69497 9.75843,-38.01338 9.75843,-38.01338c0,0 17.71878,13.61346 20.75555,33.30844z"/><path d="M84.95603,239.72623c19.39804,4.564 31.5877,23.29082 31.5877,23.29082c0,0 -19.26079,11.32711 -38.65883,6.76311c-19.39804,-4.564 -31.58769,-23.29081 -31.58769,-23.29081c0,0 19.26078,-11.32712 38.65882,-6.76312z"/><path d="M97.91876,206.11487c15.42414,-12.61784 37.70246,-10.8981 37.70246,-10.8981c0,0 -2.72914,22.1773 -18.15328,34.79514c-15.42414,12.61784 -37.70247,10.89811 -37.70247,10.89811c0,0 2.72915,-22.17731 18.15329,-34.79515z"/><path d="M153.33516,215.89201c2.01322,-19.82576 19.00356,-34.33817 19.00356,-34.33817c0,0 13.72626,17.63153 11.71305,37.45729c-2.01322,19.82576 -19.00355,34.33816 -19.00355,34.33816c0,0 -13.72628,-17.63153 -11.71306,-37.45729z"/><path d="M126.39289,210.00007c-13.71184,-14.46027 -13.62563,-36.80472 -13.62563,-36.80472c0,0 22.3175,1.10031 36.02934,15.56059c13.71184,14.46027 13.62563,36.8047 13.62563,36.8047c0,0 -22.3175,-1.1003 -36.02934,-15.56057z"/><path d="M74.05003,230.55778c-19.82193,2.0506 -37.47932,-11.64239 -37.47932,-11.64239c0,0 14.48033,-17.01768 34.30226,-19.06828c19.82193,-2.0506 37.47932,11.64239 37.47932,11.64239c0,0 -14.48033,17.01769 -34.30226,19.06829z"/><path d="M91.27173,203.16112c-3.61199,19.59763 -21.72169,32.68659 -21.72169,32.68659c0,0 -12.25348,-18.68512 -8.64149,-38.28276c3.612,-19.59763 21.72169,-32.68658 21.72169,-32.68658c0,0 12.25349,18.68511 8.6415,38.28275z"/></g><g><path d="M20.02132,166.7046c18.16351,-8.19761 39.23834,-0.77248 39.23834,-0.77248c0,0 -8.37405,20.7161 -26.53756,28.91371c-18.16351,8.19761 -39.23834,0.77247 -39.23834,0.77247c0,0 8.37405,-20.71609 26.53755,-28.9137z"/><path d="M19.39392,241.9903c-0.7947,-19.91187 13.98608,-36.66926 13.98608,-36.66926c0,0 16.06925,15.52614 16.86395,35.43801c0.7947,19.91187 -13.98607,36.66925 -13.98607,36.66925c0,0 -16.06925,-15.52613 -16.86394,-35.43799z"/><path d="M-16.4607,238.49713c-16.28594,-11.48399 -20.59207,-33.40975 -20.59207,-33.40975c0,0 22.0986,-3.30651 38.38454,8.17748c16.28594,11.48399 20.59207,33.40974 20.59207,33.40974c0,0 -22.0986,3.30652 -38.38455,-8.17747z"/><path d="M-21.87332,182.48574c-19.64123,3.36689 -38.17181,-9.11904 -38.17181,-9.11904c0,0 13.31416,-17.94476 32.95539,-21.31165c19.64123,-3.36689 38.17181,9.11904 38.17181,9.11904c0,0 -13.31415,17.94476 -32.95538,21.31166z"/><path d="M-20.33877,210.02202c-10.26247,17.08202 -31.81469,22.97978 -31.81469,22.97978c0,0 -4.91343,-21.7977 5.34904,-38.87972c10.26247,-17.08202 31.81468,-22.97978 31.81468,-22.97978c0,0 4.91345,21.7977 -5.34902,38.87972z"/><path d="M13.47916,254.95242c7.28141,18.5498 -1.1857,39.22804 -1.1857,39.22804c0,0 -20.27261,-9.39694 -27.55402,-27.94674c-7.28141,-18.5498 1.18569,-39.22803 1.18569,-39.22803c0,0 20.27262,9.39693 27.55402,27.94673z"/><path d="M-17.52749,245.69224c19.84936,-1.7654 37.30805,12.18007 37.30805,12.18007c0,0 -14.72351,16.80772 -34.57288,18.57312c-19.84936,1.7654 -37.30804,-12.18007 -37.30804,-12.18007c0,0 14.72351,-16.80772 34.57287,-18.57312z"/></g><g><path d="M-56.1297,89.48029c-8.10017,-18.20718 -0.56222,-39.24192 -0.56222,-39.24192c0,0 20.67094,8.48493 28.77111,26.69211c8.10017,18.20717 0.56222,39.24192 0.56222,39.24192c0,0 -20.67094,-8.48492 -28.7711,-26.6921z"/><path d="M19.15156,90.51107c-19.91584,0.688 -36.5938,-14.18235 -36.5938,-14.18235c0,0 15.61202,-15.98582 35.52786,-16.67382c19.91584,-0.688 36.59378,14.18234 36.59378,14.18234c0,0 -15.612,15.98583 -35.52784,16.67383z"/><path d="M15.46633,126.34646c-11.57109,16.22417 -33.5196,20.41275 -33.5196,20.41275c0,0 -3.18806,-22.116 8.38303,-38.34017c11.5711,-16.22417 33.51961,-20.41276 33.51961,-20.41276c0,0 3.18806,22.11601 -8.38303,38.34018z"/><path d="M-40.57326,131.45889c3.26161,19.65899 -9.32344,38.1224 -9.32344,38.1224c0,0 -17.87316,-13.41012 -21.13477,-33.06911c-3.26161,-19.65899 9.32344,-38.1224 9.32344,-38.1224c0,0 17.87317,13.41011 21.13477,33.0691z"/><path d="M-13.02915,130.0719c17.02679,10.35385 22.80899,31.93737 22.80899,31.93737c0,0 -21.82371,4.79657 -38.8505,-5.55728c-17.02679,-10.35385 -22.80898,-31.93735 -22.80898,-31.93735c0,0 21.8237,-4.79658 38.85049,5.55727z"/><path d="M32.08181,96.4952c18.58855,-7.18191 39.22112,1.39587 39.22112,1.39587c0,0 -9.50543,20.22197 -28.09398,27.40388c-18.58855,7.18191 -39.22112,-1.39587 -39.22112,-1.39587c0,0 9.50543,-20.22197 28.09398,-27.40389z"/><path d="M22.65562,127.45179c-1.65901,-19.85854 12.37979,-37.24225 12.37979,-37.24225c0,0 16.72859,14.81336 18.3876,34.6719c1.65901,19.85854 -12.37978,37.24225 -12.37978,37.24225c0,0 -16.7286,-14.81335 -18.3876,-34.67189z"/></g><g><path d="M47.65568,41.25432c6.24979,18.92232 -3.34219,39.10338 -3.34219,39.10338c0,0 -19.7249,-10.49809 -25.97468,-29.42041c-6.24978,-18.92232 3.34219,-39.10337 3.34219,-39.10337c0,0 19.7249,10.49807 25.97469,29.4204z"/><path d="M-27.15008,32.74382c19.88556,1.29554 35.0024,17.75041 35.0024,17.75041c0,0 -17.12405,14.35439 -37.00961,13.05885c-19.88556,-1.29554 -35.00238,-17.7504 -35.00238,-17.7504c0,0 17.12403,-14.35439 37.00959,-13.05886z"/><path d="M-19.92018,-2.5476c13.12685,-14.99332 35.38306,-16.97892 35.38306,-16.97892c0,0 0.97338,22.32339 -12.15346,37.31672c-13.12684,14.99332 -35.38305,16.97893 -35.38305,16.97893c0,0 -0.97339,-22.32339 12.15345,-37.31672z"/><path d="M36.35003,-2.06297c-1.29086,-19.88587 13.06756,-37.00653 13.06756,-37.00653c0,0 16.45131,15.1207 17.74217,35.00658c1.29086,19.88587 -13.06757,37.00653 -13.06757,37.00653c0,0 -16.4513,-15.1207 -17.74216,-35.00657z"/><path d="M8.8045,-3.42143c-15.91299,-11.99543 -19.5206,-34.0469 -19.5206,-34.0469c0,0 22.19248,-2.60298 38.10547,9.39245c15.91299,11.99544 19.5206,34.04689 19.5206,34.04689c0,0 -22.19247,2.603 -38.10546,-9.39243z"/><path d="M-39.42129,25.50376c-19.2105,5.29816 -38.88801,-5.28851 -38.88801,-5.28851c0,0 11.4689,-19.1767 30.67941,-24.47485c19.21051,-5.29815 38.888,5.28851 38.888,5.28851c0,0 -11.46889,19.17671 -30.6794,24.47486z"/><path d="M-26.96395,-4.36225c-0.32364,19.92509 -16.02126,35.82686 -16.02126,35.82686c0,0 -15.17289,-16.40319 -14.84924,-36.32828c0.32364,-19.92509 16.02125,-35.82685 16.02125,-35.82685c0,0 15.17289,16.40319 14.84925,36.32828z"/></g><g><path d="M171.707,26.15668c14.46129,13.71077 15.56325,36.02819 15.56325,36.02819c0,0 -22.34444,0.08786 -36.80572,-13.62291c-14.46129,-13.71077 -15.56324,-36.02817 -15.56324,-36.02817c0,0 22.34443,-0.08788 36.80572,13.6229z"/><path d="M101.7823,54.06487c18.13045,-8.27047 39.23493,-0.93001 39.23493,-0.93001c0,0 -8.29081,20.74955 -26.42126,29.02003c-18.13045,8.27048 -39.23492,0.93001 -39.23492,0.93001c0,0 8.2908,-20.74955 26.42125,-29.02003z"/><path d="M91.44793,19.55463c4.46725,-19.42054 23.13307,-31.70341 23.13307,-31.70341c0,0 11.42298,19.20408 6.95574,38.62463c-4.46725,19.42054 -23.13305,31.70341 -23.13305,31.70341c0,0 -11.423,-19.20408 -6.95575,-38.62462z"/><path d="M141.24599,-6.65082c-10.54898,-16.90659 -6.0037,-38.78401 -6.0037,-38.78401c0,0 21.64857,5.53359 32.19755,22.44019c10.54898,16.9066 6.0037,38.78401 6.0037,38.78401c0,0 -21.64857,-5.53359 -32.19755,-22.44018z"/><path d="M116.33806,5.18964c-19.69519,-3.03531 -33.30998,-20.75308 -33.30998,-20.75308c0,0 18.31748,-12.79655 38.01268,-9.76124c19.6952,3.03531 33.30997,20.75308 33.30997,20.75308c0,0 -18.31747,12.79657 -38.01266,9.76125z"/><path d="M87.54586,53.49495c-14.41504,13.75939 -36.75964,13.74679 -36.75964,13.74679c0,0 1.02679,-22.321 15.44182,-36.08039c14.41504,-13.75939 36.75963,-13.74679 36.75963,-13.74679c0,0 -1.02678,22.32101 -15.44181,36.0804z"/><path d="M84.38418,21.28987c9.14533,17.70528 2.84345,39.14281 2.84345,39.14281c0,0 -21.12941,-7.26842 -30.27473,-24.97369c-9.14532,-17.70527 -2.84344,-39.1428 -2.84344,-39.1428c0,0 21.12941,7.26841 30.27473,24.97369z"/></g><g><path d="M241.26042,-26.93713c13.25468,-14.88044 35.52707,-16.67548 35.52707,-16.67548c0,0 0.78228,22.33091 -12.4724,37.21134c-13.25468,14.88044 -35.52706,16.67549 -35.52706,16.67549c0,0 -0.7823,-22.3309 12.47239,-37.21134z"/><path d="M271.32839,42.08641c-8.82997,-17.86464 -2.14899,-39.18708 -2.14899,-39.18708c0,0 20.99721,7.64191 29.82718,25.50655c8.82997,17.86465 2.14898,39.18706 2.14898,39.18706c0,0 -20.99721,-7.64189 -29.82718,-25.50653z"/><path d="M237.15601,53.48836c-19.55,-3.86149 -32.40707,-22.13655 -32.40707,-22.13655c0,0 18.83978,-12.01433 38.38978,-8.15283c19.55,3.8615 32.40707,22.13654 32.40707,22.13654c0,0 -18.83978,12.01434 -38.38978,8.15285z"/><path d="M209.4155,4.52882c-16.57056,11.06935 -38.57869,7.20621 -38.57869,7.20621c0,0 4.85808,-21.81009 21.42864,-32.87943c16.57056,-11.06934 38.57868,-7.20621 38.57868,-7.20621c0,0 -4.85808,21.81009 -21.42864,32.87944z"/><path d="M222.02438,29.05672c-2.42172,19.78002 -19.70778,33.9389 -19.70778,33.9389c0,0 -13.35968,-17.91091 -10.93796,-37.69093c2.42172,-19.78002 19.70777,-33.93888 19.70777,-33.93888c0,0 13.35969,17.91089 10.93797,37.69091z"/><path d="M271.20122,56.33368c14.20076,13.98043 14.88264,36.31463 14.88264,36.31463c0,0 -22.34213,-0.33255 -36.54289,-14.31298c-14.20076,-13.98043 -14.88264,-36.31462 -14.88264,-36.31462c0,0 22.34213,0.33255 36.54289,14.31298z"/><path d="M239.10996,60.49477c17.41249,-9.69119 39.03553,-4.05863 39.03553,-4.05863c0,0 -6.6082,21.3451 -24.02069,31.03629c-17.41249,9.69119 -39.03553,4.05863 -39.03553,4.05863c0,0 6.6082,-21.3451 24.02069,-31.03629z"/></g><g><path d="M284.16206,193.26972c-15.82715,12.10849 -38.0376,9.66363 -38.0376,9.66363c0,0 3.45044,-22.07659 19.27759,-34.18507c15.82715,-12.10849 38.03759,-9.66363 38.03759,-9.66363c0,0 -3.45042,22.07659 -19.27758,34.18507z"/><path d="M267.67508,119.80877c5.29609,19.21108 -5.29273,38.88743 -5.29273,38.88743c0,0 -19.17545,-11.47098 -24.47154,-30.68206c-5.29609,-19.21108 5.29273,-38.88742 5.29273,-38.88742c0,0 19.17546,11.47097 24.47154,30.68205z"/><path d="M303.38612,115.06779c18.46848,7.48525 27.64162,27.86012 27.64162,27.86012c0,0 -20.77023,8.23888 -39.23871,0.75364c-18.46848,-7.48524 -27.64161,-27.86011 -27.64161,-27.86011c0,0 20.77022,-8.23889 39.23871,-0.75365z"/><path d="M321.37794,168.38633c18.36335,-7.7396 39.24537,0.21163 39.24537,0.21163c0,0 -8.89084,20.49961 -27.25419,28.23921c-18.36335,7.7396 -39.24537,-0.21163 -39.24537,-0.21163c0,0 8.89084,-20.49961 27.25419,-28.23921z"/><path d="M313.62979,141.91809c6.11485,-18.96635 25.76446,-29.60468 25.76446,-29.60468c0,0 9.73549,20.11223 3.62064,39.07858c-6.11485,18.96635 -25.76446,29.60468 -25.76446,29.60468c0,0 -9.73549,-20.11223 -3.62064,-39.07858z"/><path d="M270.49147,105.84206c-11.30394,-16.41143 -7.75429,-38.47228 -7.75429,-38.47228c0,0 21.877,4.54733 33.18095,20.95875c11.30394,16.41142 7.75429,38.47226 7.75429,38.47226c0,0 -21.877,-4.54731 -33.18095,-20.95874z"/><path d="M302.79097,107.81842c-18.92976,6.22721 -39.09937,-3.38883 -39.09937,-3.38883c0,0 10.52161,-19.71237 29.45137,-25.93958c18.92976,-6.22721 39.09937,3.38884 39.09937,3.38884c0,0 -10.52161,19.71236 -29.45137,25.93957z"/></g><g><path d="M317.02912,255.15507c12.50617,15.51483 10.62565,37.78016 10.62565,37.78016c0,0 -22.15703,-2.88918 -34.6632,-18.404c-12.50617,-15.51482 -10.62565,-37.78015 -10.62565,-37.78015c0,0 22.15703,2.88916 34.66319,18.40399z"/><path d="M244.01016,273.50068c19.07052,-5.78183 39.00921,4.30434 39.00921,4.30434c0,0 -10.98075,19.46033 -30.05126,25.24216c-19.07051,5.78183 -39.00919,-4.30433 -39.00919,-4.30433c0,0 10.98074,-19.46033 30.05125,-25.24216z"/><path d="M238.3646,237.92143c7.01424,-18.65246 27.14979,-28.33961 27.14979,-28.33961c0,0 8.76324,20.55449 1.74901,39.20695c-7.01423,18.65246 -27.14978,28.33961 -27.14978,28.33961c0,0 -8.76325,-20.55449 -1.74902,-39.20695z"/><path d="M291.20947,218.58255c-8.20304,-18.16106 -0.78422,-39.23812 -0.78422,-39.23812c0,0 20.7186,8.36785 28.92164,26.52891c8.20304,18.16106 0.78422,39.2381 0.78422,39.2381c0,0 -20.71859,-8.36784 -28.92164,-26.5289z"/><path d="M264.94634,226.99979c-19.1154,-5.63164 -30.24888,-25.00501 -30.24888,-25.00501c0,0 19.85875,-10.24266 38.97414,-4.61102c19.11539,5.63164 30.24887,25.005 30.24887,25.005c0,0 -19.85874,10.24267 -38.97413,4.61103z"/><path d="M229.97648,271.03957c-16.11933,11.71672 -38.26314,8.72796 -38.26314,8.72796c0,0 3.99077,-21.98534 20.1101,-33.70206c16.11933,-11.71671 38.26314,-8.72795 38.26314,-8.72795c0,0 -3.99076,21.98534 -20.11009,33.70205z"/><path d="M231.13266,238.70033c6.70551,18.76566 -2.39567,39.17276 -2.39567,39.17276c0,0 -19.97298,-10.01806 -26.67849,-28.78371c-6.70551,-18.76566 2.39568,-39.17276 2.39568,-39.17276c0,0 19.97298,10.01806 26.67849,28.78372z"/></g></g><g fill="#357339"><g><path d="M199.9499,94.78209c9.42995,17.55534 3.47495,39.09181 3.47495,39.09181c0,0 -21.24399,-6.92638 -30.67393,-24.48172c-9.42995,-17.55534 -3.47494,-39.0918 -3.47494,-39.0918c0,0 21.24398,6.92637 30.67393,24.48171z"/><path d="M124.79997,99.34489c19.80975,-2.16514 37.54599,11.42556 37.54599,11.42556c0,0 -14.38172,17.1011 -34.19147,19.26624c-19.80975,2.16514 -37.54598,-11.42556 -37.54598,-11.42556c0,0 14.38172,-17.1011 34.19147,-19.26624z"/><path d="M125.81373,63.33478c10.33426,-17.0387 31.9111,-22.84571 31.9111,-22.84571c0,0 4.82169,21.81816 -5.51257,38.85686c-10.33426,17.03869 -31.91109,22.84572 -31.91109,22.84572c0,0 -4.8217,-21.81817 5.51256,-38.85687z"/><path d="M181.31889,54.07472c-4.71257,-19.36248 6.46656,-38.70954 6.46656,-38.70954c0,0 18.81971,12.04574 23.53228,31.40823c4.71257,19.36248 -6.46655,38.70953 -6.46655,38.70953c0,0 -18.81972,-12.04573 -23.53228,-31.40821z"/><path d="M153.95385,57.50341c-17.74869,-9.06078 -25.11781,-30.15527 -25.11781,-30.15527c0,0 21.40723,-6.40406 39.15592,2.65672c17.74869,9.06078 25.11781,30.15526 25.11781,30.15526c0,0 -21.40722,6.40407 -39.15592,-2.65671z"/><path d="M111.46102,94.33755c-18.00385,8.54255 -39.21648,1.52072 -39.21648,1.52072c0,0 7.97742,-20.87204 25.98127,-29.41459c18.00385,-8.54255 39.21647,-1.52072 39.21647,-1.52072c0,0 -7.97741,20.87204 -25.98126,29.41459z"/><path d="M118.5622,62.7664c3.12921,19.6805 -9.57982,38.0588 -9.57982,38.0588c0,0 -17.7825,-13.53011 -20.91172,-33.21061c-3.12922,-19.6805 9.57982,-38.05878 9.57982,-38.05878c0,0 17.78251,13.5301 20.91173,33.2106z"/></g><g><path d="M82.30282,19.33826c18.85486,-6.45046 39.13668,2.92659 39.13668,2.92659c0,0 -10.28795,19.83531 -29.14281,26.28577c-18.85485,6.45046 -39.13667,-2.92659 -39.13667,-2.92659c0,0 10.28794,-19.83531 29.1428,-26.28577z"/><path d="M74.5875,94.23021c1.08421,-19.89821 17.37756,-35.18899 17.37756,-35.18899c0,0 14.53551,16.97058 13.4513,36.86878c-1.08421,19.89821 -17.37756,35.18898 -17.37756,35.18898c0,0 -14.5355,-16.97057 -13.45129,-36.86877z"/><path d="M39.22127,87.37564c-15.13194,-12.96682 -17.35386,-35.20068 -17.35386,-35.20068c0,0 22.31178,-1.21048 37.44372,11.75634c15.13194,12.96682 17.35388,35.20067 17.35388,35.20067c0,0 -22.31179,1.21049 -37.44373,-11.75633z"/><path d="M39.10808,31.10346c-19.87103,1.50204 -37.14327,-12.67369 -37.14327,-12.67369c0,0 14.94509,-16.61102 34.81611,-18.11306c19.87103,-1.50204 37.14327,12.67368 37.14327,12.67368c0,0 -14.94508,16.61103 -34.81611,18.11307z"/><path d="M38.04232,58.66186c-11.82571,16.03953 -33.83759,19.8812 -33.83759,19.8812c0,0 -2.83861,-22.16357 8.9871,-38.2031c11.82571,-16.03953 33.83759,-19.88119 33.83759,-19.88119c0,0 2.83861,22.16356 -8.9871,38.20309z"/><path d="M67.47821,106.57764c5.50195,19.15313 -4.87508,38.94199 -4.87508,38.94199c0,0 -19.29746,-11.26454 -24.7994,-30.41766c-5.50194,-19.15313 4.87508,-38.94198 4.87508,-38.94198c0,0 19.29746,11.26452 24.79941,30.41765z"/><path d="M37.48154,94.43829c19.9274,0.11195 35.99504,15.63975 35.99504,15.63975c0,0 -16.24108,15.34629 -36.16848,15.23434c-19.9274,-0.11195 -35.99503,-15.63974 -35.99503,-15.63974c0,0 16.24108,-15.3463 36.16848,-15.23435z"/></g><g><path d="M88.05239,-57.33053c-4.63844,-19.38038 6.61464,-38.68451 6.61464,-38.68451c0,0 18.77348,12.11768 23.41192,31.49806c4.63844,19.38038 -6.61465,38.6845 -6.61465,38.6845c0,0 -18.77348,-12.11767 -23.41191,-31.49804z"/><path d="M161.87905,-42.56721c-19.70649,-2.96114 -33.38788,-20.62752 -33.38788,-20.62752c0,0 18.26916,-12.86544 37.97565,-9.9043c19.70649,2.96114 33.38786,20.62752 33.38786,20.62752c0,0 -18.26914,12.86544 -37.97563,9.9043z"/><path d="M151.71059,-8.00772c-14.33974,13.83783 -36.68408,13.94714 -36.68408,13.94714c0,0 0.90498,-22.32626 15.24473,-36.1641c14.33974,-13.83784 36.68408,-13.94714 36.68408,-13.94714c0,0 -0.90498,22.32627 -15.24472,36.16411z"/><path d="M95.6799,-13.21674c-0.3839,19.92402 -16.12954,35.77824 -16.12954,35.77824c0,0 -15.1232,-16.44902 -14.7393,-36.37303c0.3839,-19.92402 16.12954,-35.77823 16.12954,-35.77823c0,0 15.1232,16.44901 14.7393,36.37303z"/><path d="M123.014,-9.54955c14.84928,13.28958 16.59206,35.56612 16.59206,35.56612c0,0 -22.33269,0.72986 -37.18197,-12.55972c-14.84928,-13.28957 -16.59204,-35.56611 -16.59204,-35.56611c0,0 22.33268,-0.72987 37.18195,12.5597z"/><path d="M173.49881,-34.32208c19.58762,-3.66596 38.30642,8.536 38.30642,8.536c0,0 -13.03901,18.14568 -32.62662,21.81164c-19.58761,3.66597 -38.30642,-8.53599 -38.30642,-8.53599c0,0 13.03901,-18.14568 32.62662,-21.81164z"/><path d="M158.57706,-5.60788c1.99599,-19.8275 18.97373,-34.35466 18.97373,-34.35466c0,0 13.74158,17.61961 11.74559,37.44711c-1.99599,19.8275 -18.97372,34.35465 -18.97372,34.35465c0,0 -13.74159,-17.6196 -11.74559,-37.4471z"/></g><g><path d="M232.57208,24.89515c-17.43168,9.65663 -39.0435,3.98118 -39.0435,3.98118c0,0 6.65054,-21.33195 24.08222,-30.98857c17.43168,-9.65662 39.04349,-3.98118 39.04349,-3.98118c0,0 -6.65053,21.33194 -24.08221,30.98857z"/><path d="M227.03593,-50.18935c2.42164,19.78003 -10.93812,37.69089 -10.93812,37.69089c0,0 -17.28601,-14.15894 -19.70764,-33.93897c-2.42164,-19.78003 10.93811,-37.69087 10.93811,-37.69087c0,0 17.28601,14.15892 19.70765,33.93895z"/><path d="M263.05615,-49.64226c17.17116,10.11262 23.25727,31.61241 23.25727,31.61241c0,0 -21.75386,5.10399 -38.92503,-5.00862c-17.17117,-10.11262 -23.25727,-31.6124 -23.25727,-31.6124c0,0 21.75386,-5.104 38.92503,5.00862z"/><path d="M273.03463,5.73825c19.2998,-4.96305 38.79008,5.96444 38.79008,5.96444c0,0 -11.80088,18.97421 -31.10067,23.93726c-19.2998,4.96305 -38.79007,-5.96444 -38.79007,-5.96444c0,0 11.80087,-18.97421 31.10067,-23.93726z"/><path d="M269.25164,-21.58006c8.83004,-17.86461 29.82729,-25.50643 29.82729,-25.50643c0,0 6.6809,21.32246 -2.14914,39.18706c-8.83004,17.86461 -29.82727,25.50643 -29.82727,25.50643c0,0 -6.68092,-21.32244 2.14913,-39.18705z"/><path d="M231.87002,-63.59206c-8.77511,-17.89165 -2.02874,-39.19348 -2.02874,-39.19348c0,0 20.97366,7.7063 29.74877,25.59796c8.77511,17.89166 2.02874,39.19347 2.02874,39.19347c0,0 -20.97366,-7.70629 -29.74877,-25.59794z"/><path d="M263.53052,-56.90054c-19.63829,3.38396 -38.17972,-9.08589 -38.17972,-9.08589c0,0 13.29857,-17.95632 32.93687,-21.34028c19.63829,-3.38396 38.17971,9.08589 38.17971,9.08589c0,0 -13.29856,17.95632 -32.93686,21.34028z"/></g><g><path d="M314.78774,95.62814c9.56309,17.48317 3.77193,39.06427 3.77193,39.06427c0,0 -21.29601,-6.76474 -30.85909,-24.24791c-9.56309,-17.48317 -3.77193,-39.06427 -3.77193,-39.06427c0,0 21.296,6.76473 30.85909,24.2479z"/><path d="M239.67465,100.7619c19.79272,-2.31562 37.63174,11.13991 37.63174,11.13991c0,0 -14.25136,17.2099 -34.04408,19.52552c-19.79272,2.31562 -37.63172,-11.1399 -37.63172,-11.1399c0,0 14.25134,-17.2099 34.04406,-19.52552z"/><path d="M240.41473,64.74513c10.20448,-17.11673 31.73656,-23.08756 31.73656,-23.08756c0,0 4.98736,21.7809 -5.21712,38.89763c-10.20448,17.11674 -31.73656,23.08756 -31.73656,23.08756c0,0 -4.98736,-21.7809 5.21712,-38.89763z"/><path d="M295.84792,55.06352c-4.85958,-19.32611 6.17219,-38.75756 6.17219,-38.75756c0,0 18.91071,11.90237 23.77028,31.22848c4.85958,19.32611 -6.17219,38.75755 -6.17219,38.75755c0,0 -18.91071,-11.90237 -23.77028,-31.22848z"/><path d="M268.50972,58.70008c-17.81704,-8.92563 -25.34625,-29.96352 -25.34625,-29.96352c0,0 21.35795,-6.56656 39.17499,2.35908c17.81704,8.92564 25.34624,29.96351 25.34624,29.96351c0,0 -21.35794,6.56657 -39.17498,-2.35907z"/><path d="M226.29804,95.85607c-17.93842,8.67912 -39.20379,1.8187 -39.20379,1.8187c0,0 7.81856,-20.93206 25.75698,-29.61118c17.93842,-8.67912 39.20378,-1.81871 39.20378,-1.81871c0,0 -7.81855,20.93207 -25.75697,29.6112z"/><path d="M233.1591,64.23188c3.27868,19.65615 -9.29033,38.13049 -9.29033,38.13049c0,0 -17.88481,-13.39458 -21.1635,-33.05073c-3.27868,-19.65615 9.29032,-38.13049 9.29032,-38.13049c0,0 17.88482,13.39458 21.1635,33.05073z"/></g><g><path d="M215.29737,152.18622c-7.77744,-18.34735 0.13072,-39.24574 0.13072,-39.24574c0,0 20.5179,8.84857 28.29534,27.19592c7.77744,18.34735 -0.13073,39.24573 -0.13073,39.24573c0,0 -20.5179,-8.84856 -28.29534,-27.19592z"/><path d="M290.5487,154.546c-19.92488,0.33626 -36.33769,-14.82624 -36.33769,-14.82624c0,0 15.89184,-15.70768 35.81672,-16.04394c19.92488,-0.33626 36.33767,14.82623 36.33767,14.82623c0,0 -15.89182,15.70769 -35.81669,16.04395z"/><path d="M286.23133,190.31074c-11.85575,16.01734 -33.87479,19.81775 -33.87479,19.81775c0,0 -2.79708,-22.16885 9.05866,-38.18619c11.85575,-16.01734 33.87478,-19.81775 33.87478,-19.81775c0,0 2.79709,22.16885 -9.05865,38.18619z"/><path d="M230.11021,194.43293c2.91401,19.71351 -9.99508,37.95185 -9.99508,37.95185c0,0 -17.6336,-13.72359 -20.54761,-33.43711c-2.91401,-19.71351 9.99508,-37.95184 9.99508,-37.95184c0,0 17.6336,13.72359 20.54761,33.4371z"/><path d="M257.67452,193.53248c16.84132,10.65286 22.24154,32.3351 22.24154,32.3351c0,0 -21.905,4.41051 -38.74633,-6.24236c-16.84133,-10.65287 -22.24153,-32.33509 -22.24153,-32.33509c0,0 21.905,-4.41052 38.74632,6.24235z"/><path d="M303.37127,160.75749c18.71245,-6.85259 39.19036,2.08814 39.19036,2.08814c0,0 -9.861,20.051 -28.57345,26.90359c-18.71245,6.85259 -39.19035,-2.08814 -39.19035,-2.08814c0,0 9.86099,-20.051 28.57344,-26.90358z"/><path d="M293.39998,191.54283c-1.30813,-19.88473 13.03541,-37.01787 13.03541,-37.01787c0,0 16.46444,15.10641 17.77257,34.99114c1.30813,19.88474 -13.03541,37.01786 -13.03541,37.01786c0,0 -16.46444,-15.1064 -17.77257,-34.99114z"/></g><g><path d="M92.89779,177.38567c-15.53488,-12.48125 -18.45961,-34.63362 -18.45961,-34.63362c0,0 22.26228,-1.91625 37.79716,10.565c15.53488,12.48125 18.45961,34.6336 18.45961,34.6336c0,0 -22.26228,1.91627 -37.79716,-10.56498z"/><path d="M160.3039,143.84841c-17.39277,9.72654 -39.02721,4.13791 -39.02721,4.13791c0,0 6.56483,-21.35847 23.95761,-31.08501c17.39277,-9.72654 39.02719,-4.1379 39.02719,-4.1379c0,0 -6.56482,21.35847 -23.95758,31.08501z"/><path d="M173.42794,177.39711c-2.86286,19.721 -20.46083,33.49028 -20.46083,33.49028c0,0 -12.95634,-18.20479 -10.09348,-37.92579c2.86286,-19.721 20.46082,-33.49028 20.46082,-33.49028c0,0 12.95636,18.20479 10.09349,37.92579z"/><path d="M125.94161,207.59016c11.89724,15.98654 9.15768,38.16256 9.15768,38.16256c0,0 -22.02882,-3.74329 -33.92606,-19.72983c-11.89724,-15.98654 -9.15767,-38.16256 -9.15767,-38.16256c0,0 22.02881,3.74329 33.92606,19.72983z"/><path d="M149.79696,193.75093c19.87754,1.41326 34.89668,17.95735 34.89668,17.95735c0,0 -17.20874,14.25274 -37.08629,12.83948c-19.87754,-1.41326 -34.89668,-17.95733 -34.89668,-17.95733c0,0 17.20874,-14.25276 37.08628,-12.8395z"/><path d="M174.53922,143.25129c13.2406,-14.89297 35.51127,-16.70912 35.51127,-16.70912c0,0 0.80343,22.33016 -12.43717,37.22313c-13.2406,14.89297 -35.51127,16.70912 -35.51127,16.70912c0,0 -0.80343,-22.33016 12.43717,-37.22313z"/><path d="M180.32598,175.08959c-10.56366,-16.89742 -6.03738,-38.7788 -6.03738,-38.7788c0,0 21.65338,5.51478 32.21704,22.4122c10.56366,16.89742 6.03739,38.77879 6.03739,38.77879c0,0 -21.65338,-5.51477 -32.21704,-22.4122z"/></g><g><path d="M27.92294,235.99368c-11.9924,15.91529 -34.04316,19.52712 -34.04316,19.52712c0,0 -2.60725,-22.19198 9.38515,-38.10727c11.9924,-15.91529 34.04315,-19.52711 34.04315,-19.52711c0,0 2.60725,22.19197 -9.38515,38.10726z"/><path d="M-7.6931,169.66247c10.26241,17.08207 5.34888,38.87975 5.34888,38.87975c0,0 -21.55219,-5.89783 -31.8146,-22.9799c-10.26241,-17.08206 -5.34887,-38.87974 -5.34887,-38.87974c0,0 21.55219,5.89783 31.8146,22.97989z"/><path d="M25.43149,155.50207c19.80045,2.24855 34.11003,19.41007 34.11003,19.41007c0,0 -17.79331,13.51588 -37.59377,11.26733c-19.80045,-2.24855 -34.11002,-19.41005 -34.11002,-19.41005c0,0 17.79331,-13.5159 37.59376,-11.26735z"/><path d="M57.08583,202.02706c15.60905,-12.38836 37.85951,-10.33935 37.85951,-10.33935c0,0 -3.05682,22.13452 -18.66587,34.52288c-15.60905,12.38836 -37.8595,10.33934 -37.8595,10.33934c0,0 3.05682,-22.13452 18.66587,-34.52288z"/><path d="M42.51186,178.61337c0.79478,-19.91186 16.86408,-35.43794 16.86408,-35.43794c0,0 14.78071,16.75745 13.98593,36.66931c-0.79478,19.91186 -16.86407,35.43793 -16.86407,35.43793c0,0 -14.78072,-16.75745 -13.98594,-36.66931z"/><path d="M-8.73237,155.45258c-15.29729,-12.77133 -17.80473,-34.9748 -17.80473,-34.9748c0,0 22.2944,-1.49706 37.59169,11.27427c15.29729,12.77133 17.80474,34.97479 17.80474,34.97479c0,0 -22.2944,1.49707 -37.59169,-11.27426z"/><path d="M22.91069,148.67908c-16.56094,11.08373 -38.57241,7.23971 -38.57241,7.23971c0,0 4.83913,-21.81431 21.40007,-32.89804c16.56094,-11.08373 38.57242,-7.23972 38.57242,-7.23972c0,0 -4.83913,21.81432 -21.40007,32.89805z"/></g><g><path d="M-32.85669,20.03664c14.78309,-13.36317 37.11912,-12.74425 37.11912,-12.74425c0,0 -1.6321,22.28493 -16.41518,35.6481c-14.78308,13.36317 -37.11911,12.74424 -37.11911,12.74424c0,0 1.63209,-22.28492 16.41517,-35.64809z"/><path d="M-10.41291,91.90185c-6.85057,-18.71319 2.0924,-39.19015 2.0924,-39.19015c0,0 20.04992,9.86318 26.90049,28.57637c6.85057,18.71319 -2.0924,39.19012 -2.0924,39.19012c0,0 -20.04992,-9.86315 -26.90049,-28.57635z"/><path d="M-45.61615,99.54954c-19.01912,-5.94866 -29.82898,-25.50445 -29.82898,-25.50445c0,0 20.02627,-9.9111 39.0454,-3.96243c19.01912,5.94866 29.82897,25.50444 29.82897,25.50444c0,0 -20.02627,9.91111 -39.04539,3.96245z"/><path d="M-67.91125,47.88233c-17.66833,9.21651 -39.13104,3.00095 -39.13104,3.00095c0,0 7.18332,-21.15847 24.85165,-30.37498c17.66833,-9.21651 39.13104,-3.00095 39.13104,-3.00095c0,0 -7.18331,21.15847 -24.85164,30.37498z"/><path d="M-58.02291,73.62767c-4.54212,19.40317 -23.25517,31.61396 -23.25517,31.61396c0,0 -11.34883,-19.24801 -6.80672,-38.65118c4.54211,-19.40317 23.25516,-31.61395 23.25516,-31.61395c0,0 11.34884,19.248 6.80673,38.65117z"/><path d="M-12.07682,106.0522c12.60915,15.43125 10.87688,37.7086 10.87688,37.7086c0,0 -22.17577,-2.74163 -34.78492,-18.17288c-12.60915,-15.43125 -10.87688,-37.70859 -10.87688,-37.70859c0,0 22.17577,2.74162 34.78492,18.17288z"/><path d="M-44.42971,106.72589c18.35662,-7.75555 39.24554,0.17755 39.24554,0.17755c0,0 -8.87304,20.50733 -27.22966,28.26288c-18.35661,7.75554 -39.24554,-0.17754 -39.24554,-0.17754c0,0 8.87304,-20.50734 27.22966,-28.26288z"/></g><g><path d="M-70.67825,-38.95125c-13.73396,-14.43927 -13.68196,-36.78382 -13.68196,-36.78382c0,0 22.31915,1.06614 36.05312,15.5054c13.73396,14.43927 13.68196,36.7838 13.68196,36.7838c0,0 -22.31915,-1.06612 -36.05312,-15.50538z"/><path d="M0.59435,-63.21125c-18.53335,7.32318 -39.23061,-1.09735 -39.23061,-1.09735c0,0 9.35126,-20.29373 27.88461,-27.6169c18.53336,-7.32318 39.2306,1.09735 39.2306,1.09735c0,0 -9.35125,20.29373 -27.8846,27.61691z"/><path d="M9.13281,-28.21339c-5.46417,19.16394 -24.73939,30.4665 -24.73939,30.4665c0,0 -10.41603,-19.76834 -4.95186,-38.93228c5.46417,-19.16394 24.73937,-30.46651 24.73937,-30.46651c0,0 10.41605,19.76835 4.95188,38.93229z"/><path d="M-41.95208,-4.61451c9.66185,17.4288 3.99287,39.0423 3.99287,39.0423c0,0 -21.33392,-6.64415 -30.99577,-24.07294c-9.66184,-17.42879 -3.99286,-39.0423 -3.99286,-39.0423c0,0 21.33391,6.64415 30.99576,24.07294z"/><path d="M-16.46593,-15.15291c19.51217,4.04834 32.19383,22.44554 32.19383,22.44554c0,0 -18.95385,11.83355 -38.46602,7.78522c-19.51217,-4.04834 -32.19383,-22.44553 -32.19383,-22.44553c0,0 18.95385,-11.83357 38.46603,-7.78523z"/><path d="M14.78237,-61.90692c15.10635,-12.99663 37.42048,-11.83016 37.42048,-11.83016c0,0 -2.17808,22.23821 -17.28443,35.23483c-15.10635,12.99663 -37.42047,11.83016 -37.42047,11.83016c0,0 2.17807,-22.2382 17.28442,-35.23482z"/><path d="M16.27674,-29.58154c-8.21881,-18.15392 -0.81829,-39.23741 -0.81829,-39.23741c0,0 20.72587,8.34984 28.94469,26.50377c8.21881,18.15393 0.81829,39.23742 0.81829,39.23742c0,0 -20.72586,-8.34984 -28.94468,-26.50377z"/></g></g><g fill="#306834"><g><path d="M378.05188,244.17878c-18.57669,7.21252 -39.22336,-1.33126 -39.22336,-1.33126c0,0 9.47211,-20.23761 28.0488,-27.45013c18.57669,-7.21252 39.22336,1.33127 39.22336,1.33127c0,0 -9.47211,20.2376 -28.0488,27.45012z"/><path d="M382.71263,169.03486c-0.27344,19.92585 -15.93093,35.86712 -15.93093,35.86712c0,0 -15.21418,-16.36491 -14.94074,-36.29076c0.27344,-19.92585 15.93093,-35.86711 15.93093,-35.86711c0,0 15.21418,16.3649 14.94074,36.29075z"/><path d="M418.32855,174.44432c15.64716,12.34019 18.77219,34.46519 18.77219,34.46519c0,0 -22.24403,2.11759 -37.89119,-10.2226c-15.64716,-12.34019 -18.77219,-34.46519 -18.77219,-34.46519c0,0 22.24403,-2.11759 37.8912,10.2226z"/><path d="M420.73197,230.66527c19.79343,-2.30956 37.62832,11.15142 37.62832,11.15142c0,0 -14.25662,17.20553 -34.05005,19.51509c-19.79343,2.30956 -37.62831,-11.15141 -37.62831,-11.15141c0,0 14.25661,-17.20553 34.05004,-19.5151z"/><path d="M420.67519,203.08632c11.16309,-16.50755 33.00038,-21.24194 33.00038,-21.24194c0,0 3.73833,22.02967 -7.42476,38.53723c-11.16309,16.50755 -33.00036,21.24193 -33.00036,21.24193c0,0 -3.73835,-22.02966 7.42474,-38.53722z"/><path d="M389.31348,156.40831c-6.27694,-18.91333 3.28607,-39.10814 3.28607,-39.10814c0,0 19.73994,10.46977 26.01688,29.3831c6.27694,18.91332 -3.28606,39.10813 -3.28606,39.10813c0,0 -19.73994,-10.46976 -26.01688,-29.38309z"/><path d="M419.77938,167.31671c-19.91545,0.69921 -36.60177,-14.16175 -36.60177,-14.16175c0,0 15.60301,-15.99461 35.51846,-16.69381c19.91545,-0.69921 36.60176,14.16175 36.60176,14.16175c0,0 -15.603,15.99461 -35.51845,16.69382z"/></g><g><path d="M467.31541,136.63981c4.09649,19.50212 -7.69025,38.48513 -7.69025,38.48513c0,0 -18.42845,-12.6362 -22.52494,-32.13832c-4.09649,-19.50212 7.69025,-38.48512 7.69025,-38.48512c0,0 18.42845,12.63619 22.52494,32.13831z"/><path d="M393.92889,119.82463c19.61631,3.50922 32.8,21.55005 32.8,21.55005c0,0 -18.62062,12.35127 -38.23693,8.84205c-19.61631,-3.50922 -32.8,-21.55005 -32.8,-21.55005c0,0 18.62062,-12.35127 38.23693,-8.84205z"/><path d="M405.0566,85.56197c14.71985,-13.43281 37.05856,-12.91931 37.05856,-12.91931c0,0 -1.52688,22.29237 -16.24673,35.72518c-14.71985,13.43281 -37.05854,12.91932 -37.05854,12.91932c0,0 1.52687,-22.29238 16.24671,-35.72518z"/><path d="M460.92034,92.33057c0.93905,-19.90558 17.12044,-35.31479 17.12044,-35.31479c0,0 14.65889,16.86412 13.71983,36.7697c-0.93905,19.90558 -17.12044,35.31479 -17.12044,35.31479c0,0 -14.65889,-16.86412 -13.71983,-36.7697z"/><path d="M433.69906,87.90299c-14.47312,-13.69827 -15.59435,-36.01474 -15.59435,-36.01474c0,0 22.34435,-0.10715 36.81747,13.59112c14.47312,13.69827 15.59435,36.01473 15.59435,36.01473c0,0 -22.34435,0.10716 -36.81747,-13.59111z"/><path d="M382.54344,111.25885c-19.68217,3.11862 -38.05363,-9.6003 -38.05363,-9.6003c0,0 13.53969,-17.77522 33.22187,-20.89384c19.68218,-3.11862 38.05362,9.6003 38.05362,9.6003c0,0 -13.53968,17.77522 -33.22186,20.89384z"/><path d="M398.25968,82.97168c-2.54782,19.76417 -19.92385,33.81251 -19.92385,33.81251c0,0 -13.24517,-17.99575 -10.69735,-37.75992c2.54782,-19.76417 19.92383,-33.81249 19.92383,-33.81249c0,0 13.24518,17.99574 10.69736,37.75991z"/></g><g><path d="M542.70579,151.72126c19.80213,-2.23379 37.58537,11.29534 37.58537,11.29534c0,0 -14.32236,17.15086 -34.12449,19.38465c-19.80213,2.23379 -37.58536,-11.29534 -37.58536,-11.29534c0,0 14.32235,-17.15085 34.12448,-19.38465z"/><path d="M519.02576,223.18865c5.34862,-19.19652 24.55539,-30.615 24.55539,-30.615c0,0 10.53494,19.70524 5.18633,38.90176c-5.34862,19.19652 -24.55538,30.61498 -24.55538,30.61498c0,0 -10.53495,-19.70523 -5.18633,-38.90175z"/><path d="M485.96902,208.87057c-11.98053,-15.92422 -9.35676,-38.11424 -9.35676,-38.11424c0,0 22.04806,3.62824 34.02859,19.55246c11.98054,15.92422 9.35676,38.11425 9.35676,38.11425c0,0 -22.04807,-3.62825 -34.0286,-19.55246z"/><path d="M497.99036,153.89732c-19.72756,-2.81733 -33.53744,-20.38345 -33.53744,-20.38345c0,0 18.17484,-12.99833 37.9024,-10.18101c19.72756,2.81732 33.53743,20.38345 33.53743,20.38345c0,0 -18.17483,12.99834 -37.90239,10.18101z"/><path d="M491.00828,180.57788c-15.00561,13.1128 -37.32809,12.11853 -37.32809,12.11853c0,0 2.00645,-22.25434 17.01206,-35.36714c15.00561,-13.1128 37.32808,-12.11853 37.32808,-12.11853c0,0 -2.00644,22.25434 -17.01204,35.36714z"/><path d="M509.42164,233.713c1.24329,19.88889 -13.15604,36.97517 -13.15604,36.97517c0,0 -16.4151,-15.16001 -17.65839,-35.04891c-1.24329,-19.88889 13.15604,-36.97517 13.15604,-36.97517c0,0 16.4151,15.16001 17.65839,35.0489z"/><path d="M482.74755,215.39206c19.43464,4.40552 31.77675,23.03223 31.77675,23.03223c0,0 -19.1677,11.48394 -38.60234,7.07843c-19.43464,-4.40552 -31.77674,-23.03222 -31.77674,-23.03222c0,0 19.16769,-11.48395 38.60233,-7.07844z"/></g><g><path d="M443.42534,285.1019c-7.45262,-18.48167 0.82292,-39.23732 0.82292,-39.23732c0,0 20.35864,9.20909 27.81126,27.69077c7.45262,18.48167 -0.82292,39.23732 -0.82292,39.23732c0,0 -20.35863,-9.20909 -27.81125,-27.69076z"/><path d="M518.62334,288.78861c-19.92771,-0.01523 -36.07053,-15.46486 -36.07053,-15.46486c0,0 16.16641,-15.42494 36.09412,-15.40972c19.92771,0.01523 36.07052,15.46486 36.07052,15.46486c0,0 -16.1664,15.42494 -36.09411,15.40971z"/><path d="M513.67581,324.47163c-12.13641,15.80574 -34.21906,19.21718 -34.21906,19.21718c0,0 -2.40564,-22.21473 9.73078,-38.02047c12.13642,-15.80574 34.21906,-19.21718 34.21906,-19.21718c0,0 2.40564,22.21473 -9.73078,38.02047z"/><path d="M457.49073,327.60332c2.56584,19.76184 -10.66292,37.76965 -10.66292,37.76965c0,0 -17.38881,-14.03249 -19.95465,-33.79433c-2.56584,-19.76184 10.66291,-37.76965 10.66291,-37.76965c0,0 17.38881,14.03249 19.95465,33.79433z"/><path d="M485.06662,327.18919c16.65081,10.94825 21.66776,32.72237 21.66776,32.72237c0,0 -21.97939,4.02345 -38.6302,-6.9248c-16.65081,-10.94825 -21.66775,-32.72235 -21.66775,-32.72235c0,0 21.97938,-4.02346 38.63019,6.92478z"/><path d="M531.33435,295.2253c18.83041,-6.52147 39.14744,2.77905 39.14744,2.77905c0,0 -10.21312,19.87394 -29.04353,26.39542c-18.83041,6.52147 -39.14743,-2.77905 -39.14743,-2.77905c0,0 10.21311,-19.87395 29.04352,-26.39542z"/><path d="M520.82163,325.82997c-0.9572,-19.90472 13.68631,-36.78219 13.68631,-36.78219c0,0 16.19543,15.39446 17.15263,35.29917c0.9572,19.90472 -13.68631,36.78219 -13.68631,36.78219c0,0 -16.19543,-15.39445 -17.15263,-35.29917z"/></g><g><path d="M363.16985,358.05139c-18.52134,7.35348 -39.23235,-1.03315 -39.23235,-1.03315c0,0 9.31804,-20.30901 27.83939,-27.66249c18.52134,-7.35348 39.23234,1.03315 39.23234,1.03315c0,0 -9.31804,20.30901 -27.83938,27.66249z"/><path d="M367.25942,282.87422c-0.12201,19.92735 -15.65791,35.98716 -15.65791,35.98716c0,0 -15.3381,-16.24883 -15.21609,-36.17617c0.12201,-19.92735 15.6579,-35.98713 15.6579,-35.98713c0,0 15.3381,16.24881 15.2161,36.17615z"/><path d="M402.91542,288.01286c15.74048,12.22093 19.03356,34.32155 19.03356,34.32155c0,0 -22.2273,2.28657 -37.96778,-9.93436c-15.74048,-12.22093 -19.03356,-34.32154 -19.03356,-34.32154c0,0 22.2273,-2.28658 37.96778,9.93435z"/><path d="M405.74602,344.21392c19.77531,-2.45992 37.71197,10.86514 37.71197,10.86514c0,0 -14.12545,17.31337 -33.90076,19.77329c-19.77531,2.45992 -37.71197,-10.86514 -37.71197,-10.86514c0,0 14.12545,-17.31337 33.90076,-19.77329z"/><path d="M405.47965,316.63621c11.03731,-16.59191 32.838,-21.49212 32.838,-21.49212c0,0 3.90563,22.00063 -7.13168,38.59254c-11.03731,16.59191 -32.83799,21.49211 -32.83799,21.49211c0,0 -3.90564,-22.00062 7.13166,-38.59253z"/><path d="M373.76412,270.19786c-6.42048,-18.86508 2.98878,-39.13198 2.98878,-39.13198c0,0 19.81894,10.31946 26.23942,29.18454c6.42048,18.86509 -2.98877,39.13198 -2.98877,39.13198c0,0 -19.81894,-10.31946 -26.23942,-29.18454z"/><path d="M404.31203,280.87443c-19.90956,0.85053 -36.70833,-13.88319 -36.70833,-13.88319c0,0 15.48102,-16.11272 35.39058,-16.96324c19.90956,-0.85053 36.70832,13.88318 36.70832,13.88318c0,0 -15.481,16.11272 -35.39056,16.96325z"/></g><g><path d="M319.20185,252.39173c19.16069,-5.47556 38.93524,4.9287 38.93524,4.9287c0,0 -11.29109,19.28193 -30.45178,24.7575c-19.16069,5.47557 -38.93523,-4.9287 -38.93523,-4.9287c0,0 11.29107,-19.28193 30.45177,-24.7575z"/><path d="M307.65807,326.78979c2.10267,-19.81648 19.15834,-34.25205 19.15834,-34.25205c0,0 13.64656,17.69331 11.54388,37.50978c-2.10267,19.81648 -19.15834,34.25204 -19.15834,34.25204c0,0 -13.64656,-17.69329 -11.54389,-37.50977z"/><path d="M272.68965,318.13151c-14.44743,-13.72537 -15.52683,-36.04389 -15.52683,-36.04389c0,0 22.3445,-0.06529 36.79193,13.66008c14.44743,13.72537 15.52684,36.04388 15.52684,36.04388c0,0 -22.34451,0.0653 -36.79194,-13.66007z"/><path d="M275.46087,261.92749c-19.92191,0.48158 -36.44486,-14.56081 -36.44486,-14.56081c0,0 15.77684,-15.82317 35.69875,-16.30474c19.9219,-0.48157 36.44484,14.56082 36.44484,14.56082c0,0 -15.77683,15.82316 -35.69873,16.30473z"/><path d="M272.984,289.39505c-12.63227,15.41231 -34.81214,18.12071 -34.81214,18.12071c0,0 -1.69887,-22.27994 10.9334,-37.69225c12.63227,-15.41232 34.81213,-18.1207 34.81213,-18.1207c0,0 1.69888,22.27993 -10.93339,37.69225z"/><path d="M299.92525,338.7566c4.51301,19.40997 -6.86466,38.64093 -6.86466,38.64093c0,0 -18.69473,-12.23881 -23.20774,-31.64878c-4.51301,-19.40996 6.86466,-38.64093 6.86466,-38.64093c0,0 18.69473,12.23881 23.20774,31.64878z"/><path d="M270.59022,325.09571c19.89547,1.13319 35.14611,17.46413 35.14611,17.46413c0,0 -17.00631,14.49368 -36.90178,13.36049c-19.89548,-1.13319 -35.1461,-17.46412 -35.1461,-17.46412c0,0 17.0063,-14.49369 36.90178,-13.3605z"/></g><g><path d="M309.15848,127.82929c14.28719,-13.89209 36.63096,-14.0861 36.63096,-14.0861c0,0 -0.82035,22.32954 -15.10754,36.22164c-14.28719,13.8921 -36.63094,14.0861 -36.63094,14.0861c0,0 0.82034,-22.32954 15.10753,-36.22164z"/><path d="M334.20168,198.83048c-7.52677,-18.4516 0.66537,-39.24031 0.66537,-39.24031c0,0 20.39545,9.12728 27.92222,27.57888c7.52677,18.45161 -0.66539,39.2403 -0.66539,39.2403c0,0 -20.39544,-9.12726 -27.92221,-27.57887z"/><path d="M299.29993,207.75372c-19.22294,-5.25286 -30.73702,-24.40247 -30.73702,-24.40247c0,0 19.65248,-10.63304 38.87541,-5.38018c19.22294,5.25286 30.73702,24.40245 30.73702,24.40245c0,0 -19.65248,10.63305 -38.87541,5.38019z"/><path d="M275.14007,156.93174c-17.32137,9.85314 -38.99597,4.42245 -38.99597,4.42245c0,0 6.40888,-21.40578 23.73025,-31.25891c17.32137,-9.85313 38.99597,-4.42244 38.99597,-4.42244c0,0 -6.40888,21.40578 -23.73025,31.25891z"/><path d="M285.95842,182.30033c-3.83327,19.55556 -22.08975,32.43899 -22.08975,32.43899c0,0 -12.0415,-18.82243 -8.20824,-38.37799c3.83327,-19.55556 22.08974,-32.43899 22.08974,-32.43899c0,0 12.04152,18.82242 8.20825,38.37798z"/><path d="M333.05362,213.032c13.16215,14.96235 12.24142,37.28798 12.24142,37.28798c0,0 -22.26083,-1.93313 -35.42298,-16.89548c-13.16215,-14.96234 -12.24142,-37.28797 -12.24142,-37.28797c0,0 22.26083,1.93312 35.42299,16.89547z"/><path d="M300.74665,214.88216c18.06234,-8.41817 39.22604,-1.25022 39.22604,-1.25022c0,0 -8.12117,20.81654 -26.18351,29.23471c-18.06234,8.41817 -39.22603,1.25023 -39.22603,1.25023c0,0 8.12116,-20.81654 26.1835,-29.23471z"/></g><g><path d="M258.93539,56.17546c-14.32943,-13.84851 -15.21778,-36.17546 -15.21778,-36.17546c0,0 22.34425,0.12596 36.67368,13.97447c14.32943,13.84852 15.21778,36.17544 15.21778,36.17544c0,0 -22.34425,-0.12594 -36.67368,-13.97445z"/><path d="M329.12395,28.93765c-18.20876,8.09661 -39.24205,0.55454 -39.24205,0.55454c0,0 8.48898,-20.66927 26.69774,-28.76588c18.20876,-8.09661 39.24203,-0.55453 39.24203,-0.55453c0,0 -8.48896,20.66927 -26.69772,28.76588z"/><path d="M339.12762,63.54519c-4.65287,19.37691 -23.43537,31.4806 -23.43537,31.4806c0,0 -11.2387,-19.31251 -6.58583,-38.68942c4.65287,-19.37691 23.43536,-31.4806 23.43536,-31.4806c0,0 11.23872,19.3125 6.58585,38.68941z"/><path d="M289.08108,89.27293c10.38673,17.00677 5.63231,38.83969 5.63231,38.83969c0,0 -21.59463,-5.74049 -31.98135,-22.74725c-10.38673,-17.00677 -5.6323,-38.83969 -5.6323,-38.83969c0,0 21.59462,5.74048 31.98134,22.74725z"/><path d="M314.10117,77.67135c19.66525,3.22363 33.10987,21.07087 33.10987,21.07087c0,0 -18.43909,12.62069 -38.10434,9.39706c-19.66525,-3.22363 -33.10986,-21.07086 -33.10986,-21.07086c0,0 18.43908,-12.62069 38.10433,-9.39706z"/><path d="M343.35428,29.64376c14.54604,-13.62082 36.8895,-13.39441 36.8895,-13.39441c0,0 -1.24033,22.31016 -15.78637,35.93098c-14.54604,13.62082 -36.88949,13.39442 -36.88949,13.39442c0,0 1.24032,-22.31016 15.78635,-35.93098z"/><path d="M346.20765,61.87762c-8.97549,-17.79197 -2.46877,-39.16822 -2.46877,-39.16822c0,0 21.05889,7.47026 30.03438,25.26224c8.97549,17.79198 2.46876,39.16823 2.46876,39.16823c0,0 -21.05889,-7.47026 -30.03438,-25.26224z"/></g><g><path d="M480.70394,22.25909c11.45522,16.3062 8.10969,38.39894 8.10969,38.39894c0,0 -21.91811,-4.34484 -33.37333,-20.65104c-11.45522,-16.30619 -8.10969,-38.39892 -8.10969,-38.39892c0,0 21.91812,4.34483 33.37333,20.65103z"/><path d="M406.63361,35.74679c19.41046,-4.51092 38.64019,6.86886 38.64019,6.86886c0,0 -12.24085,18.6934 -31.6513,23.20431c-19.41046,4.51091 -38.64017,-6.86885 -38.64017,-6.86885c0,0 12.24083,-18.6934 31.65129,-23.20431z"/><path d="M403.34795,-0.12743c8.22967,-18.149 28.96053,-26.48646 28.96053,-26.48646c0,0 7.38791,21.08792 -0.84176,39.23692c-8.22967,18.14901 -28.96052,26.48646 -28.96052,26.48646c0,0 -7.38792,-21.08791 0.84175,-39.23691z"/><path d="M457.35367,-15.93737c-6.98687,-18.66273 1.8065,-39.20435 1.8065,-39.20435c0,0 20.12132,9.71666 27.10819,28.3794c6.98687,18.66274 -1.8065,39.20434 -1.8065,39.20434c0,0 -20.12132,-9.71665 -27.10819,-28.37939z"/><path d="M430.59239,-9.27136c-18.70216,-6.88065 -28.53308,-26.94639 -28.53308,-26.94639c0,0 20.49129,-8.91003 39.19345,-2.02939c18.70216,6.88065 28.53307,26.94639 28.53307,26.94639c0,0 -20.49129,8.91003 -39.19344,2.02939z"/><path d="M392.79291,32.36507c-16.85729,10.6276 -38.75565,6.18426 -38.75565,6.18426c0,0 5.43271,-21.67411 22.29,-32.30171c16.85729,-10.6276 38.75563,-6.18426 38.75563,-6.18426c0,0 -5.4327,21.67411 -22.28999,32.30171z"/><path d="M396.08037,0.17259c5.4527,19.16721 -4.97514,38.92933 -4.97514,38.92933c0,0 -19.26845,-11.31408 -24.72116,-30.48129c-5.4527,-19.16721 4.97515,-38.92933 4.97515,-38.92933c0,0 19.26845,11.31408 24.72115,30.4813z"/></g><g><path d="M543.87397,-8.06562c16.01029,-11.86526 38.1808,-9.08138 38.1808,-9.08138c0,0 -3.78731,22.0213 -19.7976,33.88656c-16.01029,11.86527 -38.18079,9.08138 -38.18079,9.08138c0,0 3.7873,-22.0213 19.7976,-33.88656z"/><path d="M559.23672,65.63863c-5.00197,-19.28974 5.88622,-38.80203 5.88622,-38.80203c0,0 18.99797,11.7626 23.99994,31.05235c5.00197,19.28975 -5.88622,38.80202 -5.88622,38.80202c0,0 -18.99797,-11.76259 -23.99994,-31.05233z"/><path d="M523.45742,69.83348c-18.35197,-7.76653 -27.21275,-28.27916 -27.21275,-28.27916c0,0 20.89367,-7.92061 39.24564,-0.15408c18.35197,7.76653 27.21275,28.27915 27.21275,28.27915c0,0 -20.89367,7.92062 -39.24564,0.15409z"/><path d="M506.28228,16.24629c-18.47945,7.45815 -39.23757,-0.81117 -39.23757,-0.81117c0,0 9.203,-20.36138 27.68245,-27.81953c18.47945,-7.45815 39.23755,0.81118 39.23755,0.81118c0,0 -9.20298,20.36138 -27.68243,27.81953z"/><path d="M513.62515,42.82982c-6.40389,18.87072 -26.21374,29.20761 -26.21374,29.20761c0,0 -9.42708,-20.25862 -3.02319,-39.12934c6.40389,-18.87071 26.21373,-29.2076 26.21373,-29.2076c0,0 9.4271,20.25862 3.0232,39.12933z"/><path d="M556.20727,79.56069c11.0519,16.58221 7.16562,38.58625 7.16562,38.58625c0,0 -21.80498,-4.88102 -32.85688,-21.46323c-11.0519,-16.58221 -7.16563,-38.58625 -7.16563,-38.58625c0,0 21.80498,4.88102 32.85688,21.46322z"/><path d="M523.94174,77.0911c19.02269,-5.93728 39.04303,3.98579 39.04303,3.98579c0,0 -10.82154,19.54932 -29.84422,25.4866c-19.02269,5.93728 -39.04302,-3.98579 -39.04302,-3.98579c0,0 10.82153,-19.54932 29.84422,-25.4866z"/></g></g><g fill="#357339"><g><path d="M462.18773,100.82245c17.9241,-8.70866 39.20074,-1.88328 39.20074,-1.88328c0,0 -7.78407,20.94492 -25.70817,29.65358c-17.9241,8.70866 -39.20073,1.88327 -39.20073,1.88327c0,0 7.78406,-20.94492 25.70816,-29.65358z"/><path d="M463.69245,176.09573c-1.35823,-19.88138 12.9421,-37.05059 12.9421,-37.05059c0,0 16.50245,15.06487 17.86068,34.94625c1.35823,19.88138 -12.94209,37.0506 -12.94209,37.0506c0,0 -16.50246,-15.06487 -17.86068,-34.94625z"/><path d="M427.7533,173.61925c-16.6046,-11.01822 -21.52988,-32.81325 -21.52988,-32.81325c0,0 21.99611,-3.93095 38.60071,7.08727c16.6046,11.01822 21.52988,32.81324 21.52988,32.81324c0,0 -21.9961,3.93096 -38.60071,-7.08727z"/><path d="M420.75677,117.7836c-19.53801,3.92172 -38.41473,-8.03447 -38.41473,-8.03447c0,0 12.80067,-18.31459 32.33869,-22.23632c19.53802,-3.92172 38.41473,8.03448 38.41473,8.03448c0,0 -12.80067,18.31459 -32.33869,22.23632z"/><path d="M423.07044,145.26538c-9.77465,17.36577 -31.15121,23.87147 -31.15121,23.87147c0,0 -5.52871,-21.64982 4.24593,-39.01559c9.77465,-17.36577 31.1512,-23.87146 31.1512,-23.87146c0,0 5.52873,21.64981 -4.24592,39.01559z"/><path d="M458.14711,189.22014c7.80376,18.33616 -0.0744,39.24589 -0.0744,39.24589c0,0 -20.53057,-8.81913 -28.33434,-27.15529c-7.80376,-18.33616 0.0744,-39.24587 0.0744,-39.24587c0,0 20.53057,8.81911 28.33434,27.15528z"/><path d="M426.89066,180.84169c19.79142,-2.32676 37.638,11.11873 37.638,11.11873c0,0 -14.24167,17.2179 -34.03309,19.54466c-19.79141,2.32676 -37.63798,-11.11872 -37.63798,-11.11872c0,0 14.24165,-17.21791 34.03307,-19.54467z"/></g><g><path d="M382.02472,215.30607c-5.67881,-19.10144 4.51479,-38.98541 4.51479,-38.98541c0,0 19.40079,11.08562 25.0796,30.18706c5.67881,19.10144 -4.51479,38.98539 -4.51479,38.98539c0,0 -19.40079,-11.0856 -25.0796,-30.18704z"/><path d="M456.54122,226.05883c-19.8377,-1.89203 -34.45364,-18.79337 -34.45364,-18.79337c0,0 17.54732,-13.83376 37.38502,-11.94173c19.8377,1.89203 34.45363,18.79338 34.45363,18.79338c0,0 -17.54731,13.83376 -37.38501,11.94172z"/><path d="M448.25492,261.11726c-13.57111,14.59243 -35.87691,15.90887 -35.87691,15.90887c0,0 -0.30266,-22.34254 13.26844,-36.93497c13.57111,-14.59243 35.8769,-15.90888 35.8769,-15.90888c0,0 0.30267,22.34255 -13.26844,36.93498z"/><path d="M392.02464,258.94329c0.69319,19.91566 -14.17282,36.59749 -14.17282,36.59749c0,0 -15.98988,-15.60785 -16.68306,-35.52351c-0.69319,-19.91566 14.17282,-36.59749 14.17282,-36.59749c0,0 15.98988,15.60785 16.68307,35.52351z"/><path d="M419.51695,261.12822c15.54564,12.46783 18.48952,34.61766 18.48952,34.61766c0,0 -22.26063,1.93547 -37.80627,-10.53235c-15.54564,-12.46783 -18.48951,-34.61766 -18.48951,-34.61766c0,0 22.26062,-1.93548 37.80626,10.53235z"/><path d="M468.58951,233.66408c19.36092,-4.71896 38.71168,6.45376 38.71168,6.45376c0,0 -12.03953,18.82369 -31.40045,23.54265c-19.36092,4.71896 -38.71166,-6.45376 -38.71166,-6.45376c0,0 12.03952,-18.82369 31.40044,-23.54265z"/><path d="M455.24103,263.14259c0.92176,-19.90638 17.08977,-35.32966 17.08977,-35.32966c0,0 14.67353,16.85138 13.75176,36.75777c-0.92176,19.90639 -17.08976,35.32965 -17.08976,35.32965c0,0 -14.67354,-16.85137 -13.75177,-36.75776z"/></g><g><path d="M305.65296,206.44522c-19.55288,3.84693 -38.38371,-8.18142 -38.38371,-8.18142c0,0 12.87068,-18.26548 32.42356,-22.1124c19.55288,-3.84693 38.38369,8.18143 38.38369,8.18143c0,0 -12.87066,18.26547 -32.42354,22.11239z"/><path d="M323.40459,133.27958c-3.75962,19.56986 -21.96745,32.52193 -21.96745,32.52193c0,0 -12.11229,-18.77695 -8.35267,-38.34681c3.75962,-19.56986 21.96745,-32.52192 21.96745,-32.52192c0,0 12.11229,18.77694 8.35267,38.3468z"/><path d="M357.52226,144.84423c13.2436,14.8903 12.44467,37.22062 12.44467,37.22062c0,0 -22.27104,-1.81164 -35.51463,-16.70194c-13.24359,-14.8903 -12.44468,-37.22062 -12.44468,-37.22062c0,0 22.27104,1.81164 35.51464,16.70194z"/><path d="M350.0403,200.61691c19.89195,1.19335 35.09313,17.57035 35.09313,17.57035c0,0 -17.05007,14.44216 -36.94203,13.24881c-19.89195,-1.19335 -35.09312,-17.57034 -35.09312,-17.57034c0,0 17.05007,-14.44218 36.94202,-13.24882z"/><path d="M354.8154,173.45444c13.88211,-14.29688 36.21108,-15.13283 36.21108,-15.13283c0,0 -0.1784,22.3439 -14.06052,36.64078c-13.88211,14.29688 -36.21107,15.13283 -36.21107,15.13283c0,0 0.17839,-22.3439 14.0605,-36.64077z"/><path d="M332.11518,122.00453c-2.86684,-19.72043 10.08582,-37.92783 10.08582,-37.92783c0,0 17.60074,13.76572 20.46758,33.48615c2.86684,19.72043 -10.08582,37.92784 -10.08582,37.92784c0,0 -17.60074,-13.76573 -20.46758,-33.48615z"/><path d="M360.19919,138.08097c-19.72999,-2.80019 -33.55512,-20.35432 -33.55512,-20.35432c0,0 18.16354,-13.01412 37.89353,-10.21393c19.72999,2.80019 33.55512,20.35431 33.55512,20.35431c0,0 -18.16354,13.01412 -37.89353,10.21394z"/></g><g><path d="M393.68439,65.38682c8.94018,17.80975 2.39105,39.17305 2.39105,39.17305c0,0 -21.04402,-7.51203 -29.98419,-25.32179c-8.94018,-17.80975 -2.39105,-39.17303 -2.39105,-39.17303c0,0 21.04402,7.51203 29.9842,25.32178z"/><path d="M318.43692,67.86675c19.86211,-1.61572 37.21519,12.46094 37.21519,12.46094c0,0 -14.84978,16.69626 -34.7119,18.31198c-19.86211,1.61572 -37.21517,-12.46094 -37.21517,-12.46094c0,0 14.84977,-16.69627 34.71188,-18.31199z"/><path d="M320.44752,31.89852c10.80214,-16.74597 32.53152,-21.95323 32.53152,-21.95323c0,0 4.21564,21.94333 -6.5865,38.6893c-10.80214,16.74597 -32.53152,21.95324 -32.53152,21.95324c0,0 -4.21564,-21.94333 6.5865,-38.6893z"/><path d="M376.18783,24.17911c-4.17455,-19.48556 7.53606,-38.51561 7.53606,-38.51561c0,0 18.47891,12.5623 22.65346,32.04786c4.17455,19.48556 -7.53605,38.51561 -7.53605,38.51561c0,0 -18.47892,-12.56229 -22.65347,-32.04785z"/><path d="M348.73833,26.84868c-17.49097,-9.54881 -24.2731,-30.8393 -24.2731,-30.8393c0,0 21.57637,-5.80877 39.06734,3.74004c17.49097,9.54881 24.27308,30.83928 24.27308,30.83928c0,0 -21.57636,5.80879 -39.06733,-3.74002z"/><path d="M305.24176,62.49193c-18.23352,8.04069 -39.24356,0.43412 -39.24356,0.43412c0,0 8.55237,-20.64312 26.78588,-28.68381c18.23352,-8.04069 39.24354,-0.43413 39.24354,-0.43413c0,0 -8.55235,20.64313 -26.78587,28.68382z"/><path d="M313.21452,31.12955c2.58301,19.7596 -10.63011,37.77891 -10.63011,37.77891c0,0 -17.40099,-14.01738 -19.984,-33.77698c-2.58301,-19.7596 10.63011,-37.77889 10.63011,-37.77889c0,0 17.401,14.01737 19.98401,33.77697z"/></g><g><path d="M467.70041,-13.88612c17.85739,-8.84462 39.18529,-2.18113 39.18529,-2.18113c0,0 -7.62468,21.00347 -25.48208,29.84809c-17.85739,8.84462 -39.18529,2.18113 -39.18529,2.18113c0,0 7.62468,-21.00347 25.48207,-29.84809z"/><path d="M469.77712,61.37355c-1.50928,-19.87048 12.66016,-37.14788 12.66016,-37.14788c0,0 16.61646,14.93904 18.12574,34.80952c1.50928,19.87048 -12.66016,37.14787 -12.66016,37.14787c0,0 -16.61646,-14.93902 -18.12573,-34.8095z"/><path d="M433.82018,59.17026c-16.68786,-10.89172 -21.77861,-32.64868 -21.77861,-32.64868c0,0 21.9656,-4.098 38.65346,6.79372c16.68786,10.89172 21.77862,32.64868 21.77862,32.64868c0,0 -21.9656,4.09801 -38.65346,-6.79372z"/><path d="M426.39954,3.38939c-19.50765,4.07009 -38.47468,-7.74231 -38.47468,-7.74231c0,0 12.66113,-18.41134 32.16878,-22.48143c19.50765,-4.07009 38.47467,7.74232 38.47467,7.74232c0,0 -12.66112,18.41133 -32.16877,22.48143z"/><path d="M428.92199,30.8528c-9.6424,17.43955 -30.96891,24.1075 -30.96891,24.1075c0,0 -5.69308,-21.60718 3.94931,-39.04673c9.6424,-17.43955 30.9689,-24.1075 30.9689,-24.1075c0,0 5.69309,21.60718 -3.9493,39.04673z"/><path d="M464.33168,74.53973c7.94288,18.27634 0.22384,39.24531 0.22384,39.24531c0,0 -20.597,-8.66284 -28.53988,-26.93918c-7.94288,-18.27634 -0.22386,-39.2453 -0.22386,-39.2453c0,0 20.59702,8.66284 28.5399,26.93918z"/><path d="M433.01247,66.39904c19.77317,-2.47709 37.72141,10.83239 37.72141,10.83239c0,0 -14.11041,17.32564 -33.88357,19.80273c-19.77317,2.4771 -37.7214,-10.83238 -37.7214,-10.83238c0,0 14.1104,-17.32564 33.88356,-19.80274z"/></g><g><path d="M520.16818,87.82072c-18.64829,7.02532 -39.20799,-1.72567 -39.20799,-1.72567c0,0 9.67517,-20.14132 28.32346,-27.16664c18.64829,-7.02533 39.20799,1.72568 39.20799,1.72568c0,0 -9.67516,20.14131 -28.32345,27.16664z"/><path d="M525.58444,12.72748c-0.47382,19.92208 -16.29086,35.70508 -16.29086,35.70508c0,0 -15.04881,-16.5171 -14.57499,-36.43919c0.47382,-19.92208 16.29085,-35.70507 16.29085,-35.70507c0,0 15.04882,16.51709 14.575,36.43917z"/><path d="M561.14415,18.49487c15.52225,12.49694 18.42461,34.65225 18.42461,34.65225c0,0 -22.26421,1.89377 -37.78647,-10.60317c-15.52225,-12.49694 -18.42461,-34.65224 -18.42461,-34.65224c0,0 22.26421,-1.89377 37.78646,10.60317z"/><path d="M562.98202,74.73715c19.81566,-2.11038 37.51426,11.52929 37.51426,11.52929c0,0 -14.42893,17.06127 -34.24459,19.17166c-19.81566,2.11038 -37.51426,-11.5293 -37.51426,-11.5293c0,0 14.42893,-17.06127 34.24459,-19.17165z"/><path d="M563.20261,47.15902c11.32854,-16.39444 33.21234,-20.90897 33.21234,-20.90897c0,0 3.51658,22.06617 -7.81196,38.46061c-11.32854,16.39445 -33.21233,20.90896 -33.21233,20.90896c0,0 -3.51659,-22.06615 7.81195,-38.4606z"/><path d="M532.31195,0.16795c-6.0864,-18.9755 3.67922,-39.07311 3.67922,-39.07311c0,0 19.63365,10.66778 25.72005,29.64328c6.0864,18.9755 -3.67922,39.07311 -3.67922,39.07311c0,0 -19.63365,-10.66777 -25.72005,-29.64327z"/><path d="M562.66659,11.38221c-19.92147,0.49887 -36.45749,-14.52915 -36.45749,-14.52915c0,0 15.76309,-15.83687 35.68456,-16.33575c19.92147,-0.49887 36.45749,14.52915 36.45749,14.52915c0,0 -15.76308,15.83688 -35.68455,16.33575z"/></g><g><path d="M540.37215,211.14335c-13.10232,15.01477 -35.35526,17.03675 -35.35526,17.03675c0,0 -1.00987,-22.32176 12.09245,-37.33653c13.10232,-15.01477 35.35524,-17.03675 35.35524,-17.03675c0,0 1.00988,22.32177 -12.09244,37.33654z"/><path d="M509.60217,142.42989c9.01161,17.77372 2.54832,39.16314 2.54832,39.16314c0,0 -21.07401,-7.42748 -30.08562,-25.2012c-9.01161,-17.77372 -2.54831,-39.16312 -2.54831,-39.16312c0,0 21.07401,7.42746 30.08562,25.20118z"/><path d="M543.65655,130.6802c19.58835,3.66201 32.63102,21.80507 32.63102,21.80507c0,0 -18.71633,12.20574 -38.30468,8.54373c-19.58835,-3.66201 -32.63102,-21.80505 -32.63102,-21.80505c0,0 18.71633,-12.20576 38.30468,-8.54374z"/><path d="M571.89468,179.35443c16.45687,-11.23767 38.50322,-7.59908 38.50322,-7.59908c0,0 -4.63551,21.85849 -21.09238,33.09616c-16.45687,11.23767 -38.50323,7.59907 -38.50323,7.59907c0,0 4.63552,-21.85848 21.09239,-33.09616z"/><path d="M559.03643,154.95632c2.21997,-19.80367 19.36082,-34.13801 19.36082,-34.13801c0,0 13.54156,17.7738 11.32159,37.57747c-2.21997,19.80367 -19.3608,34.13801 -19.3608,34.13801c0,0 -13.54157,-17.7738 -11.3216,-37.57747z"/><path d="M509.58412,128.18205c-14.34253,-13.83495 -15.25204,-36.16103 -15.25204,-36.16103c0,0 22.34436,0.1048 36.68689,13.93975c14.34253,13.83495 15.25203,36.16103 15.25203,36.16103c0,0 -22.34435,-0.10479 -36.68688,-13.93974z"/><path d="M541.63129,123.69407c-17.3128,9.86817 -38.99213,4.45632 -38.99213,4.45632c0,0 6.39028,-21.41135 23.70308,-31.27952c17.3128,-9.86817 38.99213,-4.45632 38.99213,-4.45632c0,0 -6.39027,21.41135 -23.70308,31.27952z"/></g><g><path d="M596.29097,278.44651c15.41473,12.62934 18.12737,34.80867 18.12737,34.80867c0,0 -22.2796,1.70315 -37.69434,-10.92619c-15.41473,-12.62934 -18.12737,-34.80866 -18.12737,-34.80866c0,0 22.2796,-1.70316 37.69434,10.92618z"/><path d="M528.56704,311.33723c17.48505,-9.55966 39.06502,-3.76427 39.06502,-3.76427c0,0 -6.76891,21.29468 -24.25395,30.85435c-17.48505,9.55966 -39.06501,3.76427 -39.06501,3.76427c0,0 6.7689,-21.29468 24.25394,-30.85435z"/><path d="M515.76461,277.66449c3.05144,-19.6927 20.78036,-33.29297 20.78036,-33.29297c0,0 12.78155,18.32794 9.73011,38.02064c-3.05144,19.6927 -20.78035,33.29296 -20.78035,33.29296c0,0 -12.78156,-18.32794 -9.73013,-38.02064z"/><path d="M563.53768,247.92722c-11.74373,-16.09965 -8.79209,-38.24845 -8.79209,-38.24845c0,0 21.99199,3.95391 33.73573,20.05356c11.74373,16.09965 8.79208,38.24845 8.79208,38.24845c0,0 -21.99198,-3.95391 -33.73572,-20.05356z"/><path d="M539.55101,261.53754c-19.86311,-1.6034 -34.72326,-18.29045 -34.72326,-18.29045c0,0 17.34434,-14.08742 37.20745,-12.48402c19.86311,1.6034 34.72325,18.29044 34.72325,18.29044c0,0 -17.34433,14.08744 -37.20744,12.48403z"/><path d="M514.32665,311.79811c-13.3825,14.76559 -35.66953,16.36855 -35.66953,16.36855c0,0 -0.58972,-22.33682 12.79279,-37.10241c13.3825,-14.76559 35.66953,-16.36855 35.66953,-16.36855c0,0 0.58972,22.33682 -12.79278,37.10241z"/><path d="M508.84481,279.9059c10.40149,16.99773 5.66604,38.83479 5.66604,38.83479c0,0 -21.59961,-5.72173 -32.0011,-22.71946c-10.40149,-16.99773 -5.66604,-38.83479 -5.66604,-38.83479c0,0 21.59961,5.72173 32.0011,22.71946z"/></g><g><path d="M378.04212,330.39882c-12.7513,-15.31399 -11.2251,-37.60642 -11.2251,-37.60642c0,0 22.20018,2.53647 34.95148,17.85046c12.7513,15.31399 11.22509,37.6064 11.22509,37.6064c0,0 -22.20017,-2.53646 -34.95147,-17.85045z"/><path d="M450.76012,310.89438c-18.97616,6.08436 -39.07273,-3.68347 -39.07273,-3.68347c0,0 10.66991,-19.63248 29.64607,-25.71684c18.97616,-6.08436 39.0727,3.68347 39.0727,3.68347c0,0 -10.66989,19.63248 -29.64605,25.71684z"/><path d="M456.97074,346.37936c-6.71673,18.76164 -26.69571,28.76776 -26.69571,28.76776c0,0 -9.08898,-20.41254 -2.37225,-39.17418c6.71673,-18.76164 26.6957,-28.76776 26.6957,-28.76776c0,0 9.08899,20.41254 2.37226,39.17418z"/><path d="M404.44008,366.55614c8.49081,18.02832 1.40807,39.22068 1.40807,39.22068c0,0 -20.84904,-8.03732 -29.33984,-26.06564c-8.49081,-18.02832 -1.40808,-39.22068 -1.40808,-39.22068c0,0 20.84904,8.03732 29.33985,26.06563z"/><path d="M430.56604,357.72233c19.20254,5.32696 30.64267,24.52083 30.64267,24.52083c0,0 -19.69335,10.55716 -38.89589,5.23021c-19.20254,-5.32696 -30.64267,-24.52082 -30.64267,-24.52082c0,0 19.69335,-10.55717 38.89589,-5.23021z"/><path d="M464.83115,313.13202c15.93097,-11.97156 38.11951,-9.33531 38.11951,-9.33531c0,0 -3.64066,22.04602 -19.57163,34.01758c-15.93097,11.97156 -38.1195,9.33531 -38.1195,9.33531c0,0 3.64064,-22.04602 19.57161,-34.01758z"/><path d="M464.18937,345.48556c-7.00307,-18.65665 1.77245,-39.2059 1.77245,-39.2059c0,0 20.12976,9.69919 27.13283,28.35584c7.00307,18.65666 -1.77244,39.2059 -1.77244,39.2059c0,0 -20.12978,-9.69918 -27.13285,-28.35584z"/></g><g><path d="M317.56579,365.79169c-14.98552,13.13576 -37.30949,12.17566 -37.30949,12.17566c0,0 1.97237,-22.25738 16.95789,-35.39314c14.98552,-13.13576 37.30948,-12.17566 37.30948,-12.17566c0,0 -1.97235,22.25738 -16.95788,35.39314z"/><path d="M296.22256,293.59199c6.56387,18.81567 -2.69089,39.15359 -2.69089,39.15359c0,0 -19.8969,-10.16833 -26.46077,-28.98401c-6.56387,-18.81567 2.69088,-39.15359 2.69088,-39.15359c0,0 19.89691,10.16832 26.46078,28.984z"/><path d="M331.53853,286.48299c18.92602,6.23853 29.43585,25.9572 29.43585,25.9572c0,0 -20.17535,9.60398 -39.10138,3.36545c-18.92602,-6.23853 -29.43585,-25.95718 -29.43585,-25.95718c0,0 20.17536,-9.604 39.10138,-3.36547z"/><path d="M353.04167,338.4848c17.80708,-8.94551 39.17233,-2.40278 39.17233,-2.40278c0,0 -7.50573,21.04626 -25.31281,29.99176c-17.80708,8.94551 -39.17232,2.40278 -39.17232,2.40278c0,0 7.50573,-21.04625 25.31281,-29.99176z"/><path d="M343.54781,312.59139c4.83802,-19.33151 23.73544,-31.25498 23.73544,-31.25498c0,0 11.05344,19.41915 6.21542,38.75065c-4.83802,19.33151 -23.73543,31.25498 -23.73543,31.25498c0,0 -11.05345,-19.41915 -6.21543,-38.75065z"/><path d="M298.10245,279.4687c-12.37192,-15.62209 -10.29951,-37.87038 -10.29951,-37.87038c0,0 22.13131,3.0801 34.50323,18.70219c12.37192,15.62209 10.29951,37.87037 10.29951,37.87037c0,0 -22.1313,-3.08009 -34.50322,-18.70218z"/><path d="M330.46186,279.28936c-18.47296,7.4742 -39.23826,-0.7771 -39.23826,-0.7771c0,0 9.18531,-20.36938 27.65827,-27.84358c18.47296,-7.4742 39.23825,0.77711 39.23825,0.77711c0,0 -9.1853,20.36938 -27.65826,27.84357z"/></g></g><g fill="#306834"><g><path d="M200.24634,273.35726c7.80202,18.33691 -0.07815,39.24587 -0.07815,39.24587c0,0 -20.52974,-8.82108 -28.33176,-27.158c-7.80202,-18.33691 0.07816,-39.24586 0.07816,-39.24586c0,0 20.52973,8.82107 28.33175,27.15799z"/><path d="M124.99192,271.09829c19.92442,-0.36295 36.35752,14.77754 36.35752,14.77754c0,0 -15.87077,15.72896 -35.79518,16.09191c-19.92441,0.36295 -36.35751,-14.77754 -36.35751,-14.77754c0,0 15.87076,-15.72896 35.79518,-16.09191z"/><path d="M129.26137,235.32781c11.83427,-16.03322 33.84821,-19.86312 33.84821,-19.86312c0,0 2.82678,22.16507 -9.0075,38.19829c-11.83427,16.03322 -33.8482,19.86312 -33.8482,19.86312c0,0 -2.82679,-22.16507 9.00749,-38.19829z"/><path d="M185.37691,231.13043c-2.9404,-19.70959 9.94422,-37.9652 9.94422,-37.9652c0,0 17.65198,13.69996 20.59239,33.40955c2.9404,19.70959 -9.94422,37.96519 -9.94422,37.96519c0,0 -17.65198,-13.69995 -20.59239,-33.40954z"/><path d="M157.81384,232.0678c-16.85558,-10.63029 -22.28484,-32.30527 -22.28484,-32.30527c0,0 21.89907,-4.43985 38.75465,6.19044c16.85558,10.63029 22.28483,32.30526 22.28483,32.30526c0,0 -21.89906,4.43986 -38.75464,-6.19043z"/><path d="M112.16104,264.90399c-18.70325,6.87766 -39.19312,-2.03564 -39.19312,-2.03564c0,0 9.83412,-20.06418 28.53737,-26.94184c18.70325,-6.87766 39.19311,2.03563 39.19311,2.03563c0,0 -9.83411,20.06419 -28.53736,26.94185z"/><path d="M122.09107,234.10531c1.33477,19.88297 -12.9858,37.03531 -12.9858,37.03531c0,0 -16.48466,-15.08434 -17.81943,-34.96731c-1.33477,-19.88297 12.9858,-37.03529 12.9858,-37.03529c0,0 16.48467,15.08433 17.81944,34.9673z"/></g><g><path d="M89.91194,187.57306c19.36137,-4.71712 38.71106,6.45746 38.71106,6.45746c0,0 -12.04132,18.82254 -31.40269,23.53966c-19.36137,4.71712 -38.71104,-6.45746 -38.71104,-6.45746c0,0 12.04131,-18.82254 31.40268,-23.53966z"/><path d="M75.44863,261.45908c2.88107,-19.71836 20.49172,-33.47138 20.49172,-33.47138c0,0 12.93955,18.21675 10.05848,37.9351c-2.88107,19.71835 -20.49173,33.47138 -20.49173,33.47138c0,0 -12.93954,-18.21674 -10.05848,-37.93509z"/><path d="M40.84812,251.43109c-13.89597,-14.28342 -14.09603,-36.62714 -14.09603,-36.62714c0,0 22.32976,0.81429 36.22574,15.09771c13.89598,14.28342 14.09604,36.62712 14.09604,36.62712c0,0 -22.32976,-0.81427 -36.22574,-15.09769z"/><path d="M45.8295,195.3797c-19.92541,-0.30298 -35.84346,-15.98408 -35.84346,-15.98408c0,0 16.38745,-15.18991 36.31287,-14.88693c19.92542,0.30298 35.84346,15.98408 35.84346,15.98408c0,0 -16.38744,15.1899 -36.31286,14.88693z"/><path d="M42.27337,222.72848c-13.22915,14.90314 -35.49843,16.73638 -35.49843,16.73638c0,0 -0.82057,-22.32953 12.40858,-37.23267c13.22915,-14.90314 35.49843,-16.73638 35.49843,-16.73638c0,0 0.82058,22.32953 -12.40857,37.23267z"/><path d="M67.25077,273.11224c3.7455,19.57256 -8.38032,38.34078 -8.38032,38.34078c0,0 -18.19848,-12.9652 -21.94399,-32.53776c-3.74551,-19.57256 8.38032,-38.34077 8.38032,-38.34077c0,0 18.19848,12.96519 21.94399,32.53776z"/><path d="M38.47619,258.30724c19.83545,1.91544 34.43145,18.83402 34.43145,18.83402c0,0 -17.56364,13.81304 -37.39908,11.8976c-19.83544,-1.91544 -34.43144,-18.83401 -34.43144,-18.83401c0,0 17.56363,-13.81306 37.39908,-11.89762z"/></g><g><path d="M102.57843,111.73956c-2.86495,-19.7207 10.08944,-37.92687 10.08944,-37.92687c0,0 17.59944,13.76742 20.46439,33.48812c2.86496,19.7207 -10.08944,37.92687 -10.08944,37.92687c0,0 -17.59943,-13.76741 -20.46439,-33.48811z"/><path d="M174.76549,133.1255c-19.35752,-4.73293 -31.38346,-23.5653 -31.38346,-23.5653c0,0 19.35881,-11.15878 38.71632,-6.42585c19.35752,4.73293 31.38345,23.5653 31.38345,23.5653c0,0 -19.35879,11.15879 -38.71631,6.42585z"/><path d="M161.51025,166.62257c-15.53355,12.4829 -37.79604,10.56901 -37.79604,10.56901c0,0 2.92238,-22.15267 18.45592,-34.63557c15.53355,-12.4829 37.79604,-10.56902 37.79604,-10.56902c0,0 -2.92238,22.15268 -18.45593,34.63558z"/><path d="M106.18118,156.36271c-2.18597,19.80746 -19.30218,34.17119 -19.30218,34.17119c0,0 -13.57204,-17.75053 -11.38607,-37.55798c2.18597,-19.80746 19.30218,-34.17119 19.30218,-34.17119c0,0 13.57204,17.75052 11.38607,37.55798z"/><path d="M133.07107,162.48929c13.58525,14.57925 13.30427,36.9221 13.30427,36.9221c0,0 -22.30706,-1.29483 -35.89232,-15.87408c-13.58526,-14.57925 -13.30426,-36.92208 -13.30426,-36.92208c0,0 22.30706,1.29481 35.89231,15.87407z"/><path d="M185.59115,142.38867c19.83906,-1.87772 37.3764,11.96867 37.3764,11.96867c0,0 -14.62813,16.89081 -34.46718,18.76853c-19.83906,1.87772 -37.3764,-11.96868 -37.3764,-11.96868c0,0 14.62813,-16.8908 34.46719,-18.76852z"/><path d="M168.13128,169.63416c3.7827,-19.5654 22.00582,-32.49598 22.00582,-32.49598c0,0 12.09013,18.79124 8.30743,38.35664c-3.7827,19.5654 -22.00582,32.49597 -22.00582,32.49597c0,0 -12.09014,-18.79122 -8.30743,-38.35663z"/></g><g><path d="M239.06116,206.71043c-18.23428,8.03895 -39.24359,0.43038 -39.24359,0.43038c0,0 8.55433,-20.64232 26.78861,-28.68127c18.23428,-8.03895 39.24358,-0.43037 39.24358,-0.43037c0,0 -8.55433,20.64231 -26.7886,28.68126z"/><path d="M240.34486,131.43305c0.62108,19.91804 -14.30522,36.54594 -14.30522,36.54594c0,0 -15.93328,-15.66563 -16.55437,-35.58367c-0.62108,-19.91804 14.30521,-36.54594 14.30521,-36.54594c0,0 15.93329,15.66563 16.55437,35.58366z"/><path d="M276.16765,135.23866c16.1852,11.62554 20.30003,33.588 20.30003,33.588c0,0 -22.12659,3.11375 -38.31179,-8.51179c-16.1852,-11.62554 -20.30003,-33.58799 -20.30003,-33.58799c0,0 22.12659,-3.11375 38.31179,8.51178z"/><path d="M281.09179,191.2951c19.66983,-3.19555 38.09087,9.45147 38.09087,9.45147c0,0 -13.47009,17.828 -33.13993,21.02355c-19.66983,3.19555 -38.09087,-9.45146 -38.09087,-9.45146c0,0 13.47009,-17.82801 33.13993,-21.02356z"/><path d="M279.79735,163.74649c10.41099,-16.99191 32.01381,-22.70156 32.01381,-22.70156c0,0 4.72322,21.83971 -5.68777,38.83161c-10.41099,16.99191 -32.0138,22.70155 -32.0138,22.70155c0,0 -4.72324,-21.8397 5.68775,-38.8316z"/><path d="M246.37239,118.52298c-7.11942,-18.61257 1.52763,-39.21621 1.52763,-39.21621c0,0 20.18993,9.57332 27.30934,28.18589c7.11942,18.61257 -1.52763,39.21621 -1.52763,39.21621c0,0 -20.18993,-9.57332 -27.30935,-28.18588z"/><path d="M277.29713,128.05312c-19.864,1.59229 -37.20045,-12.50485 -37.20045,-12.50485c0,0 14.86948,-16.67874 34.73348,-18.27102c19.864,-1.59229 37.20045,12.50485 37.20045,12.50485c0,0 -14.86948,16.67874 -34.73347,18.27102z"/></g><g><path d="M314.53608,284.59565c7.94113,18.2771 0.2201,39.24534 0.2201,39.24534c0,0 -20.59618,-8.66481 -28.53732,-26.94191c-7.94113,-18.2771 -0.2201,-39.24532 -0.2201,-39.24532c0,0 20.59618,8.66479 28.53732,26.94189z"/><path d="M239.26666,282.90864c19.92108,-0.51436 36.46877,14.50082 36.46877,14.50082c0,0 -15.75079,15.84911 -35.67186,16.36347c-19.92108,0.51436 -36.46875,-14.50081 -36.46875,-14.50081c0,0 15.75077,-15.84912 35.67184,-16.36347z"/><path d="M243.26416,247.10674c11.71209,-16.12268 33.69629,-20.11978 33.69629,-20.11978c0,0 2.99514,22.14296 -8.71695,38.26564c-11.71209,16.12268 -33.69628,20.11977 -33.69628,20.11977c0,0 -2.99515,-22.14295 8.71694,-38.26563z"/><path d="M299.34617,242.48304c-3.09011,-19.68668 9.65543,-38.03968 9.65543,-38.03968c0,0 17.75558,13.56542 20.84569,33.25209c3.09011,19.68668 -9.65542,38.03967 -9.65542,38.03967c0,0 -17.75558,-13.56541 -20.84569,-33.25209z"/><path d="M271.79103,243.62985c-16.93588,-10.50189 -22.5297,-32.135 -22.5297,-32.135c0,0 21.86469,-4.60614 38.80057,5.89575c16.93588,10.50189 22.5297,32.13498 22.5297,32.13498c0,0 -21.86469,4.60616 -38.80057,-5.89574z"/><path d="M226.38907,276.81201c-18.65045,7.01959 -39.20746,-1.73773 -39.20746,-1.73773c0,0 9.68135,-20.13834 28.33181,-27.15793c18.65045,-7.01959 39.20746,1.73773 39.20746,1.73773c0,0 -9.68135,20.13834 -28.33181,27.15793z"/><path d="M236.08477,245.93877c1.48583,19.87225 -12.70398,37.13292 -12.70398,37.13292c0,0 -16.59882,-14.95863 -18.08464,-34.83088c-1.48583,-19.87225 12.70397,-37.13291 12.70397,-37.13291c0,0 16.59883,14.95862 18.08465,34.83087z"/></g><g><path d="M210.33423,331.91503c-6.08459,-18.97609 3.68295,-39.07277 3.68295,-39.07277c0,0 19.63263,10.66965 25.71722,29.64573c6.08459,18.97609 -3.68295,39.07275 -3.68295,39.07275c0,0 -19.63263,-10.66963 -25.71722,-29.64571z"/><path d="M285.06296,341.07733c-19.87351,-1.46884 -34.84633,-18.05488 -34.84633,-18.05488c0,0 17.24854,-14.20456 37.12205,-12.73572c19.87351,1.46884 34.84631,18.05487 34.84631,18.05487c0,0 -17.24852,14.20457 -37.12203,12.73573z"/><path d="M277.52567,376.30439c-13.25705,14.87832 -35.52973,16.66983 -35.52973,16.66983c0,0 -0.77873,-22.33103 12.47832,-37.20935c13.25705,-14.87832 35.52972,-16.66983 35.52972,-16.66983c0,0 0.77874,22.33104 -12.47831,37.20936z"/><path d="M221.26182,375.32923c1.11746,19.89637 -13.38967,36.89121 -13.38967,36.89121c0,0 -16.31886,-15.26355 -17.43632,-35.15992c-1.11746,-19.89637 13.38967,-36.8912 13.38967,-36.8912c0,0 16.31886,15.26353 17.43632,35.1599z"/><path d="M248.79446,376.92777c15.80781,12.1337 19.22306,34.21578 19.22306,34.21578c0,0 -22.21433,2.40941 -38.02214,-9.72429c-15.80782,-12.1337 -19.22305,-34.21576 -19.22305,-34.21576c0,0 22.21432,-2.40943 38.02213,9.72427z"/><path d="M297.27058,348.4241c19.25597,-5.13049 38.84042,5.62732 38.84042,5.62732c0,0 -11.63563,19.07599 -30.8916,24.20647c-19.25597,5.13049 -38.84042,-5.62731 -38.84042,-5.62731c0,0 11.63563,-19.07599 30.8916,-24.20648z"/><path d="M284.55335,378.18037c0.49733,-19.92151 16.33297,-35.68583 16.33297,-35.68583c0,0 15.02931,16.53484 14.53199,36.45636c-0.49733,19.92152 -16.33297,35.68583 -16.33297,35.68583c0,0 -15.02932,-16.53484 -14.53199,-36.45635z"/></g><g><path d="M86.156,345.93067c-14.34122,-13.83632 -15.24858,-36.16249 -15.24858,-36.16249c0,0 22.34435,0.10693 36.68556,13.94325c14.34122,13.83632 15.24858,36.16248 15.24858,36.16248c0,0 -22.34435,-0.10692 -36.68556,-13.94324z"/><path d="M156.32134,318.63311c-18.20186,8.11211 -39.24155,0.58794 -39.24155,0.58794c0,0 8.47138,-20.67649 26.67324,-28.78859c18.20186,-8.11211 39.24154,-0.58794 39.24154,-0.58794c0,0 -8.47136,20.67648 -26.67322,28.78859z"/><path d="M166.35447,353.23213c-4.63637,19.38086 -23.40856,31.50054 -23.40856,31.50054c0,0 -11.25514,-19.30293 -6.61876,-38.68379c4.63637,-19.38086 23.40855,-31.50054 23.40855,-31.50054c0,0 11.25515,19.30293 6.61877,38.68379z"/><path d="M116.32985,379.00246c10.4012,16.99791 5.66537,38.83488 5.66537,38.83488c0,0 -21.5995,-5.7221 -32.0007,-22.72002c-10.4012,-16.99791 -5.66537,-38.83488 -5.66537,-38.83488c0,0 21.5995,5.7221 32.0007,22.72002z"/><path d="M141.34006,367.37959c19.66799,3.20689 33.12779,21.04268 33.12779,21.04268c0,0 -18.42833,12.63638 -38.09632,9.42949c-19.66799,-3.20689 -33.12779,-21.04266 -33.12779,-21.04266c0,0 18.42832,-12.63639 38.09631,-9.42951z"/><path d="M170.55227,319.32712c14.53444,-13.6332 36.87808,-13.42581 36.87808,-13.42581c0,0 -1.22134,22.3112 -15.75577,35.94441c-14.53444,13.6332 -36.87807,13.42582 -36.87807,13.42582c0,0 1.22133,-22.31121 15.75576,-35.94441z"/><path d="M173.43308,351.55854c-8.99063,-17.78433 -2.5021,-39.16611 -2.5021,-39.16611c0,0 21.06524,7.45234 30.05587,25.23667c8.99063,17.78433 2.50211,39.1661 2.50211,39.1661c0,0 -21.06524,-7.45233 -30.05587,-25.23666z"/></g><g><path d="M16.14238,398.41612c-13.3839,14.76432 -35.67109,16.36514 -35.67109,16.36514c0,0 -0.58758,-22.33688 12.79633,-37.1012c13.3839,-14.76432 35.67108,-16.36514 35.67108,-16.36514c0,0 0.5876,22.33688 -12.7963,37.1012z"/><path d="M-13.32273,329.13308c8.67391,17.94095 1.80729,39.20433 1.80729,39.20433c0,0 -20.92979,-7.82466 -29.60369,-25.7656c-8.6739,-17.94094 -1.80729,-39.20432 -1.80729,-39.20432c0,0 20.92979,7.82464 29.60369,25.76559z"/><path d="M20.94775,318.02946c19.5156,4.03177 32.21286,22.41822 32.21286,22.41822c0,0 -18.9438,11.84963 -38.45939,7.81786c-19.5156,-4.03177 -32.21286,-22.4182 -32.21286,-22.4182c0,0 18.9438,-11.84965 38.4594,-7.81788z"/><path d="M48.26039,367.22897c16.66644,-10.92447 38.64004,-6.86962 38.64004,-6.86962c0,0 -5.04802,21.76691 -21.71446,32.69138c-16.66643,10.92447 -38.64003,6.86962 -38.64003,6.86962c0,0 5.04802,-21.76691 21.71446,-32.69137z"/><path d="M35.86582,342.59208c2.59406,-19.75815 20.0029,-33.7658 20.0029,-33.7658c0,0 13.20304,18.0267 10.60898,37.78485c-2.59406,19.75815 -20.00289,33.76578 -20.00289,33.76578c0,0 -13.20304,-18.02668 -10.60898,-37.78484z"/><path d="M-13.07136,314.88746c-14.07834,-14.1037 -14.5655,-36.44299 -14.5655,-36.44299c0,0 22.33838,0.52731 36.41673,14.63101c14.07834,14.1037 14.56551,36.44299 14.56551,36.44299c0,0 -22.33839,-0.52731 -36.41673,-14.631z"/><path d="M19.05496,311.00629c-17.4963,9.53902 -39.06942,3.71819 -39.06942,3.71819c0,0 6.79403,-21.28669 24.29034,-30.82571c17.49631,-9.53902 39.06942,-3.71818 39.06942,-3.71818c0,0 -6.79402,21.28668 -24.29033,30.8257z"/></g><g><path d="M-24.83796,177.84364c15.93211,-11.97005 38.12041,-9.33167 38.12041,-9.33167c0,0 -3.64276,22.04567 -19.57487,34.01572c-15.93211,11.97005 -38.12039,9.33167 -38.12039,9.33167c0,0 3.64275,-22.04567 19.57486,-34.01572z"/><path d="M-8.99201,251.44552c-5.1284,-19.25652 5.63154,-38.83981 5.63154,-38.83981c0,0 19.07473,11.63771 24.20314,30.89423c5.12841,19.25652 -5.63154,38.8398 -5.63154,38.8398c0,0 -19.07473,-11.63769 -24.20314,-30.89421z"/><path d="M-44.74302,255.875c-18.40253,-7.64596 -27.39769,-28.10003 -27.39769,-28.10003c0,0 20.84126,-8.05749 39.24379,-0.41153c18.40253,7.64596 27.39769,28.10001 27.39769,28.10001c0,0 -20.84126,8.05751 -39.24379,0.41155z"/><path d="M-62.26934,202.40164c-18.43012,7.57922 -39.24205,-0.55374 -39.24205,-0.55374c0,0 9.06922,-20.42133 27.49934,-28.00055c18.43012,-7.57922 39.24204,0.55375 39.24204,0.55375c0,0 -9.06921,20.42132 -27.49933,28.00054z"/><path d="M-54.75223,228.93643c-6.27996,18.91233 -26.02157,29.37895 -26.02157,29.37895c0,0 -9.55979,-20.19634 -3.27983,-39.10866c6.27996,-18.91233 26.02156,-29.37895 26.02156,-29.37895c0,0 9.55979,20.19634 3.27983,39.10866z"/><path d="M-11.93005,265.38714c11.16045,16.50934 7.41861,38.53841 7.41861,38.53841c0,0 -21.83653,-4.73786 -32.99698,-21.24721c-11.16045,-16.50934 -7.41861,-38.5384 -7.41861,-38.5384c0,0 21.83653,4.73786 32.99698,21.2472z"/><path d="M-44.21109,263.12929c18.98333,-6.06195 39.06833,3.72956 39.06833,3.72956c0,0 -10.69305,19.61989 -29.67638,25.68184c-18.98332,6.06195 -39.06834,-3.72956 -39.06834,-3.72956c0,0 10.69306,-19.61988 29.67638,-25.68183z"/></g><g><path d="M-57.16428,115.67411c-12.37044,-15.62326 -10.2959,-37.87135 -10.2959,-37.87135c0,0 22.13101,3.08222 34.50144,18.70548c12.37044,15.62326 10.29589,37.87135 10.29589,37.87135c0,0 -22.131,-3.08221 -34.50144,-18.70547z"/><path d="M16.01184,97.96575c-19.12019,5.61536 -38.9702,-4.64423 -38.9702,-4.64423c0,0 11.14998,-19.36387 30.27017,-24.97922c19.12019,-5.61536 38.97019,4.64423 38.97019,4.64423c0,0 -11.14997,19.36387 -30.27016,24.97923z"/><path d="M21.34702,133.59286c-7.17657,18.59061 -27.39581,28.10186 -27.39581,28.10186c0,0 -8.58372,-20.6301 -1.40714,-39.22071c7.17658,-18.5906 27.39581,-28.10185 27.39581,-28.10185c0,0 8.58373,20.6301 1.40715,39.2207z"/><path d="M-31.66443,152.47033c8.04441,18.23188 0.44213,39.24347 0.44213,39.24347c0,0 -20.64486,-8.54816 -28.68927,-26.78003c-8.04441,-18.23188 -0.44213,-39.24345 -0.44213,-39.24345c0,0 20.64486,8.54814 28.68927,26.78001z"/><path d="M-5.32892,144.28237c19.06558,5.79807 30.02974,25.26775 30.02974,25.26775c0,0 -19.94728,10.06915 -39.01285,4.27108c-19.06557,-5.79807 -30.02973,-25.26774 -30.02973,-25.26774c0,0 19.94727,-10.06916 39.01285,-4.27109z"/><path d="M30.02353,100.54911c16.22086,-11.57575 38.33778,-8.39406 38.33778,-8.39406c0,0 -4.18228,21.94971 -20.40313,33.52546c-16.22085,11.57575 -38.33777,8.39407 -38.33777,8.39407c0,0 4.18227,-21.94972 20.40313,-33.52547z"/><path d="M28.58547,132.87704c-6.54167,-18.8234 2.73708,-39.15038 2.73708,-39.15038c0,0 19.88489,10.1918 26.42655,29.0152c6.54166,18.8234 -2.73708,39.15039 -2.73708,39.15039c0,0 -19.88488,-10.1918 -26.42655,-29.0152z"/></g></g><g fill="#357339"><g><path d="M54.61777,290.69029c-9.27655,-17.63688 -3.13403,-39.12062 -3.13403,-39.12062c0,0 21.1828,7.11131 30.45935,24.74819c9.27655,17.63688 3.13403,39.1206 3.13403,39.1206c0,0 -21.1828,-7.1113 -30.45935,-24.74818z"/><path d="M129.80462,286.78279c-19.82788,1.99236 -37.44495,-11.75244 -37.44495,-11.75244c0,0 14.53025,-16.97508 34.35812,-18.96744c19.82787,-1.99236 37.44496,11.75243 37.44496,11.75243c0,0 -14.53025,16.97508 -34.35812,18.96744z"/><path d="M128.47698,322.78269c-10.4824,16.94796 -32.10905,22.56666 -32.10905,22.56666c0,0 -4.6313,-21.85937 5.8511,-38.80733c10.4824,-16.94796 32.10904,-22.56666 32.10904,-22.56666c0,0 4.63131,21.85938 -5.85109,38.80734z"/><path d="M72.8932,331.55853c4.54359,19.40283 -6.80376,38.6517 -6.80376,38.6517c0,0 -18.71399,-12.20935 -23.25758,-31.61218c-4.54359,-19.40283 6.80376,-38.65168 6.80376,-38.65168c0,0 18.71399,12.20934 23.25758,31.61217z"/><path d="M100.2871,328.36852c17.66904,9.21515 24.85397,30.37309 24.85397,30.37309c0,0 -21.46224,6.21719 -39.13127,-2.99796c-17.66903,-9.21515 -24.85396,-30.37309 -24.85396,-30.37309c0,0 21.46223,-6.2172 39.13127,2.99795z"/><path d="M143.09941,291.90623c18.07764,-8.38527 39.22825,-1.17879 39.22825,-1.17879c0,0 -8.15907,20.80171 -26.2367,29.18698c-18.07763,8.38527 -39.22824,1.17879 -39.22824,1.17879c0,0 8.15906,-20.80171 26.23669,-29.18698z"/><path d="M135.72328,323.41427c-2.95753,-19.70702 9.91125,-37.97384 9.91125,-37.97384c0,0 17.66387,13.68462 20.6214,33.39164c2.95753,19.70702 -9.91123,37.97383 -9.91123,37.97383c0,0 -17.66389,-13.68461 -20.62142,-33.39164z"/></g><g><path d="M171.6027,367.15686c-18.91037,6.28584 -39.10969,-3.26765 -39.10969,-3.26765c0,0 10.46048,-19.74487 29.37085,-26.03072c18.91037,-6.28584 39.10968,3.26766 39.10968,3.26766c0,0 -10.46047,19.74487 -29.37084,26.03071z"/><path d="M179.9706,292.33501c-1.25763,19.888 -17.68366,35.03617 -17.68366,35.03617c0,0 -14.38701,-17.09665 -13.12938,-36.98465c1.25763,-19.888 17.68367,-35.03616 17.68367,-35.03616c0,0 14.387,17.09664 13.12937,36.98464z"/><path d="M215.27573,299.49763c15.01833,13.09824 17.04634,35.35062 17.04634,35.35062c0,0 -22.32148,1.01592 -37.33981,-12.08231c-15.01833,-13.09824 -17.04635,-35.35062 -17.04635,-35.35062c0,0 22.3215,-1.01593 37.33982,12.08231z"/><path d="M214.89835,355.76866c19.88337,-1.32876 37.03137,12.99701 37.03137,12.99701c0,0 -15.08933,16.4801 -34.97269,17.80886c-19.88337,1.32876 -37.03137,-12.997 -37.03137,-12.997c0,0 15.08932,-16.48011 34.97269,-17.80886z"/><path d="M216.20432,328.2206c11.96508,-15.93583 34.00962,-19.58546 34.00962,-19.58546c0,0 2.64529,22.18748 -9.31979,38.1233c-11.96508,15.93583 -34.00962,19.58546 -34.00962,19.58546c0,0 -2.64529,-22.18747 9.31979,-38.1233z"/><path d="M187.18726,280.05002c-5.33477,-19.20036 5.21438,-38.89801 5.21438,-38.89801c0,0 19.19852,11.43234 24.53329,30.6327c5.33477,19.20036 -5.21437,38.898 -5.21437,38.898c0,0 -19.19853,-11.43232 -24.5333,-30.63269z"/><path d="M217.07696,292.45042c-19.92567,-0.28566 -35.85734,-15.95295 -35.85734,-15.95295c0,0 16.37425,-15.20412 36.29992,-14.91845c19.92567,0.28566 35.85733,15.95294 35.85733,15.95294c0,0 -16.37424,15.20414 -36.2999,14.91847z"/></g><g><path d="M165.18498,443.77261c4.46931,19.42007 -6.95164,38.62538 -6.95164,38.62538c0,0 -18.66712,-12.28088 -23.13644,-31.70096c-4.46931,-19.42007 6.95164,-38.62536 6.95164,-38.62536c0,0 18.66712,12.28087 23.13643,31.70094z"/><path d="M91.48982,428.36626c19.67993,3.13282 33.2068,20.9178 33.2068,20.9178c0,0 -18.38062,12.70568 -38.06055,9.57286c-19.67993,-3.13282 -33.20677,-20.9178 -33.20677,-20.9178c0,0 18.38059,-12.70569 38.06052,-9.57287z"/><path d="M101.95917,393.89673c14.45983,-13.7123 36.80427,-13.6268 36.80427,-13.6268c0,0 -1.09958,22.31752 -15.55941,36.02982c-14.45983,13.7123 -36.80427,13.62682 -36.80427,13.62682c0,0 1.09958,-22.31754 15.5594,-36.02984z"/><path d="M157.94232,399.594c0.55758,-19.91992 16.44083,-35.63626 16.44083,-35.63626c0,0 14.97923,16.58023 14.42165,36.50014c-0.55758,19.91992 -16.44083,35.63626 -16.44083,35.63626c0,0 -14.97923,-16.58022 -14.42165,-36.50014z"/><path d="M130.64122,395.68866c-14.73286,-13.41852 -16.28137,-35.70941 -16.28137,-35.70941c0,0 22.3382,-0.53514 37.07106,12.88338c14.73286,13.41852 16.28136,35.7094 16.28136,35.7094c0,0 -22.3382,0.53515 -37.07105,-12.88337z"/><path d="M79.94238,420.02014c-19.61883,3.49507 -38.23055,-8.86961 -38.23055,-8.86961c0,0 13.19671,-18.03132 32.81554,-21.52639c19.61883,-3.49507 38.23054,8.86961 38.23054,8.86961c0,0 -13.19669,18.03132 -32.81552,21.52639z"/><path d="M95.11388,391.43711c-2.16876,19.80935 -19.27249,34.18795 -19.27249,34.18795c0,0 -13.58745,-17.73874 -11.41869,-37.54808c2.16876,-19.80935 19.27248,-34.18793 19.27248,-34.18793c0,0 13.58746,17.73872 11.4187,37.54806z"/></g><g><path d="M21.38759,360.29019c17.5152,-9.5043 39.07672,-3.64067 39.07672,-3.64067c0,0 -6.83625,21.27315 -24.35145,30.77745c-17.5152,9.5043 -39.07671,3.64067 -39.07671,3.64067c0,0 6.83625,-21.27315 24.35145,-30.77745z"/><path d="M26.26897,435.42009c-2.24911,-19.80039 11.26628,-37.5941 11.26628,-37.5941c0,0 17.16191,14.3091 19.41102,34.10949c2.24911,19.80039 -11.26627,37.59408 -11.26627,37.59408c0,0 -17.16192,-14.30908 -19.41103,-34.10946z"/><path d="M-9.74512,434.55902c-17.08235,-10.26193 -22.9808,-31.81395 -22.9808,-31.81395c0,0 21.79753,-4.91416 38.87989,5.34776c17.08236,10.26193 22.98081,31.81395 22.98081,31.81395c0,0 -21.79753,4.91416 -38.87989,-5.34777z"/><path d="M-19.24044,379.09362c-19.34232,4.79462 -38.7366,-6.30237 -38.7366,-6.30237c0,0 11.96584,-18.87061 31.30817,-23.66523c19.34233,-4.79462 38.7366,6.30237 38.7366,6.30237c0,0 -11.96584,18.87061 -31.30817,23.66523z"/><path d="M-15.69574,406.44387c-8.98544,17.78695 -30.04851,25.24545 -30.04851,25.24545c0,0 -6.49476,-21.37989 2.49068,-39.16684c8.98544,-17.78695 30.0485,-25.24543 30.0485,-25.24543c0,0 6.49478,21.37988 -2.49066,39.16683z"/><path d="M21.31823,448.78015c8.6188,17.96747 1.68699,39.20969 1.68699,39.20969c0,0 -20.90569,-7.88886 -29.52449,-25.85633c-8.6188,-17.96747 -1.68699,-39.20967 -1.68699,-39.20967c0,0 20.9057,7.88884 29.5245,25.85631z"/><path d="M-10.28274,441.81289c19.66705,-3.21263 38.09907,9.41838 38.09907,9.41838c0,0 -13.4546,17.83971 -33.12165,21.05234c-19.66705,3.21263 -38.09906,-9.41838 -38.09906,-9.41838c0,0 13.4546,-17.83971 33.12164,-21.05235z"/></g><g><path d="M-60.20832,288.84316c-9.41031,-17.56588 -3.43124,-39.09567 -3.43124,-39.09567c0,0 21.23622,6.95013 30.64654,24.51601c9.41031,17.56588 3.43124,39.09566 3.43124,39.09566c0,0 -21.23622,-6.95012 -30.64654,-24.516z"/><path d="M14.94666,284.3644c-19.81215,2.14299 -37.53319,-11.46753 -37.53319,-11.46753c0,0 14.40085,-17.08501 34.213,-19.22799c19.81216,-2.14299 37.53318,11.46754 37.53318,11.46754c0,0 -14.40083,17.085 -34.21299,19.22799z"/><path d="M13.89263,320.37335c-10.35331,17.02713 -31.93662,22.81001 -31.93662,22.81001c0,0 -4.7973,-21.82354 5.55602,-38.85067c10.35331,-17.02713 31.93663,-22.81001 31.93663,-22.81001c0,0 4.7973,21.82354 -5.55601,38.85067z"/><path d="M-41.62285,329.57135c4.69091,19.36774 -6.50984,38.70228 -6.50984,38.70228c0,0 -18.80622,-12.06677 -23.49713,-31.43451c-4.69091,-19.36774 6.50983,-38.70227 6.50983,-38.70227c0,0 18.80623,12.06677 23.49714,31.43451z"/><path d="M-14.25399,326.17325c17.73855,9.08062 25.08408,30.18334 25.08408,30.18334c0,0 -21.41438,6.38012 -39.15293,-2.7005c-17.73855,-9.08062 -25.08407,-30.18333 -25.08407,-30.18333c0,0 21.41438,-6.38013 39.15292,2.70049z"/><path d="M28.28,289.38666c18.0134,-8.52241 39.21815,-1.47687 39.21815,-1.47687c0,0 -8.00075,20.86311 -26.01414,29.38552c-18.01339,8.52241 -39.21815,1.47688 -39.21815,1.47688c0,0 8.00074,-20.86311 26.01414,-29.38552z"/><path d="M21.14351,320.94983c-3.10721,-19.68399 9.62239,-38.04805 9.62239,-38.04805c0,0 17.76736,13.54999 20.87457,33.23398c3.10721,19.68399 -9.62238,38.04805 -9.62238,38.04805c0,0 -17.76737,-13.54998 -20.87457,-33.23397z"/></g><g><path d="M39.77131,233.15455c7.6172,18.41446 -0.47285,39.2431 -0.47285,39.2431c0,0 -20.43998,-9.0271 -28.05718,-27.44155c-7.6172,-18.41446 0.47284,-39.2431 0.47284,-39.2431c0,0 20.43999,9.02709 28.05719,27.44155z"/><path d="M-35.45658,230.13884c19.92706,-0.16255 36.20706,15.14246 36.20706,15.14246c0,0 -16.02816,15.56854 -35.95522,15.73109c-19.92705,0.16255 -36.20704,-15.14244 -36.20704,-15.14244c0,0 16.02814,-15.56855 35.9552,-15.7311z"/><path d="M-30.82759,194.4131c11.99493,-15.91338 34.04627,-19.52168 34.04627,-19.52168c0,0 2.60372,22.19238 -9.39121,38.10576c-11.99493,15.91338 -34.04626,19.52169 -34.04626,19.52169c0,0 -2.60372,-22.19239 9.39121,-38.10577z"/><path d="M25.32733,190.78032c-2.74204,-19.73817 10.32555,-37.86328 10.32555,-37.86328c0,0 17.5133,13.8768 20.25534,33.61497c2.74204,19.73817 -10.32555,37.86327 -10.32555,37.86327c0,0 -17.51329,-13.87679 -20.25533,-33.61496z"/><path d="M-2.24378,191.44043c-16.74781,-10.79927 -21.95881,-32.52777 -21.95881,-32.52777c0,0 21.94263,-4.21937 38.69044,6.5799c16.74782,10.79927 21.95881,32.52775 21.95881,32.52775c0,0 -21.94262,4.21939 -38.69043,-6.57988z"/><path d="M-48.22452,223.81581c-18.77148,6.6892 -39.17067,-2.42971 -39.17067,-2.42971c0,0 10.03542,-19.96428 28.8069,-26.65347c18.77148,-6.6892 39.17066,2.42971 39.17066,2.42971c0,0 -10.03541,19.96427 -28.80689,26.65347z"/><path d="M-37.98524,193.11856c1.13473,19.89538 -13.35762,36.90283 -13.35762,36.90283c0,0 -16.33213,-15.24938 -17.46685,-35.14476c-1.13473,-19.89538 13.35762,-36.90282 13.35762,-36.90282c0,0 16.33212,15.24937 17.46685,35.14475z"/></g><g><path d="M162.38592,209.02308c15.42548,12.61621 18.15699,34.79323 18.15699,34.79323c0,0 -22.27813,1.72211 -37.70361,-10.89409c-15.42548,-12.61621 -18.157,-34.79322 -18.157,-34.79322c0,0 22.27814,-1.72213 37.70362,10.89408z"/><path d="M94.69001,241.97145c17.47691,-9.57454 39.06179,-3.79753 39.06179,-3.79753c0,0 -6.75077,21.30044 -24.22768,30.87498c-17.47691,9.57455 -39.06178,3.79753 -39.06178,3.79753c0,0 6.75076,-21.30043 24.22767,-30.87498z"/><path d="M81.85893,208.30962c3.03467,-19.69529 20.75201,-33.31064 20.75201,-33.31064c0,0 12.79715,18.31705 9.76248,38.01235c-3.03467,19.69529 -20.752,33.31063 -20.752,33.31063c0,0 -12.79716,-18.31704 -9.76248,-38.01234z"/><path d="M129.60667,178.53168c-11.75742,-16.08965 -8.82465,-38.24094 -8.82465,-38.24094c0,0 21.99536,3.93518 33.75279,20.02483c11.75743,16.08965 8.82464,38.24095 8.82464,38.24095c0,0 -21.99534,-3.93519 -33.75277,-20.02484z"/><path d="M105.63158,192.16243c-19.86446,-1.58649 -34.73882,-18.26089 -34.73882,-18.26089c0,0 17.33235,-14.10218 37.19681,-12.51569c19.86446,1.58649 34.73881,18.26086 34.73881,18.26086c0,0 -17.33234,14.1022 -37.1968,12.51571z"/><path d="M80.45002,242.44445c-13.36992,14.77698 -35.65559,16.39892 -35.65559,16.39892c0,0 -0.60872,-22.33632 12.7612,-37.1133c13.36993,-14.77698 35.65558,-16.3989 35.65558,-16.3989c0,0 0.60873,22.3363 -12.76119,37.11328z"/><path d="M74.94103,210.55692c10.41595,16.98887 5.6991,38.82995 5.6991,38.82995c0,0 -21.60447,-5.70334 -32.02043,-22.6922c-10.41596,-16.98887 -5.6991,-38.82995 -5.6991,-38.82995c0,0 21.60448,5.70333 32.02043,22.6922z"/></g><g><path d="M227.86923,150.98373c12.13069,-15.81014 34.2121,-19.2296 34.2121,-19.2296c0,0 2.41368,22.21386 -9.71701,38.024c-12.13069,15.81014 -34.21208,19.22959 -34.21208,19.22959c0,0 -2.4137,-22.21385 9.71699,-38.02399z"/><path d="M262.90566,217.62291c-10.1131,-17.17088 -5.00974,-38.9249 -5.00974,-38.9249c0,0 21.49997,6.08549 31.61307,23.25637c10.11311,17.17088 5.00973,38.92489 5.00973,38.92489c0,0 -21.49996,-6.08548 -31.61307,-23.25636z"/><path d="M229.65889,231.494c-19.78009,-2.42108 -33.93953,-19.70669 -33.93953,-19.70669c0,0 17.91047,-13.36025 37.69056,-10.93918c19.78009,2.42108 33.93952,19.70667 33.93952,19.70667c0,0 -17.91046,13.36027 -37.69056,10.93919z"/><path d="M198.41134,184.69482c-15.71646,12.25182 -37.9482,10.00891 -37.9482,10.00891c0,0 3.24966,-22.10702 18.96613,-34.35884c15.71646,-12.25182 37.9482,-10.0089 37.9482,-10.0089c0,0 -3.24965,22.10702 -18.96612,34.35884z"/><path d="M212.78064,208.23468c-0.96833,19.90418 -17.17237,35.28958 -17.17237,35.28958c0,0 -14.63406,-16.88567 -13.66573,-36.78984c0.96833,-19.90418 17.17237,-35.28958 17.17237,-35.28958c0,0 14.63407,16.88566 13.66573,36.78984z"/><path d="M263.82101,231.84131c15.18538,12.9042 17.49917,35.12869 17.49917,35.12869c0,0 -22.3066,1.30265 -37.49198,-11.60156c-15.18537,-12.9042 -17.49916,-35.12868 -17.49916,-35.12868c0,0 22.3066,-1.30266 37.49197,11.60154z"/><path d="M232.12011,238.3387c16.65694,-10.93894 38.63406,-6.90318 38.63406,-6.90318c0,0 -5.02912,21.7713 -21.68605,32.71024c-16.65694,10.93894 -38.63406,6.90318 -38.63406,6.90318c0,0 5.02911,-21.7713 21.68605,-32.71024z"/></g><g><path d="M286.76392,367.46242c-14.89902,13.23379 -37.22881,12.42017 -37.22881,12.42017c0,0 1.82631,-22.26985 16.72533,-35.50364c14.89902,-13.23379 37.2288,-12.42017 37.2288,-12.42017c0,0 -1.8263,22.26986 -16.72532,35.50364z"/><path d="M264.94748,295.40429c6.68718,18.7722 -2.43397,39.17041 -2.43397,39.17041c0,0 -19.96316,-10.03759 -26.65034,-28.80979c-6.68718,-18.7722 2.43396,-39.17039 2.43396,-39.17039c0,0 19.96317,10.03757 26.65035,28.80977z"/><path d="M300.21606,288.06377c18.96654,6.11424 29.60551,25.76352 29.60551,25.76352c0,0 -20.11192,9.73614 -39.07846,3.6219c-18.96654,-6.11424 -29.6055,-25.76351 -29.6055,-25.76351c0,0 20.11191,-9.73615 39.07845,-3.62192z"/><path d="M322.05989,339.92337c17.748,-9.06214 39.15572,-2.6597 39.15572,-2.6597c0,0 -7.3675,21.09504 -25.1155,30.15717c-17.748,9.06214 -39.15571,2.65972 -39.15571,2.65972c0,0 7.36749,-21.09505 25.1155,-30.15719z"/><path d="M312.39636,314.09281c4.71109,-19.36284 23.52988,-31.41002 23.52988,-31.41002c0,0 11.18061,19.34621 6.46952,38.70905c-4.71109,19.36284 -23.52988,31.41002 -23.52988,31.41002c0,0 -11.18061,-19.3462 -6.46952,-38.70905z"/><path d="M266.73468,281.26898c-12.47414,-15.54059 -10.54774,-37.80199 -10.54774,-37.80199c0,0 22.15103,2.93486 34.62518,18.47544c12.47415,15.54059 10.54773,37.80198 10.54773,37.80198c0,0 -22.15103,-2.93484 -34.62517,-18.47543z"/><path d="M299.09222,280.87735c-18.42352,7.59522 -39.2425,-0.51967 -39.2425,-0.51967c0,0 9.05148,-20.42921 27.47501,-28.02443c18.42352,-7.59522 39.2425,0.51967 39.2425,0.51967c0,0 -9.05148,20.42921 -27.47501,28.02443z"/></g><g><path d="M324.0698,426.77778c13.60756,14.55844 13.36078,36.90169 13.36078,36.90169c0,0 -22.30902,-1.26066 -35.91658,-15.8191c-13.60756,-14.55844 -13.36077,-36.90168 -13.36077,-36.90168c0,0 22.30901,1.26065 35.91657,15.8191z"/><path d="M252.58842,450.41553c18.59649,-7.16133 39.21956,1.43931 39.21956,1.43931c0,0 -9.52782,20.21143 -28.12431,27.37277c-18.59649,7.16133 -39.21955,-1.4393 -39.21955,-1.4393c0,0 9.52781,-20.21144 28.1243,-27.37277z"/><path d="M244.35539,415.34456c5.63102,-19.11557 25.00404,-30.24968 25.00404,-30.24968c0,0 10.24331,19.8584 4.61228,38.97397c-5.63103,19.11557 -25.00403,30.24968 -25.00403,30.24968c0,0 -10.24331,-19.85841 -4.61229,-38.97398z"/><path d="M295.64406,392.19192c-9.50954,-17.51236 -3.65236,-39.07562 -3.65236,-39.07562c0,0 21.27519,6.82988 30.78473,24.34224c9.50954,17.51236 3.65236,39.07563 3.65236,39.07563c0,0 -21.27518,-6.82988 -30.78472,-24.34224z"/><path d="M270.06701,402.50774c-19.47613,-4.21828 -31.99694,-22.72534 -31.99694,-22.72534c0,0 19.0563,-11.66787 38.53244,-7.44959c19.47614,4.21828 31.99694,22.72533 31.99694,22.72533c0,0 -19.0563,11.66789 -38.53244,7.44961z"/><path d="M238.41231,448.98756c-15.21908,12.86444 -37.52218,11.5035 -37.52218,11.5035c0,0 2.37186,-22.21837 17.59094,-35.08281c15.21908,-12.86444 37.52219,-11.5035 37.52219,-11.5035c0,0 -2.37186,22.21837 -17.59094,35.08281z"/><path d="M237.1998,416.65038c8.06024,18.22489 0.4762,39.24306 0.4762,39.24306c0,0 -20.65229,-8.5302 -28.71253,-26.75509c-8.06024,-18.22489 -0.4762,-39.24306 -0.4762,-39.24306c0,0 20.65229,8.5302 28.71253,26.75509z"/></g></g></g></g></svg>