<svg version="1.1" xmlns="http://www.w3.org/2000/svg" xmlns:xlink="http://www.w3.org/1999/xlink" width="61.01341" height="51.44386" viewBox="0,0,61.01341,51.44386"><g transform="translate(-205.24913,-153.99398)"><g data-paper-data="{&quot;isPaintingLayer&quot;:true}" fill="#ffffff" fill-rule="nonzero" stroke-width="0" stroke-linecap="butt" stroke-linejoin="miter" stroke-miterlimit="10" stroke-dasharray="" stroke-dashoffset="0" style="mix-blend-mode: normal"><path d="M214.81869,179.7159c0,-4.81301 1.32192,-9.31727 3.6225,-13.16951c4.48969,-7.51783 12.7066,-12.55241 22.09942,-12.55241c14.20583,0 25.72193,11.5161 25.72193,25.72193c0,14.20583 -11.5161,25.72193 -25.72192,25.72193c-1.46364,0 -2.89871,-0.12225 -4.29559,-0.35709c-0.47379,-0.07965 -1.00235,-0.19245 -1.00235,-0.19245l1.67874,-8.75362c0,0 0.19061,0.127 0.6532,0.10217c19.1875,1.7978 22.1897,-16.85415 18.04322,-23.94766c-6.18319,-10.57778 -15.35632,-9.83077 -19.59201,-8.63269c-9.13474,2.58378 -12.24121,10.69186 -12.25649,16.88975c-0.02132,8.64701 -8.95063,3.25848 -8.95063,-0.83033z" stroke="none"/><path d="M205.24913,172.3058l5.60462,-4.70277l13.55433,16.15365l-5.60462,4.70277z" data-paper-data="{&quot;index&quot;:null}" stroke="#000000"/><path d="M230.35777,169.33056l4.70277,5.60462l-16.15365,13.55432l-4.70276,-5.60461z" data-paper-data="{&quot;index&quot;:null}" stroke="#000000"/></g></g></svg>