<svg version="1.1" xmlns="http://www.w3.org/2000/svg" xmlns:xlink="http://www.w3.org/1999/xlink" width="170.14299" height="113.66889" viewBox="0,0,170.14299,113.66889"><g transform="translate(-154.92851,-123.16556)"><g data-paper-data="{&quot;isPaintingLayer&quot;:true}" fill-rule="nonzero" stroke="none" stroke-width="0" stroke-linecap="butt" stroke-linejoin="miter" stroke-miterlimit="10" stroke-dasharray="" stroke-dashoffset="0" style="mix-blend-mode: normal"><path d="M158.41495,171.9459l2.08956,-20.1319l40.42795,-26.53498l47.31839,1.75997l19.64824,20.01255l46.40004,-7.19265l10.66518,25.7025z" fill="#969696"/><path d="M181.77151,187.88464l0.94164,-50.76227l17.88982,-11.60651l71.49968,17.74302l6.21616,-15.65501l24.70405,25.16437l22.04863,12.20021l-5.35649,42.4962z" fill="#9d9d9d"/><path d="M193.19278,236.72856l-38.26427,-53.32764l4.05731,-18.61006l57.10815,-12.43052l32.50338,-25.52471l30.54653,0.46996l40.86482,80.53188z" fill="#b3b3b3"/><path d="M157.59015,186.67874l44.74933,3.80829l51.16694,-29.84682l50.10199,50.70404l-110.20954,25.49021z" fill="#c9c9c9"/><path d="M171.78219,187.94647l19.14162,-23.81628l42.32531,8.61374l-30.73292,17.96747z" fill="#5ec46c"/><path d="M190.91319,164.11956l42.32528,8.61372l-30.73293,17.96747z" fill="#8bd394"/><path d="M290.86324,140.64848l17.17002,-3.62876l7.73982,20.99362l-12.25089,-4.9606z" fill="#5ec46c"/><path d="M308.03237,136.8912l13.29432,25.93087l-17.80536,-9.89792z" fill="#8bd394"/><path d="M267.77685,174.88422l17.01214,4.29623l2.3929,13.21176l-10.32812,-8.24753z" fill="#5ec46c"/><path d="M284.70481,179.29692l6.30922,19.4078l-14.24437,-14.56354z" fill="#8bd394"/><path d="M222.2215,147.66506l9.38955,-24.48884l11.08794,8.59026z" fill="#5ec46c"/><path d="M231.76854,123.16556l16.59995,4.24209l-14.42337,10.90562z" fill="#8bd394"/><path d="M294.01907,134.52031z" fill="#8bd394"/></g></g></svg>