<svg version="1.1" xmlns="http://www.w3.org/2000/svg" xmlns:xlink="http://www.w3.org/1999/xlink" width="158.1206" height="134.23108" viewBox="0,0,158.1206,134.23108"><g transform="translate(-160.9397,-112.88446)"><g data-paper-data="{&quot;isPaintingLayer&quot;:true}" fill-rule="nonzero" stroke="none" stroke-width="0" stroke-linecap="butt" stroke-linejoin="miter" stroke-miterlimit="10" stroke-dasharray="" stroke-dashoffset="0" style="mix-blend-mode: normal"><path d="M222.21817,202.20302l-48.79314,-27.58416l5.07939,-54.88973l44.74969,-6.79109l31.55347,16.61625l33.03993,-7.86504l19.67474,6.71249l-6.28787,62.88751z" fill="#a9a9a9"/><path d="M220.50145,227.96023l-48.79314,-27.58416l-10.76861,-57.94796l37.77656,-8.82994l14.7239,24.06762l7.53944,-22.63015l73.47891,5.45225l24.60179,32.99305l-19.54266,43.56557z" fill="#b5b5b5"/><path d="M224.57114,247.11554l-56.71714,-29.62301l5.71331,-51.83147l61.23158,18.69427l73.15132,-15.71477l-4.36285,67.56122z" fill="#c9c9c9"/><path d="M168.93831,207.24252l4.91253,-41.34725l42.49838,12.60579l-37.81735,-2.28734z" fill="#ebd15d"/><path d="M228.92531,135.5906l65.39745,4.99743l20.51006,27.47438l-32.11163,-21.62057z" fill="#ebd15d"/><path d="M183.76476,118.93429l39.52386,-6.04983l24.68326,12.67152l-24.14268,-5.69975z" fill="#ebd15d"/><path d="M170.02981,140.23748l29.51293,-6.85068l6.86384,12.47133l-6.32327,-5.49956z" fill="#ebd15d"/><path d="M246.19274,182.16311l60.98015,-12.9901l-31.70297,17.76942z" fill="#ebd15d"/></g></g></svg>