<svg version="1.1" xmlns="http://www.w3.org/2000/svg" xmlns:xlink="http://www.w3.org/1999/xlink" width="374.46549" height="278.91724" viewBox="0,0,374.46549,278.91724"><defs><linearGradient x1="414.05795" y1="52.21379" x2="414.05795" y2="77.0163" gradientUnits="userSpaceOnUse" id="color-1"><stop offset="0" stop-color="#9fe86b"/><stop offset="1" stop-color="#b6ff81"/></linearGradient><linearGradient x1="428.54547" y1="81.50269" x2="428.54547" y2="106.3052" gradientUnits="userSpaceOnUse" id="color-2"><stop offset="0" stop-color="#9fe86b"/><stop offset="1" stop-color="#b6ff81"/></linearGradient><linearGradient x1="412.38164" y1="87.82329" x2="412.38164" y2="112.62579" gradientUnits="userSpaceOnUse" id="color-3"><stop offset="0" stop-color="#9fe86b"/><stop offset="1" stop-color="#b6ff81"/></linearGradient><linearGradient x1="426.98047" y1="92.88934" x2="426.98047" y2="117.69185" gradientUnits="userSpaceOnUse" id="color-4"><stop offset="0" stop-color="#9fe86b"/><stop offset="1" stop-color="#b6ff81"/></linearGradient><linearGradient x1="214.14752" y1="189.74697" x2="214.14752" y2="214.54948" gradientUnits="userSpaceOnUse" id="color-5"><stop offset="0" stop-color="#9fe86b"/><stop offset="1" stop-color="#b6ff81"/></linearGradient><linearGradient x1="230.35519" y1="193.37973" x2="230.35519" y2="218.18224" gradientUnits="userSpaceOnUse" id="color-6"><stop offset="0" stop-color="#9fe86b"/><stop offset="1" stop-color="#b6ff81"/></linearGradient><linearGradient x1="220.32628" y1="197.94396" x2="220.32628" y2="222.74646" gradientUnits="userSpaceOnUse" id="color-7"><stop offset="0" stop-color="#9fe86b"/><stop offset="1" stop-color="#b6ff81"/></linearGradient><linearGradient x1="268.29425" y1="144.19782" x2="268.29425" y2="169.00033" gradientUnits="userSpaceOnUse" id="color-8"><stop offset="0" stop-color="#9fe86b"/><stop offset="1" stop-color="#b6ff81"/></linearGradient><linearGradient x1="268.23215" y1="155.90335" x2="268.23215" y2="180.70587" gradientUnits="userSpaceOnUse" id="color-9"><stop offset="0" stop-color="#9fe86b"/><stop offset="1" stop-color="#b6ff81"/></linearGradient><linearGradient x1="257.45808" y1="163.10677" x2="257.45808" y2="187.90928" gradientUnits="userSpaceOnUse" id="color-10"><stop offset="0" stop-color="#9fe86b"/><stop offset="1" stop-color="#b6ff81"/></linearGradient><linearGradient x1="222.46565" y1="146.77489" x2="222.46565" y2="171.57741" gradientUnits="userSpaceOnUse" id="color-11"><stop offset="0" stop-color="#9fe86b"/><stop offset="1" stop-color="#b6ff81"/></linearGradient><linearGradient x1="217.87036" y1="152.5811" x2="217.87036" y2="177.3836" gradientUnits="userSpaceOnUse" id="color-12"><stop offset="0" stop-color="#9fe86b"/><stop offset="1" stop-color="#b6ff81"/></linearGradient><linearGradient x1="322.18212" y1="157.77633" x2="322.18212" y2="182.57884" gradientUnits="userSpaceOnUse" id="color-13"><stop offset="0" stop-color="#9fe86b"/><stop offset="1" stop-color="#b6ff81"/></linearGradient><linearGradient x1="339.72191" y1="166.23798" x2="339.72191" y2="191.04049" gradientUnits="userSpaceOnUse" id="color-14"><stop offset="0" stop-color="#9fe86b"/><stop offset="1" stop-color="#b6ff81"/></linearGradient><linearGradient x1="323.19898" y1="171.30176" x2="323.19898" y2="196.10426" gradientUnits="userSpaceOnUse" id="color-15"><stop offset="0" stop-color="#9fe86b"/><stop offset="1" stop-color="#b6ff81"/></linearGradient><linearGradient x1="358.44553" y1="192.34735" x2="358.44553" y2="217.14985" gradientUnits="userSpaceOnUse" id="color-16"><stop offset="0" stop-color="#9fe86b"/><stop offset="1" stop-color="#b6ff81"/></linearGradient><linearGradient x1="323.5634" y1="245.65029" x2="323.5634" y2="270.4528" gradientUnits="userSpaceOnUse" id="color-17"><stop offset="0" stop-color="#9fe86b"/><stop offset="1" stop-color="#b6ff81"/></linearGradient><linearGradient x1="340.57709" y1="249.72607" x2="340.57709" y2="274.52858" gradientUnits="userSpaceOnUse" id="color-18"><stop offset="0" stop-color="#9fe86b"/><stop offset="1" stop-color="#b6ff81"/></linearGradient><linearGradient x1="328.68696" y1="258.61157" x2="328.68696" y2="283.41408" gradientUnits="userSpaceOnUse" id="color-19"><stop offset="0" stop-color="#9fe86b"/><stop offset="1" stop-color="#b6ff81"/></linearGradient><linearGradient x1="244.94082" y1="280.43399" x2="244.94082" y2="305.23649" gradientUnits="userSpaceOnUse" id="color-20"><stop offset="0" stop-color="#9fe86b"/><stop offset="1" stop-color="#b6ff81"/></linearGradient><linearGradient x1="255.50517" y1="285.22211" x2="255.50517" y2="310.02462" gradientUnits="userSpaceOnUse" id="color-21"><stop offset="0" stop-color="#9fe86b"/><stop offset="1" stop-color="#b6ff81"/></linearGradient><linearGradient x1="321.13826" y1="59.63432" x2="321.13826" y2="84.43683" gradientUnits="userSpaceOnUse" id="color-22"><stop offset="0" stop-color="#9fe86b"/><stop offset="1" stop-color="#b6ff81"/></linearGradient><linearGradient x1="359.86396" y1="53.27983" x2="359.86396" y2="78.08233" gradientUnits="userSpaceOnUse" id="color-23"><stop offset="0" stop-color="#9fe86b"/><stop offset="1" stop-color="#b6ff81"/></linearGradient><linearGradient x1="330.3062" y1="66.84832" x2="330.3062" y2="91.65083" gradientUnits="userSpaceOnUse" id="color-24"><stop offset="0" stop-color="#9fe86b"/><stop offset="1" stop-color="#b6ff81"/></linearGradient><linearGradient x1="417.08451" y1="185.03001" x2="417.08451" y2="209.83252" gradientUnits="userSpaceOnUse" id="color-25"><stop offset="0" stop-color="#9fe86b"/><stop offset="1" stop-color="#b6ff81"/></linearGradient><linearGradient x1="450.70151" y1="171.86389" x2="450.70151" y2="196.6664" gradientUnits="userSpaceOnUse" id="color-26"><stop offset="0" stop-color="#9fe86b"/><stop offset="1" stop-color="#b6ff81"/></linearGradient><linearGradient x1="441.36573" y1="190.96682" x2="441.36573" y2="215.76933" gradientUnits="userSpaceOnUse" id="color-27"><stop offset="0" stop-color="#9fe86b"/><stop offset="1" stop-color="#b6ff81"/></linearGradient><linearGradient x1="130.33496" y1="261.68606" x2="130.33496" y2="286.48857" gradientUnits="userSpaceOnUse" id="color-28"><stop offset="0" stop-color="#9fe86b"/><stop offset="1" stop-color="#b6ff81"/></linearGradient><linearGradient x1="162.72618" y1="251.10239" x2="162.72618" y2="275.9049" gradientUnits="userSpaceOnUse" id="color-29"><stop offset="0" stop-color="#9fe86b"/><stop offset="1" stop-color="#b6ff81"/></linearGradient><linearGradient x1="144.79185" y1="269.46517" x2="144.79185" y2="294.26768" gradientUnits="userSpaceOnUse" id="color-30"><stop offset="0" stop-color="#9fe86b"/><stop offset="1" stop-color="#b6ff81"/></linearGradient><linearGradient x1="159.33377" y1="70.53589" x2="159.33377" y2="95.30659" gradientUnits="userSpaceOnUse" id="color-31"><stop offset="0" stop-color="#9fe86b"/><stop offset="1" stop-color="#b6ff81"/></linearGradient><linearGradient x1="170.87363" y1="78.94387" x2="170.87363" y2="103.71456" gradientUnits="userSpaceOnUse" id="color-32"><stop offset="0" stop-color="#9fe86b"/><stop offset="1" stop-color="#b6ff81"/></linearGradient><linearGradient x1="130.1316" y1="90.53589" x2="130.1316" y2="115.30659" gradientUnits="userSpaceOnUse" id="color-33"><stop offset="0" stop-color="#9fe86b"/><stop offset="1" stop-color="#b6ff81"/></linearGradient><linearGradient x1="122.21556" y1="93.93956" x2="122.21556" y2="118.71026" gradientUnits="userSpaceOnUse" id="color-34"><stop offset="0" stop-color="#9fe86b"/><stop offset="1" stop-color="#b6ff81"/></linearGradient><linearGradient x1="452.27923" y1="250.35582" x2="452.27923" y2="275.12652" gradientUnits="userSpaceOnUse" id="color-35"><stop offset="0" stop-color="#9fe86b"/><stop offset="1" stop-color="#b6ff81"/></linearGradient><linearGradient x1="440.00545" y1="261.86992" x2="440.00545" y2="286.64062" gradientUnits="userSpaceOnUse" id="color-36"><stop offset="0" stop-color="#9fe86b"/><stop offset="1" stop-color="#b6ff81"/></linearGradient><linearGradient x1="452.6071" y1="275.65768" x2="452.6071" y2="300.42838" gradientUnits="userSpaceOnUse" id="color-37"><stop offset="0" stop-color="#9fe86b"/><stop offset="1" stop-color="#b6ff81"/></linearGradient><linearGradient x1="226.08387" y1="56.9973" x2="226.08387" y2="81.768" gradientUnits="userSpaceOnUse" id="color-38"><stop offset="0" stop-color="#9fe86b"/><stop offset="1" stop-color="#b6ff81"/></linearGradient><linearGradient x1="233.50864" y1="64.91793" x2="233.50864" y2="89.68863" gradientUnits="userSpaceOnUse" id="color-39"><stop offset="0" stop-color="#9fe86b"/><stop offset="1" stop-color="#b6ff81"/></linearGradient><linearGradient x1="149.33785" y1="184.96555" x2="149.33785" y2="209.76806" gradientUnits="userSpaceOnUse" id="color-40"><stop offset="0" stop-color="#9fe86b"/><stop offset="1" stop-color="#b6ff81"/></linearGradient><linearGradient x1="159.90221" y1="189.75368" x2="159.90221" y2="214.55618" gradientUnits="userSpaceOnUse" id="color-41"><stop offset="0" stop-color="#9fe86b"/><stop offset="1" stop-color="#b6ff81"/></linearGradient></defs><g transform="translate(-100.6284,-40.46975)"><g data-paper-data="{&quot;isPaintingLayer&quot;:true}" fill-rule="nonzero" stroke="none" stroke-width="0" stroke-linecap="butt" stroke-linejoin="miter" stroke-miterlimit="10" stroke-dasharray="" stroke-dashoffset="0" style="mix-blend-mode: normal"><g><path d="M387.53638,128.0856v-87.54629h87.54629v87.54629z" fill="#b6ff81"/><path d="M400.7685,74.70067l2.42843,-15.0549l2.07733,4.3817l1.14018,-10.93811l3.1067,7.35041l1.84463,-14.49748l1.96429,17.00982l2.88049,-14.751l2.75412,11.44474l3.14702,-8.94268l0.01502,13.46901l2.88179,-4.54107l4.94399,15.16605z" fill="url(#color-1)"/><path d="M415.25601,103.98957l2.42843,-15.0549l2.07733,4.3817l1.14018,-10.93811l3.1067,7.35041l1.84463,-14.49748l1.96429,17.00982l2.88049,-14.751l2.75412,11.44474l3.14702,-8.94268l0.01502,13.46902l2.88179,-4.54107l4.94399,15.16605z" fill="url(#color-2)"/><path d="M399.09218,110.31016l2.42843,-15.0549l2.07733,4.3817l1.14018,-10.93811l3.1067,7.35041l1.84463,-14.49748l1.96428,17.00982l2.88049,-14.751l2.75412,11.44473l3.14702,-8.94268l0.01502,13.46902l2.88179,-4.54107l4.94399,15.16605z" fill="url(#color-3)"/><path d="M411.08593,115.47271l4.94399,-15.16604l2.88179,4.54107l0.01502,-13.46901l3.14702,8.94268l2.75412,-11.44474l2.88049,14.751l1.96429,-17.00982l1.84463,14.49748l3.1067,-7.35041l1.14018,10.93811l2.07733,-4.3817l2.42843,15.0549z" data-paper-data="{&quot;index&quot;:null}" fill="url(#color-4)"/><path d="M441.11151,73.10997l0.09097,-1.28874l-2.10823,-4.14988l0.74007,-2.59486l0.2291,2.5797l1.5872,3.20294l0.74924,-3.32569l0.11832,0.73288l-0.56022,3.31221l0.19581,2.15319l3.09964,4.28322l-0.85018,1.33353l-3.16998,-5.45511l-2.55208,-1.32787l-0.30048,-0.36584z" fill="#8c7960"/></g><g><path d="M196.22686,223.77315v-87.54629h87.54629v87.54629z" fill="#b6ff81"/><path d="M200.85805,212.23385l2.42843,-15.0549l2.07733,4.3817l1.14018,-10.93811l3.1067,7.35041l1.84463,-14.49748l1.96428,17.00982l2.88049,-14.751l2.75412,11.44474l3.14702,-8.94268l0.01502,13.46901l2.88179,-4.54107l4.94399,15.16605z" fill="url(#color-5)"/><path d="M217.06572,215.86661l2.42843,-15.0549l2.07733,4.3817l1.14018,-10.93811l3.1067,7.35041l1.84463,-14.49748l1.96429,17.00982l2.88049,-14.751l2.75412,11.44474l3.14702,-8.94268l0.01502,13.46902l2.88179,-4.54107l4.94399,15.16605z" fill="url(#color-6)"/><path d="M207.03684,220.43083l2.42843,-15.0549l2.07733,4.3817l1.14018,-10.93811l3.1067,7.35041l1.84463,-14.49748l1.96428,17.00982l2.88049,-14.751l2.75412,11.44473l3.14702,-8.94268l0.01502,13.46901l2.88179,-4.54107l4.94399,15.16605z" fill="url(#color-7)"/><path d="M252.39971,166.78117l4.94399,-15.16604l2.88179,4.54107l0.01502,-13.46901l3.14702,8.94268l2.75412,-11.44474l2.88049,14.751l1.96428,-17.00982l1.84463,14.49748l3.1067,-7.35041l1.14018,10.93811l2.07733,-4.3817l2.42843,15.0549z" data-paper-data="{&quot;index&quot;:null}" fill="url(#color-8)"/><path d="M252.33761,178.48672l4.94399,-15.16604l2.88179,4.54107l0.01502,-13.46901l3.14702,8.94268l2.75412,-11.44474l2.88049,14.751l1.96429,-17.00982l1.84463,14.49748l3.1067,-7.35041l1.14018,10.93811l2.07733,-4.38169l2.42843,15.0549z" data-paper-data="{&quot;index&quot;:null}" fill="url(#color-9)"/><path d="M241.56354,185.69014l4.94399,-15.16604l2.88179,4.54107l0.01502,-13.46901l3.14702,8.94268l2.75412,-11.44473l2.88049,14.751l1.96428,-17.00982l1.84463,14.49748l3.1067,-7.35041l1.14018,10.93811l2.07733,-4.3817l2.42843,15.0549z" data-paper-data="{&quot;index&quot;:null}" fill="url(#color-10)"/><path d="M206.5711,169.35826l4.94399,-15.16604l2.88179,4.54107l0.01502,-13.46901l3.14702,8.94267l2.75412,-11.44473l2.88049,14.751l1.96428,-17.00982l1.84463,14.49748l3.1067,-7.35041l1.14018,10.93811l2.07733,-4.3817l2.42843,15.0549z" data-paper-data="{&quot;index&quot;:null}" fill="url(#color-11)"/><path d="M201.97582,175.16446l4.94399,-15.16604l2.88179,4.54107l0.01502,-13.46901l3.14702,8.94268l2.75412,-11.44474l2.88049,14.751l1.96428,-17.00982l1.84463,14.49748l3.1067,-7.35041l1.14017,10.93811l2.07733,-4.3817l2.42843,15.0549z" data-paper-data="{&quot;index&quot;:null}" fill="url(#color-12)"/><path d="M258.23253,200.61019l-0.41221,0.23286l-2.85922,0.31809l-4.92405,3.94471l-0.31202,-1.55041l4.43579,-2.87705l0.95919,-1.93766l0.67205,-3.29135l0.37467,-0.64088l-0.50061,3.37208l2.63554,-2.41496l1.14406,-2.32346l-0.24558,2.68713l-3.46303,3.11026l-0.37995,1.23482z" data-paper-data="{&quot;index&quot;:null}" fill="#8c7960"/><path d="M227.34447,185.78551l-1.21734,-0.43269l-4.56284,0.92019l-2.30198,-1.40779l2.54686,0.46994l3.51096,-0.67171l-3.00368,-1.61229l0.7378,0.08222l3.04131,1.42657l2.12701,0.38783l4.95672,-1.83971l1.05723,1.17618l-6.10468,1.59373l-1.96267,2.10339l-0.43294,0.19157z" data-paper-data="{&quot;index&quot;:null}" fill="#8c7960"/></g><g><path d="M291.77294,223.77315v-87.54629h87.54629v87.54629z" fill="#b6ff81"/><path d="M330.85904,159.53394l0.30315,0.36365l0.82678,2.75549l4.76545,4.13491l-1.46908,0.58559l-3.62742,-3.84648l-2.07851,-0.59532l-3.35854,-0.06957l-0.69778,-0.25339l3.40714,-0.11359l-2.8493,-2.15859l-2.49125,-0.70785l2.68751,-0.24136l3.682,2.84765l1.283,0.15183z" data-paper-data="{&quot;index&quot;:null}" fill="#8c7960"/><path d="M308.89266,180.26321l2.42843,-15.0549l2.07733,4.3817l1.14018,-10.93811l3.1067,7.35041l1.84463,-14.49748l1.96428,17.00982l2.88049,-14.751l2.75412,11.44474l3.14702,-8.94268l0.01502,13.46902l2.88179,-4.54107l4.94399,15.16605z" fill="url(#color-13)"/><path d="M326.43246,188.72485l2.42843,-15.0549l2.07733,4.3817l1.14018,-10.93811l3.1067,7.35041l1.84463,-14.49748l1.96428,17.00982l2.88049,-14.751l2.75412,11.44474l3.14702,-8.94268l0.01502,13.46901l2.88179,-4.54107l4.94399,15.16605z" fill="url(#color-14)"/><path d="M309.90952,193.78863l2.42843,-15.0549l2.07733,4.3817l1.14018,-10.93811l3.1067,7.35041l1.84463,-14.49748l1.96428,17.00982l2.88049,-14.751l2.75412,11.44473l3.14702,-8.94268l0.01502,13.46902l2.88179,-4.54107l4.94399,15.16605z" fill="url(#color-15)"/><path d="M342.55099,214.9307l4.94399,-15.16604l2.88179,4.54107l0.01502,-13.46902l3.14702,8.94268l2.75412,-11.44474l2.88049,14.751l1.96428,-17.00982l1.84463,14.49748l3.1067,-7.35041l1.14018,10.93811l2.07733,-4.3817l2.42843,15.0549z" data-paper-data="{&quot;index&quot;:null}" fill="url(#color-16)"/></g><g><path d="M379.23129,231.80729v87.54629h-63.72886c0,0 -12.21162,0.81625 -18.24678,-5.62128c-6.53997,-6.97601 -5.57064,-18.40738 -5.57064,-18.40738v-63.51762z" data-paper-data="{&quot;index&quot;:null}" fill="#b6ff81"/><path d="M307.66888,268.23365l4.94399,-15.16604l2.88179,4.54107l0.01502,-13.46901l3.14702,8.94267l2.75412,-11.44473l2.88049,14.751l1.96428,-17.00982l1.84463,14.49748l3.1067,-7.35041l1.14017,10.93811l2.07733,-4.3817l2.42843,15.0549z" data-paper-data="{&quot;index&quot;:null}" fill="url(#color-17)"/><path d="M324.68255,272.30944l4.94399,-15.16605l2.88179,4.54107l0.01502,-13.46902l3.14702,8.94268l2.75412,-11.44474l2.88049,14.751l1.96428,-17.00982l1.84463,14.49748l3.1067,-7.35041l1.14017,10.93811l2.07733,-4.3817l2.42843,15.0549z" data-paper-data="{&quot;index&quot;:null}" fill="url(#color-18)"/><path d="M312.79242,281.19494l4.94399,-15.16605l2.88179,4.54107l0.01502,-13.46902l3.14702,8.94268l2.75412,-11.44474l2.88049,14.751l1.96428,-17.00982l1.84463,14.49748l3.1067,-7.35041l1.14017,10.93811l2.07733,-4.3817l2.42843,15.0549z" data-paper-data="{&quot;index&quot;:null}" fill="url(#color-19)"/></g><g><path d="M196.2522,319.30753v-63.51762c0,0 -0.96933,-11.43137 5.57064,-18.40738c6.03516,-6.43753 18.24678,-5.62128 18.24678,-5.62128h63.72886v87.54629z" fill="#b6ff81"/><path d="M229.04627,303.01734l4.94399,-15.16605l2.88179,4.54107l0.01502,-13.46902l3.14702,8.94268l2.75412,-11.44474l2.88049,14.751l1.96428,-17.00982l1.84463,14.49748l3.1067,-7.35041l1.14017,10.93811l2.07733,-4.3817l2.42843,15.0549z" data-paper-data="{&quot;index&quot;:null}" fill="url(#color-20)"/><path d="M239.61064,307.80547l4.94399,-15.16604l2.88179,4.54107l0.01502,-13.46901l3.14702,8.94267l2.75412,-11.44473l2.88049,14.751l1.96428,-17.00982l1.84463,14.49748l3.1067,-7.35041l1.14017,10.93811l2.07733,-4.3817l2.42843,15.0549z" data-paper-data="{&quot;index&quot;:null}" fill="url(#color-21)"/></g><g><path d="M291.76354,128.04944v-87.54629h63.72886c0,0 12.21162,-0.81625 18.24678,5.62128c6.53997,6.97601 5.57064,18.40738 5.57064,18.40738v63.51762z" data-paper-data="{&quot;index&quot;:null}" fill="#b6ff81"/><path d="M305.24373,82.21769l4.94399,-15.16604l2.88179,4.54107l0.01502,-13.46901l3.14702,8.94267l2.75412,-11.44473l2.88049,14.751l1.96428,-17.00982l1.84463,14.49748l3.1067,-7.35041l1.14017,10.93811l2.07733,-4.3817l2.42843,15.0549z" data-paper-data="{&quot;index&quot;:null}" fill="url(#color-22)"/><path d="M343.96943,75.86319l4.94399,-15.16605l2.88179,4.54107l0.01502,-13.46902l3.14702,8.94268l2.75412,-11.44474l2.88049,14.751l1.96428,-17.00982l1.84463,14.49748l3.1067,-7.35041l1.14017,10.93811l2.07733,-4.3817l2.42843,15.0549z" data-paper-data="{&quot;index&quot;:null}" fill="url(#color-23)"/><path d="M314.41167,89.43169l4.94399,-15.16605l2.88179,4.54107l0.01502,-13.46902l3.14702,8.94268l2.75412,-11.44474l2.88049,14.751l1.96428,-17.00982l1.84463,14.49748l3.1067,-7.35041l1.14017,10.93811l2.07733,-4.3817l2.42843,15.0549z" data-paper-data="{&quot;index&quot;:null}" fill="url(#color-24)"/><path d="M324.73979,107.80796l-0.3662,0.30005l-2.76241,0.80341l-4.17512,4.73025l-0.57312,-1.47399l3.87708,-3.59472l0.61291,-2.07339l0.09801,-3.35783l0.25929,-0.69561l0.08472,3.40799l2.18265,-2.83091l0.72893,-2.48516l0.21858,2.68946l-2.87873,3.65774l-0.1627,1.28166z" data-paper-data="{&quot;index&quot;:null}" fill="#8c7960"/></g><g><path d="M475.04321,136.27748v63.51762c0,0 0.96933,11.43137 -5.57064,18.40738c-6.03516,6.43753 -18.24678,5.62128 -18.24678,5.62128h-63.72886v-87.54629z" data-paper-data="{&quot;index&quot;:null}" fill="#b6ff81"/><path d="M401.18997,207.61338l4.94399,-15.16604l2.88179,4.54107l0.01502,-13.46901l3.14702,8.94267l2.75412,-11.44473l2.88049,14.751l1.96428,-17.00982l1.84463,14.49748l3.1067,-7.35041l1.14017,10.93811l2.07733,-4.3817l2.42843,15.0549z" data-paper-data="{&quot;index&quot;:null}" fill="url(#color-25)"/><path d="M434.80696,194.44726l4.94399,-15.16605l2.88179,4.54107l0.01502,-13.46902l3.14702,8.94268l2.75412,-11.44474l2.88049,14.751l1.96428,-17.00982l1.84463,14.49748l3.1067,-7.35041l1.14017,10.93811l2.07733,-4.3817l2.42843,15.0549z" data-paper-data="{&quot;index&quot;:null}" fill="url(#color-26)"/><path d="M449.34841,195.24249l-0.46906,-1.20379l-3.68079,-2.84919l-0.44106,-2.66204l1.3106,2.23376l2.80477,2.21614l-0.7454,-3.32655l0.42045,0.61182l0.91048,3.23352l1.09805,1.86249l4.63396,2.54562l-0.19803,1.56904l-5.19883,-3.57479l-2.87482,-0.10855l-0.4281,-0.20214z" data-paper-data="{&quot;index&quot;:null}" fill="#8c7960"/><path d="M425.47118,213.55019l4.94399,-15.16605l2.88179,4.54107l0.01502,-13.46902l3.14702,8.94268l2.75412,-11.44474l2.88049,14.751l1.96428,-17.00982l1.84463,14.49748l3.1067,-7.35041l1.14017,10.93811l2.07733,-4.3817l2.42843,15.0549z" data-paper-data="{&quot;index&quot;:null}" fill="url(#color-27)"/></g><g><path d="M100.67908,319.31631v-63.51762c0,0 -0.96933,-11.43137 5.57064,-18.40738c6.03516,-6.43753 18.24678,-5.62128 18.24678,-5.62128h36.36315l27.36571,28.98374v58.56255z" fill="#b6ff81"/><path d="M100.6284,319.31631v-63.03085l19.41186,-24.51544h44.317c0,0 12.21162,-0.81625 18.24678,5.62128c6.53997,6.97601 5.57064,18.40738 5.57064,18.40738v63.51762z" data-paper-data="{&quot;index&quot;:null}" fill="#b6ff81"/><path d="M114.44045,284.26943l4.94399,-15.16604l2.88179,4.54107l0.01502,-13.46901l3.14702,8.94267l2.75412,-11.44473l2.88049,14.751l1.96428,-17.00982l1.84463,14.49748l3.1067,-7.35041l1.14017,10.93811l2.07733,-4.3817l2.42843,15.0549z" data-paper-data="{&quot;index&quot;:null}" fill="url(#color-28)"/><path d="M146.83166,273.68575l4.94399,-15.16605l2.88179,4.54107l0.01502,-13.46902l3.14702,8.94268l2.75412,-11.44474l2.88049,14.751l1.96428,-17.00982l1.84463,14.49748l3.1067,-7.35041l1.14017,10.93811l2.07733,-4.3817l2.42843,15.0549z" data-paper-data="{&quot;index&quot;:null}" fill="url(#color-29)"/><path d="M128.89731,292.04854l4.94399,-15.16605l2.88179,4.54107l0.01502,-13.46902l3.14702,8.94268l2.75412,-11.44474l2.88049,14.751l1.96428,-17.00982l1.84463,14.49748l3.1067,-7.35041l1.14017,10.93811l2.07733,-4.3817l2.42843,15.0549z" data-paper-data="{&quot;index&quot;:null}" fill="url(#color-30)"/></g><g><path d="M188.22963,40.79362v58.48744l-27.33061,28.94657h-36.31651c0,0 -12.19595,0.81521 -18.22337,-5.61407c-6.53158,-6.96706 -5.5635,-18.38377 -5.5635,-18.38377v-63.43616z" data-paper-data="{&quot;index&quot;:null}" fill="#b6ff81"/><path d="M188.179,40.79362v63.43616c0,0 0.96808,11.41671 -5.5635,18.38377c-6.02742,6.42928 -18.22337,5.61407 -18.22337,5.61407h-44.26016l-19.38696,-24.484v-62.95001z" data-paper-data="{&quot;index&quot;:null}" fill="#b6ff81"/><path d="M146.06137,92.99392l2.42532,-15.03559l2.07467,4.37608l1.13871,-10.92408l3.10272,7.34098l1.84226,-14.47889l1.96176,16.98801l2.87679,-14.73209l2.75058,11.43006l3.14298,-8.93121l0.015,13.45175l2.8781,-4.53524l4.93765,15.1466z" data-paper-data="{&quot;index&quot;:null}" fill="url(#color-31)"/><path d="M154.99947,101.49827l4.93765,-15.1466l2.8781,4.53524l0.015,-13.45175l3.14298,8.93121l2.75058,-11.43006l2.87679,14.73209l1.96176,-16.98801l1.84226,14.47889l3.10272,-7.34098l1.13871,10.92408l2.07467,-4.37608l2.42532,15.03559z" data-paper-data="{&quot;index&quot;:null}" fill="url(#color-32)"/><path d="M114.25744,113.09029l4.93765,-15.1466l2.8781,4.53524l0.015,-13.45175l3.14298,8.93121l2.75058,-11.43006l2.87679,14.73209l1.96176,-16.98801l1.84226,14.47889l3.10272,-7.34098l1.13871,10.92408l2.07467,-4.37608l2.42532,15.03559z" data-paper-data="{&quot;index&quot;:null}" fill="url(#color-33)"/><path d="M108.94316,116.39758l2.42532,-15.03559l2.07467,4.37608l1.13871,-10.92408l3.10272,7.34098l1.84226,-14.47889l1.96176,16.98801l2.87679,-14.73209l2.75058,11.43006l3.14298,-8.93121l0.015,13.45175l2.8781,-4.53524l4.93765,15.1466z" data-paper-data="{&quot;index&quot;:null}" fill="url(#color-34)"/></g><g><path d="M474.9542,319.30611h-58.48744l-28.94657,-27.33061v-36.31651c0,0 -0.81521,-12.19595 5.61407,-18.22337c6.96706,-6.53158 18.38377,-5.5635 18.38377,-5.5635h63.43616z" data-paper-data="{&quot;index&quot;:null}" fill="#b6ff81"/><path d="M474.95421,319.25549h-63.43616c0,0 -11.41671,0.96808 -18.38377,-5.5635c-6.42928,-6.02742 -5.61407,-18.22337 -5.61407,-18.22337v-44.26016l24.484,-19.38696h62.95001z" data-paper-data="{&quot;index&quot;:null}" fill="#b6ff81"/><path d="M439.00683,272.81385l2.42532,-15.03559l2.07467,4.37608l1.13871,-10.92408l3.10272,7.34098l1.84226,-14.47889l1.96176,16.98801l2.87679,-14.73209l2.75058,11.43006l3.14298,-8.93121l0.015,13.45175l2.8781,-4.53524l4.93765,15.1466z" data-paper-data="{&quot;index&quot;:null}" fill="url(#color-35)"/><path d="M424.13129,284.42433l4.93765,-15.1466l2.8781,4.53524l0.015,-13.45175l3.14298,8.93121l2.75058,-11.43006l2.87679,14.73209l1.96176,-16.98801l1.84226,14.47889l3.10272,-7.34098l1.13871,10.92408l2.07467,-4.37608l2.42532,15.03559z" data-paper-data="{&quot;index&quot;:null}" fill="url(#color-36)"/><path d="M439.3347,298.11571l2.42532,-15.03559l2.07467,4.37608l1.13871,-10.92408l3.10272,7.34098l1.84226,-14.47889l1.96176,16.98801l2.87679,-14.73209l2.75058,11.43006l3.14298,-8.93121l0.015,13.45175l2.8781,-4.53524l4.93765,15.1466z" data-paper-data="{&quot;index&quot;:null}" fill="url(#color-37)"/></g><g><path d="M196.17096,40.80451h63.43616c0,0 11.41671,-0.96808 18.38377,5.5635c6.42928,6.02742 5.61407,18.22337 5.61407,18.22337v36.31651l-28.94657,27.33061h-58.48744z" data-paper-data="{&quot;index&quot;:null}" fill="#b6ff81"/><path d="M196.17095,40.75388h62.95001l24.484,19.38696v44.26016c0,0 0.81521,12.19595 -5.61407,18.22337c-6.96706,6.53158 -18.38377,5.5635 -18.38377,5.5635h-63.43616z" data-paper-data="{&quot;index&quot;:null}" fill="#b6ff81"/><path d="M210.20971,79.5517l4.93765,-15.1466l2.8781,4.53524l0.015,-13.45175l3.14298,8.93121l2.75058,-11.43006l2.87679,14.73209l1.96176,-16.98801l1.84226,14.47889l3.10272,-7.34098l1.13871,10.92408l2.07467,-4.37608l2.42532,15.03559z" data-paper-data="{&quot;index&quot;:null}" fill="url(#color-38)"/><path d="M220.23624,87.37596l2.42532,-15.03559l2.07467,4.37608l1.13871,-10.92408l3.10272,7.34098l1.84226,-14.47889l1.96176,16.98801l2.87679,-14.73209l2.75058,11.43006l3.14298,-8.93121l0.015,13.45175l2.8781,-4.53524l4.93765,15.1466z" data-paper-data="{&quot;index&quot;:null}" fill="url(#color-39)"/></g><g><path d="M100.64925,223.77315v-87.54629h87.54629v87.54629z" fill="#b6ff81"/><path d="M133.44332,207.54892l4.94399,-15.16604l2.88179,4.54107l0.01502,-13.46902l3.14702,8.94268l2.75412,-11.44474l2.88049,14.751l1.96428,-17.00982l1.84463,14.49748l3.1067,-7.35041l1.14018,10.93811l2.07733,-4.3817l2.42843,15.0549z" data-paper-data="{&quot;index&quot;:null}" fill="url(#color-40)"/><path d="M144.00765,212.33704l4.94399,-15.16604l2.88179,4.54107l0.01502,-13.46901l3.14702,8.94267l2.75412,-11.44473l2.88049,14.751l1.96428,-17.00982l1.84463,14.49748l3.1067,-7.35041l1.14018,10.93811l2.07733,-4.3817l2.42843,15.0549z" data-paper-data="{&quot;index&quot;:null}" fill="url(#color-41)"/></g></g></g></svg>